<svg xmlns="http://www.w3.org/2000/svg" viewBox="0 0 320.83 471.98"><defs><style>.cls-1{fill:#2a231d;}</style></defs><title>chilli_2</title><g id="Layer_2" data-name="Layer 2"><g id="Layer_1-2" data-name="Layer 1"><path class="cls-1" d="M30.83,469.23c-.61-1.51-1.42-6.35-1.79-10.75A52.87,52.87,0,0,0,26.09,445c-2.94-7.14-3.8-21.55-2.15-36.43,1.19-10.79,1.15-11.3-1.38-20a61.06,61.06,0,0,1-2.69-19.19l-.07-10.24-2.54,1c-3.63,1.38-7-1.08-7.86-5.79a50.44,50.44,0,0,0-3.2-9.16c-2.4-5.26-2.46-5.88-1.69-18,1-15.25.82-23.09-.51-26.6-2.2-5.8-4-17.48-4-26,0-9.17,2.73-22.48,7-34.07,1.18-3.22,1.53-5.47.93-6.07S6,230,4.78,225.92c-2-6.66-2.2-9.8-2.25-29.94,0-12.37-.44-24-.91-25.75C.84,167.32,1,167,2.84,167c2.6,0,8.28,5.59,12.71,12.51S33.32,196,38.5,196c2.62,0,7.58-4.26,9.64-8.29C53.22,177.76,65.7,169,74.6,169a38.39,38.39,0,0,1,10.12,1.84l5.22,1.8-6.37-12.08C75.7,145.63,73.14,139.36,69,124.86c-1.8-6.26-4-12-4.87-12.71-2.49-2.06-10.39-.91-15.06,2.18-2.35,1.55-3.78,3.19-3.48,4,.7,1.82-1.27,6.72-3.36,8.37-6.5,5.11-16.33,5.58-19.44.91-4.63-6.93,9.14-20,18.42-17.53,3.05.82,13.76-2.82,13.79-4.7a4.2,4.2,0,0,0-1.59-2.46,33.62,33.62,0,0,1-4.6-6.63C47.15,93.36,45.72,91,45.62,91s-2,.9-4.12,2c-5.59,2.85-11.93,2.66-15-.45S23.41,88.06,26,83c2-4,5.78-7.53,9.11-8.59,2.75-.87,2.46-1.65-2.63-7.32C26,60,15.49,54.78,8,55s-8,.18-8-1.83C0,50.15,4.92,46.85,15.28,43c6-2.25,12.29-2.59,31.28-1.68,12.58.6,17.58,1.8,27.92,6.71,3.29,1.56,6.13,2.7,6.3,2.52a53.23,53.23,0,0,0,1.35-7c.83-5.31.74-7.52-.42-10.94S80.43,26.33,81,19.8C82.24,6.51,86.26,1,94.71,1c11.22,0,13.92,13.11,4.83,23.5C97.61,26.68,96,29.05,96,29.75s-1.8,3.2-4,5.56c-4,4.33-6,9.73-6,16.37,0,5.51,2.43,5.66,9.79.62a127.52,127.52,0,0,1,11.09-6.78c5.47-2.77,15.27-11.46,18.09-16a15.91,15.91,0,0,0,2-7.18c0-3.32.77-4.78,5-9.38,2.94-3.21,5.25-6.79,5.62-8.71,1.08-5.61,3.15-5.63,4.33,0,.77,3.65,1.34,3.75,7.95,1.33,2.41-.89,4.63-1.35,5-1s0,3.77-.65,7.69-1,7.3-.8,7.53a23.06,23.06,0,0,0,5.19,1.11c2.62.37,4.94,1.21,5.16,1.86s-1.23,3-3.21,5.17c-3.94,4.36-3.71,4.88,2.64,6,2.3.4,4.36,1.26,4.58,1.92s-1.69,3.44-4.26,6.19-4.36,5.46-3.95,6.13,2.23,1.79,4.09,2.57c7.67,3.2,2,6.07-9.37,4.77a56.49,56.49,0,0,0-8.63-.49c-1,.15-4.63-1.12-8-2.81C132.31,49.4,130.37,49,123,48.88c-11.49-.15-19.22,2.92-26.36,10.45l-2.86,3,3,2.56c9.27,8,13.25,24.22,11,44.74-1.17,10.52-1.16,10.57,2.8,21.83,1,2.75,1.92,5.62,2.12,6.37s2-.47,4.55-3.5c2.3-2.68,6.32-6.9,8.93-9.37,4.39-4.18,4.93-5.25,7.33-14.5,5.31-20.52,8.76-26.69,23.34-41.74,24.53-25.32,40.8-31.86,75.69-30.44,11,.45,14.22,1,21,3.44,4.4,1.6,9.35,3.6,11,4.45s10.81,4.09,20.36,7.2c17.94,5.85,23.86,8.35,26,11,1.9,2.3.32,3.92-3.14,3.22-5.52-1.1-22.74,4.69-31.26,10.51a114.55,114.55,0,0,0-10,8.26,65.45,65.45,0,0,1-13.1,9c-4.78,2.34-10.07,6.21-16,11.74-11.26,10.44-21.12,16.9-30.52,20-6.8,2.22-8.93,2.41-27.37,2.41-11,0-25.63-.4-32.51-.89l-12.51-.89-3.2,2.7a69.32,69.32,0,0,0-8.21,9.58l-5,6.89,3.83-1.35c7.59-2.67,20-4.45,38.62-5.53,10.45-.61,22.15-1.59,26-2.18,7.26-1.1,20.57-.49,28.5,1.32q25.08,5.72,37.13,26c3.44,5.78,4.26,8.3,5.42,16.6.76,5.39,2.47,14.07,3.8,19.29a59.09,59.09,0,0,1,2.17,19c-.44,16.13-2.69,19.24-7,9.75C251.14,218.1,243,213,222,208.09c-12.77-3-17.5-5.38-24.39-12.41-7.52-7.66-11.41-10.66-18.85-14.5-8-4.15-14.41-9.16-16.17-12.7-3-6.07-9.31-14.07-13.14-16.72-6.9-4.77-11.63-5.39-21.29-2.77s-15.62,7.24-14.6,11.31c.32,1.25-.33,4.2-1.47,6.71a23.44,23.44,0,0,0-2,7.35c-.06,7.34,21,38.2,32.91,48.21l2.73,2.31,6.34-6.4a54,54,0,0,1,13.83-10.2c6.76-3.42,8.24-3.8,15.08-3.76,6.53,0,8.45.48,13.75,3.22,6.84,3.53,16.5,12,20.8,18.19,1.76,2.53,3.61,4.06,4.92,4.09,3.53,0,15.78,5.32,22.13,9.52,3.3,2.17,8.24,5.07,11,6.44s8.07,5.6,11.81,9.4a100.48,100.48,0,0,0,10.65,9.5c6.1,4.15,15.53,13.25,18.91,18.25S305,307,305,311.24c0,1.38,1.2,5.59,2.68,9.37,2.48,6.38,2.69,8.06,2.84,23.37.18,18.9.36,20,5.17,31.21,5.72,13.34,6.63,20,2.92,21.39-.79.3-4.31-1.27-7.82-3.49s-11.76-6.6-18.34-9.74-14.36-7.23-17.3-9.09l-5.35-3.38.67,5.3a44.72,44.72,0,0,0,5.67,17.69c3.5,6.61,3.6,10,.41,13.47-4.83,5.2-13.43,2.85-24-6.55-6.81-6.08-10.9-12.15-15.7-23.31a239.51,239.51,0,0,0-18.17-33.24C211,332.55,204.56,313.92,203.33,300c-.55-6.21-1.27-8.43-4.17-13-6.47-10.11-10.16-20.12-10.8-29.26-.7-10.13-3.69-19-7.44-22.19a17,17,0,0,0-7.15-3c-5.25-.78-13.93.91-16.87,3.29l-2.13,1.73,7.45,10.94c9,13.27,17,28,19.24,35.45.89,3,2.52,10,3.61,15.46s2.61,12.45,3.37,15.5A155.44,155.44,0,0,1,191,331.48c2.75,26.79,5.7,47.75,8.12,57.5,4.73,19.16,10.56,31.37,19.83,41.52,10.43,11.44,14.86,16,18,18.48,4.12,3.25,5.24,9.63,2.57,14.59-4.26,7.9-15.57,4.85-29.16-7.87-17.05-15.95-30.37-43.21-34.83-71.3-1-6.42-3.71-9.95-8.95-11.74-6.13-2.08-15.54-9.59-22.74-18.12-5.8-6.88-6-7-16.6-10.63-5.91-2-13.32-4.64-16.47-5.81-7.59-2.81-10.61-2.78-11.15.13-.23,1.24-1.17,6.5-2.09,11.69a88.46,88.46,0,0,1-4.1,15.22,38.62,38.62,0,0,0-2.43,7c0,.66-1.38,3.34-3.06,6s-4.28,9.25-5.93,15.35c-4.64,17.18-9.89,26.27-23.1,40.05C52.63,440,49.38,445,43,458c-5.1,10.29-7.63,14-9.56,14-.8,0-2-1.24-2.58-2.75Zm7.58-7.81c2.68-5.88,3.48-12.28,4.08-32.69.24-8.12.93-16.6,1.54-18.85,1.44-5.36,2.07-4.62.95,1.12s-1.78,40.38-.73,38.5c.43-.77,1.24-8.74,1.81-17.71S47.3,415,47.55,414.48s.25,5.95,0,14.43c-.45,14.59-.38,15.34,1.24,13.72,1.42-1.42,1.78-4.11,2.06-15.5.35-14.24-.8-21.4-4.25-26.33-1.46-2.08-1.55-2.09-2.15-.24-.35,1.06-1,3.05-1.53,4.42-2.22,6.15-4.17,21.44-4.19,33,0,8.88-.26,11.34-.82,8.5-1.1-5.59-1.07-18,.06-24.5.53-3,1.39-8,1.91-11s1.27-6.85,1.65-8.5c.67-2.93.63-2.91-2.06.91-2.24,3.19-2.83,5.28-3.21,11.5-.55,9-1.23,10.62-1.29,3l0-5.42-1.65,3c-.91,1.65-2.44,6.83-3.41,11.5-1.38,6.67-1.65,7.32-1.23,3a62.67,62.67,0,0,1,12.29-32.5c3.92-5.29,6.88-13.19,9.56-25.5.9-4.12,2-9.3,2.52-11.5a119.13,119.13,0,0,0,1.56-12l.68-8-5.54,8c-8,11.53-12.06,19-14.66,27-1.26,3.85-2.68,7.43-3.16,7.95a6.38,6.38,0,0,0-.9,3.5A8.92,8.92,0,0,1,30,391c-1.33,2.06-1.22.56.5-6.75,1.59-6.74,10.12-27.89,11.62-28.82,1.31-.81,10.22-14.38,11.75-17.9.71-1.64,1.7-8.38,2.2-15s1.55-14,2.33-16.52,1.7-5.89,2-7.54l.61-3L59,298a95.11,95.11,0,0,0-6.53,11.82,136.41,136.41,0,0,1-7.6,13.82,102.46,102.46,0,0,0-6.47,11.68c-3.81,8.12-4.47,8.36-1.37.5l2.07-5.26L37,332.48c-3.71,3.35-11,15.13-13,21.09-3.43,10-2.59,26.91,1.81,36.31,1.39,3,1.44,4.88.39,15.5-2,20.53-1.31,29.81,3,39l1.91,4.1-.66-4c-.36-2.2-.37-3.74,0-3.42,1.27,1.17,3.76,18.55,3.19,22.23-.67,4.31.17,6.68,1.62,4.55a69.37,69.37,0,0,0,3.24-6.42Zm-3.28-1.94c-.11-2.2-.85-8.5-1.64-14-1.56-10.75-2-23.5-.74-23.5.41,0,.59,2.29.4,5.08s.41,10.56,1.34,17.25S36,458.06,35.75,460l-.43,3.5-.19-4Zm-6.88-54c0-5.52.22-7.84.65-6a35,35,0,0,1,.05,9C28.34,414.08,28.29,413.88,28.25,405.48Zm4.5-3.25c-.2-.41-.08-4.12.28-8.25l.65-7.5.16,8.25c.15,7.59-.13,9.47-1.09,7.5Zm5-8c-.43-.67-.32-4,.24-7.5s1.18-8.09,1.37-10.29c.25-2.93.36-2.53.4,1.5.09,8.12-1.09,17.7-2,16.29Zm4.85-11.8a57,57,0,0,1,1.38-9c1.4-4.71,1.12.08-.47,8l-1.4,7Zm-17.37-4c0-1.65.19-2.44.47-1.77a5.7,5.7,0,0,1,0,3C25.44,380.69,25.21,380.13,25.19,378.48Zm22-7a34.4,34.4,0,0,1,.76-6c.7-3.36.83-3.52.83-1,0,3.51-1.5,10.08-1.59,7Zm-19-2c0-1.65.19-2.44.47-1.77a5.7,5.7,0,0,1,0,3C28.44,371.69,28.21,371.13,28.19,369.48Zm17-3.5c0-1.92.21-2.71.46-1.75a8.26,8.26,0,0,1,0,3.5C45.44,368.7,45.23,367.91,45.23,366ZM32.3,360c0-3,.19-4.26.42-2.75a22,22,0,0,1,0,5.5C32.49,364.25,32.3,363,32.3,360Zm.86-8c0-1.37.22-1.93.5-1.25a3.83,3.83,0,0,1,0,2.5C33.38,353.92,33.16,353.36,33.16,352Zm6.07-6c0-1.92.21-2.71.46-1.75a8.26,8.26,0,0,1,0,3.5C39.44,348.7,39.23,347.91,39.23,346ZM237.44,462.76a10.05,10.05,0,0,0,1.56-4.92c0-3.12-4.09-8.43-7.26-9.44a10.28,10.28,0,0,1-4-3c-2.5-3.18-8-3.26-10.16-.14-2,2.88-2,8.19.06,11.31,5,7.58,16.38,11.17,19.83,6.24ZM227.11,455c-1.82-3.41-3.08-6.42-2.81-6.68.66-.67,6.81,10.79,6.42,12-.17.51-1.79-1.87-3.61-5.28Zm-3.86-.58c-2.47-6-3.06-9.77-.79-5,2.78,5.87,4.43,10.5,3.74,10.49-.39,0-1.71-2.48-2.95-5.52Zm7.63,1.28c-1.56-3-1.73-3.87-.6-2.94,1.47,1.22,4.12,7.19,3.19,7.19-.24,0-1.4-1.91-2.59-4.25Zm-10.71-1.69c-.65-1.87-1-3.6-.7-3.87.66-.66,2.67,4.87,2.24,6.18-.2.59-.89-.45-1.54-2.31Zm-9.85-6.12c-8.15-8.77-17-25-22.44-41.17-3-9.07-6.91-25.79-6.76-29.27,0-1.1,1.12,2.72,2.38,8.5,3.26,14.88,7,26.09,12.25,36.49,6.5,12.95,16.28,26.79,17.84,25.24.42-.42-.59-2.22-2.26-4a80,80,0,0,1-11.11-16.27c-2.56-5-9.23-24.09-9.21-26.31,0-.91,1.57,2.85,3.48,8.35a173.25,173.25,0,0,0,7.24,17.42c4,7.89,13.16,18.89,13.23,15.88a4.28,4.28,0,0,0-1.82-3c-2.61-1.83-8.47-11.26-11.55-18.57-3.9-9.28-3.13-8.75,1.9,1.29,2.47,4.94,6.18,10.93,8.25,13.31,3.4,3.91,4.13,4.3,7.64,4l3.89-.33L219,434c-2.37-3-4.6-5.73-4.95-6-3.77-3-11.41-18.61-14.92-30.5-3-10.07-7.08-30.26-7.08-34.71,0-2.08-.43-3.79-.95-3.79s-1.43-1.69-2-3.75c-1.3-4.73-8.32-52.31-7.79-52.85s4.49,22.42,5.32,30.1c.92,8.48,3.64,23.61,4.16,23.09,1.45-1.46-6.25-48.89-10.9-67.09-3-11.8-15.24-35.52-17.93-34.77-.46.14-.62-.34-.34-1.05s-.42-2.36-1.54-3.64c-1.27-1.47-2-1.83-2-1,0,2.51-5.27-6.31-6.17-10.36-1.18-5.24,1.73-11.41,8.62-18.22C170.9,209.14,181.26,207,193,212.63c7.28,3.51,14.62,10.15,18.45,16.68,2.66,4.54,3,6.84,2,12.68l-.61,3.5,2.07-3c2.56-3.71,2.7-1.61.3,4.7s-3.62,7.22-3,2.3l.55-4-1.36,3a16.29,16.29,0,0,0-1.41,4.75c0,1-.53,1.75-1.12,1.75s-.84-1.17-.4-3.25.36-2.93-.34-2.25c-1,1-1.64,5.21-1.33,8.71.13,1.57.46,1.54,3.65-.35,1.92-1.13,3.5-2.86,3.5-3.83,0-2.51,3.81-7,5.94-7a9.22,9.22,0,0,1,4.33,2,11,11,0,0,0,6.26,2c3.26,0,3.55-.19,2.41-1.58a19.66,19.66,0,0,0-4.88-3.4c-4.69-2.41-7.84-5.25-7.36-6.65.21-.62-.67-2.42-1.94-4s-3.49-4.67-4.92-6.87c-7.46-11.53-18-19.51-28.32-21.41-10.13-1.88-19.81,1.82-29.27,11.17-3.44,3.4-6.25,6.55-6.25,7a4.25,4.25,0,0,1-1,2c-.56.66-1.66,2.11-2.42,3.21-1.37,2-1.41,1.95-2.4-.5-.55-1.38-3.29-5-6.09-8-6.43-7-18.27-23-25.5-34.46-6.29-10-7.07-14.54-3.51-20.38l2-3.34-3,.66c-2.46.54-3.47.18-5.43-1.93l-2.4-2.6-.65,2.58a16.67,16.67,0,0,0,0,5.91c.73,3.89-1.27,6-3,3.15a41.45,41.45,0,0,0-3.37-4.43c-3.65-4.22-9.84-15-13.59-23.68C76.22,135.66,72,121.4,72,117.8c0-1-.45-1.81-1-1.81-2.43,0-.13,10.84,5.42,25.5,2.81,7.42,10.12,20.75,17.26,31.49C96.06,176.54,98,180,98,180.73c0,1.94-2.38,1.49-3.76-.73-2-3.16-8.88-7-14.65-8.17-11.07-2.22-23.83,5.19-29.8,17.31-2.48,5-2.53,5.46-1,7.2s1.54,1.84-.83,1.5c-2.1-.3-2.86.37-4.78,4.15a34.51,34.51,0,0,0-2.87,8.25C40,212.3,39.4,214,39,214c-1.25,0,.91-8.11,3.6-13.5l2.49-5-2.61,3c-4.93,5.66-8.05,15.4-5.45,17a1.1,1.1,0,0,1,.52,1.44c-.28.45.21,1.42,1.09,2.15,1.34,1.11,1.78,1.07,2.74-.24,2.23-3,7.68-5,12.76-4.7,5.26.36,5.58-.08,3.8-5.16-.79-2.28-.85-2.22-.57.75.56,6-1.16,3.32-2.43-3.8-.69-3.87-1.63-7.27-2.09-7.56-1.47-.91-.89-6.36,1.09-10.24a31.09,31.09,0,0,1,13.3-12.74c5.6-2.87,7.26-2.94,15.16-.73A22.49,22.49,0,0,1,93.2,181c2.65,2.55,5,4.46,5.2,4.25s1.42,1.08,2.69,2.86,1.65,2.85.86,2.37c-1.92-1.16,0,1.26,5.8,7.39,4.21,4.43,5.83,7.63,2.54,5-5.16-4.13,8.93,15.23,25.2,34.63,5.53,6.6,11.1,13.68,12.37,15.75,3.23,5.26,3.68,4.67.71-.92-1.37-2.56-2.25-5-2-5.5s-.31-.83-1.32-.83c-1.69,0-5.62-4.62-16.28-19.12-1.93-2.61-6.14-8.19-9.35-12.38s-5.67-7.82-5.43-8.05c.45-.45,5.18,5.47,20.78,26,10.09,13.27,14,17,6.35,6-2.52-3.61-4.38-6.75-4.14-7,.93-.94,14,18.4,13.24,19.62-.34.54.73,3.11,2.38,5.7,3.72,5.86,6.38,12.22,5.12,12.22-.52,0-.95.95-.95,2.11,0,1.75-.88,1.22-5.14-3.06-8.29-8.34-24-15.05-35.2-15.05-7.23,0-6.28,1.65,1.36,2.36,19.16,1.78,36.86,13.61,44,29.4,1.81,4,3.44,7.11,3.63,6.92.46-.46-4.57-12.84-5.84-14.4a2.87,2.87,0,0,1-.53-2.5c.66-1.82,6,10,9.53,21.22a222.34,222.34,0,0,1,8.21,32.5c1.49,8.43,1.81,9.29,2,5.5l.23-4.5L180,334c1.14,6.74,1.9,23.81,1,21.5-.83-2.05-1.11.19-1.23,9.75,0,3.73-1,4.89-2.13,2.5-.31-.69-.32-.24,0,1,.39,1.58.11,2.25-1,2.25a2.72,2.72,0,0,1-2.14-1c-.35-.56-3.55-2.34-7.11-3.95-11.7-5.31-23.79-18.16-32.5-34.55-2.8-5.28-4.87-9.82-4.59-10.1s2.83,3.8,5.68,9.06,5.59,9.57,6.1,9.57c1.34,0,1.27-.21-2.35-6.66C133.64,322.48,125.48,305,126.51,305c.25,0,3.67,6.53,7.6,14.52s7.53,14.76,8,15.06c1.22.75,1.09-13.88-.22-23.24a56.22,56.22,0,0,0-9.71-25.05,50.68,50.68,0,0,1-5.75-11.87c-2.38-8.26-6.14-15.39-8.22-15.57a20.82,20.82,0,0,0-10.41,1.74c-6.09,3.15-7.53,20-2.5,29.32C107.61,294.15,121,313,121.74,313c.57,0-2.69-5.34-10.93-17.91-3.75-5.73-6.53-10.68-6.18-11s.84-.06,1.07.6a94.26,94.26,0,0,0,5.63,8.5c2.86,4,6.77,9.93,8.69,13.14,2.1,3.52,3.61,5.2,3.8,4.25.36-1.75-3.77-10.67-6.75-14.58-1.63-2.14-11.26-17-13.46-20.75-.4-.69-.32-1.25.17-1.25.88,0,16.68,23.43,17.84,26.46,1,2.67,2.27.63,1.41-2.34-1.26-4.41-4.24-9.55-14.2-24.5-2.15-3.24-3.75-6.36-3.56-6.93s4.12,4.88,8.73,12.13S122.74,292,123.19,292s.81-1.45.81-3.23c0-4.28-3.14-18.77-4.07-18.77s-5.15-7.11-4.55-7.71c.25-.26,1,.59,1.66,1.87a25.34,25.34,0,0,0,3.07,4.39c3.5,3.86,4.87,11.11,4.88,25.95,0,19.88,2.65,30.34,10.41,41.36,3.08,4.37,5.59,8.32,5.58,8.79,0,1.4-8.48-8.47-11.07-12.92-3.29-5.66-9.5-11.48-13.09-12.27-1.63-.36-3.21-.41-3.5-.12-.67.67,4.84,10.55,9.43,16.91,2,2.82,4.2,4.75,5.33,4.75s1.92-.23,1.92-.51-2.52-4.37-5.59-9.08-5.37-8.79-5.1-9.06,2.22,2.28,4.34,5.65c7,11.08,9.22,13.84,12.63,15.46,1.85.88,5.92,4.66,9,8.39,9.44,11.34,16.57,16.93,24.51,19.25,3.27,1,4.65,2,5.67,4.33,1.31,3,1.35,3,1.51.57.1-1.38,1,.87,1.93,5,4.14,17.64,9.28,35.48,11.48,39.82,7.34,14.48,22.61,35.7,23.41,32.51.17-.7-1.4-3.12-3.5-5.38ZM187.63,391.3C185.55,385,183,374,183.05,371.48c0-1.1,1.54,3.85,3.39,11,3.45,13.3,4,17.42,1.19,8.82Zm5.91-6.47a73.59,73.59,0,0,1-2.09-9.35c-.27-2.2.61,0,2,5,2.66,9.65,2.76,13.24.12,4.38ZM190.23,368c0-1.92.21-2.71.46-1.75a8.26,8.26,0,0,1,0,3.5C190.44,370.7,190.23,369.91,190.23,368Zm-8.15-.41c-.05-1.06.19-1.65.52-1.31a2,2,0,0,1,.08,1.91c-.32.8-.55.56-.6-.6ZM178,324c-.68-2.8-1-5.3-.78-5.55s1,1.88,1.62,4.71,1,5.33.79,5.55-1-1.9-1.63-4.71Zm-43.1-7.59c-6.32-13.48-9.13-20.51-8.47-21.17.28-.28.94.6,1.45,2s3.73,8.43,7.14,15.7,5.93,13.49,5.6,13.82-2.91-4.31-5.72-10.31Zm-6.34,1.89c-.54-1.43-.43-1.54.56-.56.69.68,1,1.48.69,1.79s-.87-.25-1.25-1.23Zm7.09-11.46c-4.28-8.93-7.81-17.84-7.09-17.84.3,0,1.24,1.69,2.09,3.75s3.34,7.51,5.53,12.1,3.74,8.56,3.47,8.84-2.07-2.81-4-6.85Zm39.4,6.66c-.3-2.77-6.18-22.86-8.45-28.89-3-8-3.36-11.13-.49-4.67,4.51,10.18,10.48,31,9.55,33.31-.28.69-.55.8-.61.25Zm3-19.64c-.62-2.4-1.55-5.66-2.07-7.25-1.18-3.6-1.19-5.61,0-3.61,1.27,2.17,4.26,14.14,3.68,14.72-.27.27-1-1.47-1.6-3.86ZM116.3,274.71c-5.9-10.47-7.94-15.47-3.56-8.73,4.92,7.59,10.48,18,9.59,18-.45,0-3.17-4.17-6-9.25Zm51.91-6.51c-3.46-6.86-6.07-12.68-5.81-12.95.61-.61,12.81,23.66,12.4,24.66-.17.41-3.13-4.86-6.59-11.71Zm-10.77-6.38c-4.8-11.11-5.15-12.18-2.72-8.34,2.15,3.4,7.55,16.56,7,17.1-.2.19-2.13-3.75-4.3-8.76Zm71-12.9c-1.08-1.74.15-2.11,1.52-.46.79.95.86,1.52.2,1.52a2.34,2.34,0,0,1-1.72-1.06ZM140,231.23c-1.36-2.06-3.77-5.45-5.37-7.54s-2.66-4.05-2.36-4.35c.52-.52,8.78,10.07,10.81,13.87,1.77,3.31-.61,1.78-3.08-2Zm-11.74-11.1C112,200.88,100,184.16,100,180.8c0-1.86,2.06.4,3.5,3.84S113.67,199.89,123,211c5.58,6.65,12.38,16,11.64,16-.3,0-3.15-3.09-6.33-6.86ZM43.16,210c0-1.37.22-1.93.5-1.25a3.83,3.83,0,0,1,0,2.5C43.38,211.92,43.16,211.36,43.16,210Zm2.92-.41c0-1.06.19-1.65.52-1.31a2,2,0,0,1,.08,1.91c-.32.8-.55.56-.6-.6ZM52.36,206c-.56-2.74-.69-5-.3-5,.76,0,2.35,8.93,1.71,9.57-.21.21-.85-1.85-1.41-4.59Zm-8.22,0a11.12,11.12,0,0,1,.86-3.5c.54-1.26.86-1.44.86-.5a11.05,11.05,0,0,1-.86,3.5C44.46,206.75,44.14,206.93,44.14,206Zm60.52-30.66c-.91-.92-.84-7.11.09-7.68.42-.26.83,1.51.92,3.94.18,4.57.11,4.85-1,3.74Zm-2.47-6.84c0-1.65.19-2.44.46-1.76a5.69,5.69,0,0,1,0,3C102.44,170.69,102.21,170.13,102.19,168.48ZM55.26,433c1.89,0,8.75-7.42,13.66-14.77,4.73-7.09,8-15.23,11-27.07a78.72,78.72,0,0,1,6-15.38c5.19-9.48,8.85-20.6,9.65-29.3.35-3.84,1.35-10.8,2.22-15.47,1.16-6.23,1.62-15.72,1.73-35.5.15-25.05.31-27.43,2.34-32.92,1.19-3.25,2-6.12,1.72-6.36C101.61,254.26,79,272,79,275.47c0,.71,1.59,3,3.53,5.16,3.76,4.09,7.5,10.42,7.43,12.57,0,.71-.81-.13-1.75-1.87A55.7,55.7,0,0,0,81.62,283l-4.87-5.19-3.36,3.46C69.15,285.63,64,295.33,64,299c0,6.29,1.41,9.41,6.9,15.25l5.6,6V308.32c0-8.15.41-12.46,1.32-13.83,1.33-2,1.33-2,.56,0-.43,1.1-.82,7.69-.87,14.65-.07,10.58.2,13,1.64,14.79,1.71,2.1,1.73,2.09,2.12-1.66.35-3.38.41-3.25.6,1.22a19.33,19.33,0,0,0,1.72,7.5c1.4,2.3,1.49,1.46,1.09-10.5-.24-7.15-.08-11.88.34-10.5s.84,8.35.92,15.5c.09,7.56.73,15.09,1.53,18,1.37,4.91,1.4,4.93,1.6,1.5.15-2.57.32-2.88.64-1.18a7.94,7.94,0,0,1-.29,4,8,8,0,0,0-.49,3.53c.14,1.12-.2,1.6-.85,1.2A3.75,3.75,0,0,1,87,349.67c0-3.64-3.73-15.51-6.12-19.47a92.33,92.33,0,0,0-8.82-10.71c-3.62-3.85-7.33-8.56-8.25-10.46-1.63-3.37-1.68-3.4-2.2-1-1.75,8.06-2.56,14.86-3.13,26l-.63,12.5,4.09,6.3c7.65,11.81,12.15,25.71,11.91,36.84l-.15,6.86-.72-7A107.23,107.23,0,0,0,71.18,378c-1.66-6.93-6.63-18.49-9-20.88a32.13,32.13,0,0,1-3-3.88c-1.5-2.29-1.68-2.34-2.36-.61a18.06,18.06,0,0,0-.8,4.94c-.09,3.62-3.2,16-6.63,26.3-3.07,9.26-3,11.25.17,19.2,2.4,5.9,2.62,7.59,2.58,20.44,0,9.19.26,13.22.85,11.75.49-1.24,1.49-2.25,2.22-2.25Zm6.06-15.05c.49-1.62,3.28-15.55,4-19.95.39-2.39.41-2.37.54.3.18,3.54-2.72,17.72-4,19.7-.86,1.31-.92,1.31-.51-.05Zm-3.26-8.35c0-.5.81-5.68,1.87-11.5s2.22-12.33,2.57-14.45.84-3.63,1.11-3.37c.59.59-3.47,25.23-4.63,28.12-.47,1.16-.88,1.7-.92,1.2Zm-4.1-7a99.51,99.51,0,0,0,2.5-10.25c3.1-15.32,4.77-22.45,5.18-22s-2.15,13.62-5.32,27.45c-.91,4-2,7.25-2.46,7.25s-.4-1.09.1-2.41Zm-4-5.24a70.55,70.55,0,0,1,2.13-9.92c1.17-4.36,2.92-11.67,3.88-16.23s2-8.57,2.37-8.92c1.12-1.12.63,2.06-2,12.72-1.39,5.77-3.21,13.41-4,17-1.58,6.84-2.39,8.66-2.39,5.39ZM79.23,383c0-1.92.21-2.71.46-1.75a8.26,8.26,0,0,1,0,3.5C79.44,385.7,79.23,384.91,79.23,383Zm-3.48-15.5c.29-8.8.71-16.2.94-16.46.7-.8.09,23.22-.71,28C75.57,381.46,75.46,376.28,75.75,367.48ZM80.3,374c0-3,.19-4.26.41-2.75a22,22,0,0,1,0,5.5C80.49,378.25,80.3,377,80.3,374Zm-8.49-4.75c-.17-.41-.07-7.72.23-16.25l.54-15.5.21,16.25C73,368.36,72.77,371.58,71.81,369.23Zm-4.23-13.4A122.9,122.9,0,0,1,67,334c.26-5.5.54-3.1,1.07,9C68.76,359.67,68.61,363.75,67.58,355.83ZM62.23,346c0-1.93.21-2.72.46-1.75a8.26,8.26,0,0,1,0,3.5C62.44,348.7,62.23,347.91,62.23,346Zm-.95-8.5c0-2.75.21-3.76.44-2.24a17.74,17.74,0,0,1,0,5C61.47,341.48,61.28,340.24,61.28,337.49ZM89,340A1,1,0,0,1,90,339c.55,0,1,.19,1,.44s-.45.72-1,1.06S89,340.63,89,340Zm.17-6.55a57,57,0,0,0-.75-7.5c-.48-2.14-.4-2.25.56-.75.62,1,1,4.31.76,7.5l-.36,5.75-.21-5ZM62.23,329c0-1.93.21-2.72.46-1.75a8.26,8.26,0,0,1,0,3.5C62.44,331.7,62.23,330.91,62.23,329Zm18.42-17.65c.42-9,1.35-9.39,1.35-.52,0,3.94-.37,7.17-.83,7.17s-.69-3-.52-6.65Zm-9.53-4.94a58.71,58.71,0,0,1,.88-9.91c.42-1.65.53,1.27.24,6.5-.61,11.21-1.29,13.26-1.12,3.41ZM67.22,303a19.21,19.21,0,0,1,.78-5c.63-2,.8-2.07.78-.5a26.49,26.49,0,0,1-.78,5C67.31,305.18,67.23,305.23,67.22,303Zm114.39,93.27c-.33-.34-.57.25-.53,1.31s.29,1.4.61.6a2,2,0,0,0-.08-1.91Zm136.14-3.52c-.26-.69-1-2.83-1.55-4.75s-2.69-8.45-4.65-14.5C308.2,363.14,308,361.69,308,349c0-13-.74-18-4.41-31a41.34,41.34,0,0,1-1.55-8.58c0-4.11-4.14-16.14-7.59-22-3.61-6.17-12.31-15.49-18.75-20.1a113.07,113.07,0,0,1-11.42-10c-5.61-5.64-19.09-14.84-20.17-13.77-.23.23.69,1.65,2.05,3.16a32,32,0,0,1,4.16,6.24,82.82,82.82,0,0,0,6,9.5c3.71,5.13,5.12,6.26,9.76,7.83,12.07,4.09,14,4.9,16.16,6.8l2.27,2L282.16,278a101.38,101.38,0,0,0-10-3.43c-4.21-1.26-8.44-2.62-9.4-3-1.52-.64-1.43,0,.66,4.62a143.53,143.53,0,0,1,5.21,15.23c3.14,11,4.47,12.46,15.23,16.27,5.91,2.09,13.66,7.59,16,11.36,1.13,1.81.5,1.47-2.27-1.21-2.24-2.17-7-5-11.46-6.85-4.19-1.72-9.14-4-11-5.08l-3.39-2,.76,5.3c.42,2.91.91,9.28,1.09,14.14.39,10.84,1.61,13,9.26,16.3,3.11,1.35,7.23,3.22,9.14,4.16,4,2,13,10.26,13,12,0,.66-1.55-.5-3.44-2.56-3.48-3.8-11.56-9-11.56-7.47,0,.46,2,3.85,4.48,7.53s4.14,6.69,3.7,6.69-2.91-3.53-5.51-7.83c-4.06-6.72-5.41-8.12-9.45-9.9-2.6-1.14-4.87-1.92-5.06-1.75-.43.41,7.46,12.24,10.16,15.23,2.37,2.62,4.72,3.09,2.49.5-1.83-2.13-3.08-4.25-2.5-4.25a18.89,18.89,0,0,1,3,3.78,24.85,24.85,0,0,0,8.1,6.64,33.7,33.7,0,0,1,7.77,5.47c2.21,2.51,2.21,2.53.07.73-2-1.65-11.7-6.62-13-6.62-.27,0,1.46,2.3,3.85,5.12,8,9.41,13.77,17.36,13.77,18.87,0,1-.34.89-1.13-.5-2-3.44-13.32-17.19-22.66-27.41-1.29-1.42-3.73-4.5-5.42-6.84S279.38,347,279,347s-.3,3.27.1,7.25c.72,7.28,2.92,14.9,5,17.44.62.75.89,1.6.61,1.88-.88.88-4.64-6.31-6.2-11.83A82.89,82.89,0,0,1,276.45,349c-.62-7.22-2.22-13-3.6-13-.37,0-1,3.94-1.28,8.75s-.84,11.9-1.11,15.75l-.49,7,5.26,3.8c5,3.59,8.1,5.25,23.77,12.67a131.46,131.46,0,0,1,12,6.55c5.78,3.69,7.55,4.27,6.79,2.23Zm-25.5-24.88c-6.74-7.2-12.23-13.6-12.21-14.23s.82,0,1.75,1.31a131.64,131.64,0,0,0,9.18,10c6.22,6.28,14.67,16.11,13.77,16-.13,0-5.75-5.91-12.49-13.1Zm16.62,9.38c-1.24-1.59-1.21-1.63.38-.38a6.23,6.23,0,0,1,1.75,1.75c0,.82-.82.29-2.13-1.37Zm-19.59-6.75c-3.09-3-5.41-5.71-5.14-6s3.13,2.21,6.39,5.49,5.56,6,5.14,6S292.38,373.51,289.28,370.49Zm15.37,1.9c-1-1.4-1.66-2.73-1.43-3s1.42.92,2.63,2.57,1.86,3,1.43,2.95S305.67,373.78,304.65,372.39Zm-4.42-16.15c-2.59-3.74-3.43-5.25-2.92-5.25a19.77,19.77,0,0,1,3.07,4c3,4.47,2.83,5.55-.15,1.25Zm-14.77-8.32c-.36-.59-.45-1.28-.18-1.54s.74.21,1.06,1.06c.68,1.76.1,2.07-.88.48Zm.51-18.49c-1.75-3.06-3-5.73-2.82-5.93s1.84,2.3,3.65,5.56,3.07,5.93,2.81,5.93S287.72,332.48,286,329.43Zm-5.52-1.54c-1.42-2.81-2.42-5.27-2.21-5.48s1.58,2.09,3.05,5.1,2.48,5.48,2.22,5.48-1.64-2.3-3.06-5.1Zm10.94,2.56c-.91-1.39-1.42-2.77-1.13-3.06s1.22.85,2.06,2.53c1.85,3.72,1.34,4-.93.53ZM296,326.9c-.61-1.15-.92-2.27-.69-2.5s.93.7,1.56,2.08c1.37,3,.7,3.35-.87.42Zm-48.57,39.34c-4.59-10.47-11.63-30.29-12.51-35.2-.54-3.05-1.23-6.4-1.53-7.43s-.15-1.62.44-1.26a6.28,6.28,0,0,1,1.52,3.37c1.34,7,9.56,28.27,10.9,28.27s0-4.28-4.43-15a149.56,149.56,0,0,1-5.86-17.74c-1.09-4.52-3.27-12.62-4.85-18s-3.59-13.33-4.48-17.7C225,277.85,224,275,224,278.25c0,1.33,3.75,22.93,5.51,31.74l.5,2.5-1.48-2.64c-1.7-3-6.07-24.13-7.09-34.22-.89-8.76-2.32-6.69-1.91,2.78C220,289,224.37,309.29,230.7,330c3.11,10.17,16.37,40,17.79,40,.29,0-.2-1.69-1.11-3.75ZM177,337.49c-1.93-13.77-5.41-29.13-8.38-37-2.17-5.75-2-4,.83,7.67,2.65,11,6.52,41.13,6.52,50.72,0,8.46,1.38,8.43,2.25-.06.54-5.35.22-11.12-1.22-21.33Zm-3.4,22.25c-.3-2.89-.83-10-1.17-15.75-.74-12.69-1.71-18.72-5.6-34.88-6.75-28-12.12-36.19-29.86-45.48-5.88-3.08-14-5.52-14-4.22a36,36,0,0,0,2,4.8,79.08,79.08,0,0,1,3.59,10.09,27.65,27.65,0,0,0,4.48,9.09c8,9.09,11,19.85,11.8,42.62l.65,17.53,3.15,4.28c3.66,5,13.1,12.63,18.85,15.28,6.3,2.9,6.77,2.65,6.13-3.36ZM236,348.88c-8.7-19.63-15.55-43.75-17.5-61.65-.38-3.43-1.16-6.54-1.74-6.9-1.39-.85-.2,15.36,1.83,25.07A203.89,203.89,0,0,0,228.66,338c3.42,8.37,11.36,23.31,12,22.64.19-.19-1.93-5.48-4.7-11.75Zm-212.39.48c1.36-3.09,2.32-5.79,2.12-6-.47-.47-4.29,6.43-5.17,9.37C19.24,357,21.12,355,23.6,349.36Zm226-3c-.85-3.23-4-13.74-7.11-23.36s-6.94-22.23-8.6-28c-4.16-14.44-4-14-5.06-14-.52,0-.74.78-.49,1.75s.94,3.77,1.52,6.25c5.73,24.23,16.57,59.3,19.4,62.77,1.81,2.22,1.91.62.34-5.41Zm2.88-2.86c-1.49-9.16-4.62-21.26-6.93-26.77-.87-2.07-4.07-11.45-7.13-20.84s-5.74-16.89-6-16.66c-.74.74,3.52,16.63,9.73,36.27,7.21,22.84,8.39,26.7,9.84,32.35,1.7,6.6,1.92,4.59.46-4.35Zm-72.8-3.75c-.28-.69-.51-.13-.51,1.25s.23,1.93.51,1.25A4,4,0,0,0,179.66,339.74Zm-58.24-2.5c-1-1.52-3.28-5.35-5.07-8.52-5.11-9-6.07-10.08-10.35-11.34l-4-1.18,0,4.14c0,5.49,4.68,13.48,8.88,15.25,1.71.71,3.1,1,3.1.55s-2-4.1-4.48-8.2S105,320,105,319.49c0-1.05,6.38,8.86,9,13.91,1.38,2.68,6.32,6.57,8.36,6.58.47,0,0-1.23-.94-2.74Zm99.85-10.34c-2.06-5.73-3.9-9.59-4.1-8.58-.54,2.81,6.34,20.48,7.53,19.3.17-.17-1.38-5-3.43-10.72Zm-117.61,2.16c-2.23-3.92-2.44-4.05-3-1.89-1.19,4.43-.76,5.67,2.1,6a16.4,16.4,0,0,0,3,.21c.15-.07-.8-2-2.11-4.34ZM16.8,324.49c0-2.92,0-2.94-.8-.5a21.72,21.72,0,0,0-.8,5.5c0,2.91,0,2.93.8.5A21.78,21.78,0,0,0,16.8,324.49Zm3.65-22.33C22.65,283.28,23,281,24.1,281c.53,0,.63,2.39.25,5.65-.49,4.16-.36,5.47.49,4.94.64-.39,1.16-2.49,1.16-4.65s.48-3.94,1.12-3.94.91,1,.63,2.53-.08,2.41.63,2.18,1.85-4.61,2.75-9.79c1.31-7.55,1.66-8.53,1.74-4.92.11,4.65-3.42,29.45-4.42,31.08-.31.5-.19.92.26.92s1.69-3.94,2.73-8.75A145.23,145.23,0,0,1,35.27,282c2.84-8.06,5.24-28.89,4.78-41.5-.18-5-1.58-1-3.47,10-2.36,13.62-2.33,13.52-2.47,8.92a94.26,94.26,0,0,1,1.48-13.33c.87-5.08,1.32-9.51,1-9.84s-.59.36-.59,1.52a3.57,3.57,0,0,1-.88,2.65c-.48.3-1.43,4.16-2.12,8.58s-1.69,8.31-2.23,8.64-.76-.18-.45-1.27A70.06,70.06,0,0,0,31.39,248l.53-6.5L30,247a37.87,37.87,0,0,0-2,7.81,12,12,0,0,1-1.18,4.42,46.32,46.32,0,0,0-2.41,9.18c-1.59,8.73-1.84,5-.43-6.44a101.69,101.69,0,0,1,7.67-28.8c3.61-8.84,4.09-13.58.62-6.1C24,245,19.57,267.26,18.53,296c-.27,7.42-.72,16.2-1,19.5-.94,11.1,1.24,1.16,2.92-13.33Zm99.13,12.58c-1.39-2.34-5.73-8.92-9.65-14.61-5.36-7.8-7.4-10.07-8.27-9.21s-.86,1.33,0,1.86c.63.39,4.39,5.65,8.35,11.7s7.91,11.79,8.76,12.75c2.87,3.27,3.36,1.78.81-2.5Zm5-.5c-1.08-1.08-1.65.43-.89,2.35s.76,1.81,1.11.07a3.38,3.38,0,0,0-.22-2.42Zm-9.66.61c-.63-1.18-3.8-6.18-7-11.11-4.32-6.59-5.89-8.35-5.89-6.61,0,3.55,7.84,17.85,10.34,18.86,3.37,1.36,3.82,1.16,2.59-1.14Zm-5.93.84c0-.16-1.58-3.2-3.51-6.75L102,302.49l.26,5.95c.23,5.41.49,6,2.76,6.65,3,.85,4,1,4,.6Zm136.94-11.2c-1.23-4.13-2.57-7.51-3-7.51s.16,2.82,1.27,6.25,2.26,7.38,2.56,8.75.73,1.94,1,1.26-.59-4.62-1.81-8.75ZM23,308.48c0-.82-.18-1.5-.39-1.5s-.66.68-1,1.5S21.5,310,22,310,23,309.31,23,308.48ZM17.46,290c.75-15.16,1.69-24.67,3.16-31.85,1.61-7.86,1.24-10.87-.55-4.49-1.13,4-3.47,17.63-4.79,27.84a125.51,125.51,0,0,0-.37,16.5c.4,10.2.43,10.34,1.3,5,.48-3,1.05-8.87,1.25-13Zm-7.77,9.25c-.25-1-.46-.17-.46,1.75s.21,2.72.46,1.75A8.26,8.26,0,0,0,9.69,299.23ZM25,296.68c0-1-.43-1.54-1-1.2s-1,1.83-1,3.31c0,2.11.23,2.37,1,1.19A7.33,7.33,0,0,0,25,296.68Zm4-4c0-.45-.43-.54-1-.2a3,3,0,0,0-1,2.31c0,1.46.15,1.49,1,.19A6.22,6.22,0,0,0,29,292.68Zm137.62.58c-.33-.34-.57.25-.52,1.31s.28,1.4.6.6a2,2,0,0,0-.08-1.91ZM39.08,281.48A106.28,106.28,0,0,0,40.94,271c0-2.59-3,6.31-3.49,10.35a56.41,56.41,0,0,1-1.42,7.5,24.5,24.5,0,0,0-1,5.15c.11,2.8,2.11-3.45,4-12.5Zm-28.73,10c.31-.81.23-1.68-.19-1.93s-.81.4-.89,1.46c-.17,2.3.3,2.5,1.08.47Zm34-13.27c2.35-13,2.86-19,1.69-19.75-.63-.39-1,.83-1,3.18,0,3.83-2.18,18.3-3.54,23.7-.48,1.89-.37,2.68.29,2.27s1.73-4.57,2.6-9.4ZM79,270.72c0-.67-10.23-7.74-11.26-7.74-.23,0-.69,2.14-1,4.75s-.91,6.44-1.27,8.5c-.61,3.45-.47,3.76,1.72,3.86,2.35.11,2.35.12-.28,1.16a4.59,4.59,0,0,0-3.08,3.93c-.37,2.53.5,1.88,7.36-5.41,4.28-4.56,7.8-8.63,7.83-9ZM69.5,276c-1-1.1-1.35-2-.78-2,1.26,0,3.75,2.86,3.08,3.54-.26.26-1.3-.43-2.3-1.53Zm1.5-5c-.79-.49-1.22-1.11-.94-1.39s1.15-.1,1.94.39,1.22,1.12.94,1.4S71.79,271.47,71,271Zm130.22,1.46A58.16,58.16,0,0,1,199.59,260c.22-4.24,0-4.65-4.26-7.81-2.47-1.84-4.75-3.08-5.07-2.76s0,5,.6,10.34c1.22,9.94,4.39,18.59,9.36,25.57l2.27,3.18.3-4c.16-2.2-.54-7.62-1.57-12ZM195,259c-1.37-1.07-2-2-1.4-2s1.91.87,2.9,2C198.77,261.5,198.22,261.5,195,259ZM15,271.68c.68-4.84,1-9,.72-9.32s-1,2.79-1.64,6.81C12,282.38,11.89,283.58,12.85,282c.5-.82,1.46-5.46,2.13-10.3Zm189.07-12.4a15,15,0,0,1-.52-6.62c.44-2.39.23-3.55-.71-3.91s-1.3,1.69-1.14,10.86c.23,13.05,1.34,16.55,2.66,8.39.6-3.77.51-6.51-.29-8.72ZM42.33,264c.32-2.47.8-8.32,1.08-13l.51-8.5L42.5,249c-1.26,5.8-2.12,21-1.12,19.92a22.73,22.73,0,0,0,.95-4.92Zm38.55,2.37A26.46,26.46,0,0,0,77,263l-2.69-1.91.44,2.28c.45,2.35,5.08,5.88,6.54,5,.45-.28.28-1.17-.38-2Zm3.5-1.19c.28-.45-1.73-3-4.46-5.65s-4.81-5-4.61-5.18S78,256.24,80.93,259c4.37,4.19,5.51,4.83,6.75,3.81s1.26-1.43.15-2.33A67.72,67.72,0,0,1,83,255.44c-2.78-3.14-2.42-2.93,1.75,1l5.25,5,2.57-2.57c2.45-2.44,2.52-2.84,1.56-8.05a62,62,0,0,0-4.3-12.4c-4.25-8.94-4.39-9.4-1.93-6.42a46.38,46.38,0,0,1,4.7,9.17c1.58,4,3.12,6.49,3.83,6.22s2.06.57,3.12,1.83l1.94,2.28-2.08-1.75c-2.93-2.47-3.42-2.22-3.42,1.75,0,1.93.36,3.5.81,3.5a37.51,37.51,0,0,0,6.08-2.54c2.91-1.4,6.09-2.28,7.11-2,3.89,1.24,2.73-1.54-3.4-8.13-9.89-10.64-23.86-18.78-43-25-1.65-.54-1.79-.22-1.18,2.79a62.65,62.65,0,0,0,4,10.39c4.26,8.9,7.49,19.53,7.57,24.86,0,3.66.55,4.51,4.25,7.31,4.55,3.45,5.31,3.76,6.08,2.51ZM82.49,247c-2.71-2.75-4.7-5-4.43-5s2.72,2.25,5.43,5,4.7,5,4.42,5A42.66,42.66,0,0,1,82.49,247Zm-.1-7.57c-2.7-2.51-4-4.13-2.9-3.58,2,1,9.35,8.15,8.35,8.15C87.54,244,85.09,241.93,82.39,239.41ZM98,241.49c-1.29-1.37-2.12-2.72-1.85-3s1.78.85,3.36,2.5,2.41,3,1.85,3S99.28,242.86,98,241.49Zm2.6-1.66c-2.37-3.38-2-4.55.51-1.43,1.16,1.48,1.89,2.92,1.6,3.2s-1.23-.52-2.11-1.77ZM80,229.48c-.7-.83-.8-1.5-.25-1.5a4,4,0,0,1,2.25,1.5c.69.84.8,1.5.24,1.5A4,4,0,0,1,80,229.48Zm-8.11,25.75c-.54-7.25-4.41-23.14-5.38-22.06a34.35,34.35,0,0,0,.61,6.32,90.4,90.4,0,0,1,.72,12.76c-.14,5.84.16,7.1,2.17,9.25,1.29,1.37,2.38,2.49,2.43,2.49s-.2-3.94-.55-8.75Zm78.45,5.83c-1-1.61-5.67-7.72-10.34-13.58s-11.79-14.77-15.8-19.82-11.85-15.93-17.4-24.18c-12.74-18.93-13-19.3-18.43-23.14-6.18-4.39-12.79-5.89-18-4.09a24.82,24.82,0,0,0-14,12.47L53.77,194l4.11,8.41C60.14,207,62,211.53,62,212.44c0,1.74,4.14,3.83,10,5,1.92.4,8.59,3.49,14.81,6.86,11.45,6.22,19.71,13,26.12,21.4,2.68,3.51,3.82,4.25,6.6,4.25,4.88,0,19,5.4,26,9.93,3.3,2.15,6.15,3.94,6.34,4s-.49-1.24-1.5-2.85Zm48.58-12.45c-.64-2.55-1.44-4.63-1.79-4.63s-3-1.83-6-4.06c-5.82-4.42-7.29-4.67-4.19-.72,1.09,1.38,1.75,2.74,1.48,3-1.19,1.19,2,5.52,6.3,8.5,2.55,1.78,4.8,3.07,5,2.87s-.17-2.44-.81-5Zm-5.74-2.77c-2.37-1.68-4.08-3.29-3.79-3.58.49-.49,8.61,5.45,8.61,6.31C198,249.22,197.76,249.09,193.17,245.84Zm52.26,5.86c-.45-1.19-4.44-2.19-4.44-1.12,0,.36,3,1.84,4.72,2.34.12,0,0-.52-.28-1.22ZM239,249.1c0-1.27-4.15-3.81-10-6.1-6.29-2.48-6.58-1.75-.45,1.13,2.53,1.19,5.11,3,5.74,4,1.17,1.88,4.68,2.6,4.68,1Zm-31-5.24c0-.48-1.42-.88-3.16-.88-3.09,0-3.11.05-1.35,2,1.38,1.52,2.13,1.73,3.16.88a3.63,3.63,0,0,0,1.35-2Zm-10.09-2.2a80.68,80.68,0,0,0-7.41-6.25,43.73,43.73,0,0,1-5-4.1c-3.83-4.48-26.53-4.39-29.7.13-1.19,1.7-.2,1.69,4.12,0,3.07-1.23,6.09-1.55,11.38-1.2,8.12.54,13.61,3,23.33,10.3,7,5.32,7.85,5.6,3.28,1.16ZM237.49,243a2.71,2.71,0,0,0-2.12-1c-.82,0-1.22.45-.88,1a2.71,2.71,0,0,0,2.12,1C237.43,244,237.83,243.53,237.49,243ZM34.87,234c0-.82-.64.08-1.38,2-1.76,4.57-1.73,6.37,0,2.5a14.3,14.3,0,0,0,1.34-4.5Zm175.88,3.5c.41-4.77-.66-5.47-8.31-5.4-3.82,0-8.53.06-10.45,0-3.06,0-3.25.11-1.5,1.05a32.59,32.59,0,0,1,5.13,4c2,1.91,3.95,2.84,5.43,2.62,2.08-.3,1.91-.6-1.9-3.23-2.31-1.6-4-3.12-3.73-3.37.66-.67,8.57,5.72,8.57,6.91,0,.54,1.46.84,3.25.67,2.8-.27,3.28-.73,3.51-3.32ZM203,235.89c-1.91-1.6-3-2.9-2.5-2.9,1.34,0,7.07,4.71,6.46,5.31-.28.27-2.06-.82-4-2.41Zm27,4.69c0-.22-1.35-.87-3-1.45-3.48-1.21-4.1-.52-.75.82,2.53,1,3.75,1.23,3.75.63Zm9.47-.64c-.88-1.43-12.22-6.61-16.34-7.47-6.54-1.35-2.75,1.64,5.82,4.62a82.49,82.49,0,0,1,8.88,3.4c.94.94,2.28.49,1.64-.55ZM26.9,234c0-1-.35-.81-.91.5-1.18,2.75-1.18,4.33,0,2.5A6.17,6.17,0,0,0,26.9,234Zm12.41-4.5.6-3-1.42,3c-1.59,3.38-2.11,7.2-.61,4.5A19.11,19.11,0,0,0,39.31,229.48ZM14,225.73c4.32-9.63,4.4-9.85,3.39-9.67-2.5.46-4.63-.39-8.6-3.42l-4.39-3.35.85,6.6c1,8,3.51,17.09,4.66,17.09.46,0,2.3-3.26,4.09-7.25Zm188.89,3.41,5.37-.66-5.54-5.76c-10.21-10.61-21.74-13.51-32.46-8.17-4.72,2.36-11.24,8.35-11.24,10.34,0,.45,3,.65,6.75.42,5.07-.3,9,.22,15.75,2.07,9.39,2.59,12.44,2.84,21.37,1.76Zm58.53-3.22c1.07-6.74-1.84-28.91-4.48-34-1.16-2.25-2-6.45-2.58-13.41a29.24,29.24,0,0,0-3.5-11.5c-3.47-6.38-11.49-15-14-15-.94,0-3.05-1.33-4.69-3-2.7-2.7-11.57-7-14.41-7-.63,0,1.52,1.61,4.79,3.57a50.47,50.47,0,0,1,7.44,5.16c.88.93-.16.62-2.5-.75-9.52-5.58-16.24-8.81-19.5-9.38-3.09-.55-2.87-.33,1.8,1.86,4.94,2.3,11.29,6.54,9.82,6.54a22,22,0,0,1-4.39-2.33c-3.84-2.4-10.28-5-10.91-4.32-.2.2,1.45,1.56,3.66,3,5.08,3.36,5.31,4.46.27,1.31a50.66,50.66,0,0,0-8.25-3.94c-12.22-4.32-14.85-4.41-5.25-.18a52.38,52.38,0,0,1,9.44,5.49c3,2.43,4.63,3,9,3a48.45,48.45,0,0,1,10.31,1.34c7.92,2.12,23.44,10,22.17,11.31-.3.3-1.83-.35-3.38-1.46-3.88-2.76-12.91-6.87-18-8.18-5.36-1.38-9.17-1.5-17.29-.54-6.42.76-6.47.79-4.05,2.39,4.57,3,16.53,13.28,20.07,17.2,2.47,2.75,6,4.93,11.86,7.37,10.69,4.45,12.57,5.72,15.7,10.67,3.33,5.29,2.38,6.29-1,1.11a23.71,23.71,0,0,0-7.6-6.67c-5.38-2.93-10.94-4.83-10.91-3.74,0,.7,5.5,7.95,16.79,22.21,3.48,4.38,5.95,8,5.5,7.92s-3.71-3.72-7.25-8.19-6.6-7.63-6.81-7c-.43,1.28,2.25,6.91,4.53,9.51.85,1,1.28,2,1,2.34-.89.89-5.57-6.65-7.83-12.6-2.47-6.49-9.58-16.54-14.35-20.29C219.16,173,219,173,219,175c0,5.64,3.4,16.35,6.74,21.25a39.42,39.42,0,0,0,4.64,5.94c.59.38.78,1,.43,1.33-1.17,1.16-8.63-10-11.11-16.57a67.91,67.91,0,0,1-3.18-11.83c-.64-4.61-1.4-6-5.91-10.47S193,152,190.09,152s-.47,2.3,5.65,5.38c6.65,3.35,19.25,12,19.25,13.24,0,.35-.56.2-1.25-.33l-5.25-4C203,162,190.56,155.79,190.15,157c-.6,1.77.71,3.95,2.38,3.95s10.81,5,10.22,5.58c-.18.18-2.69-.84-5.57-2.26s-5.43-2.41-5.66-2.18c-1.6,1.6,9.31,21.12,16.43,29.36l3.46,4-3.68-3.41c-4-3.69-12.24-15.23-15.52-21.66-2.05-4-5.32-14.23-5.74-17.93-.12-1.1-.28-2.27-.35-2.61-.14-.68-11.29-4.92-12.73-4.84-.5,0,2.18,1.64,6,3.57s6.62,3.75,6.32,4.05-3.15-.82-6.35-2.46c-5.93-3.05-15.46-6.4-16.17-5.69-1.14,1.14,1.12,3.38,4,4,3.81.81,17.82,7.06,17.82,7.95,0,.32-1.42-.15-3.16-1-4.3-2.22-13.73-5.42-16-5.42-3.56,0-1.78,1.86,3.41,3.56,6.72,2.2,16.38,7,17.37,8.67.59,1,.43,1-.68.15-1.88-1.48-14.65-7-18.22-7.91-2.67-.67-2.74-.6-1.65,1.8.74,1.62,1.74,2.34,2.85,2,1.77-.46,14,4,17.55,6.36,3,2,1.44,1.63-6.11-1.54S168,158.59,168,159.56s4.21,6.63,10.89,14.42c3.77,4.39,4.86,6.05,2.65,4-6.61-6.09-10.31-10-12.68-13.49-2-2.9-6.5-5.18-7.78-3.92-.8.8,2.45,5.76,6.42,9.83,2.2,2.25,8.44,6.56,13.86,9.58,6.93,3.87,11.53,7.3,15.5,11.56a73.8,73.8,0,0,0,8.64,8.08c4.15,2.8,13.83,6.14,21,7.25,12.71,2,26.15,10.47,31.12,19.7,1,1.88,2.12,3.41,2.48,3.41s.94-1.82,1.29-4.06ZM248.5,196.36c-.94-1.44-1.22-2.32-.62-1.94,1.16.71,3.49,4.56,2.76,4.56a9.57,9.57,0,0,1-2.14-2.62Zm-18.23-1.63c-1.5-1.93-2.44-3.75-2-3.75a8.54,8.54,0,0,1,2.08,2.5C232.09,196.06,232,197,230.27,194.73ZM240.59,191c-2-2.75-3.26-5-2.85-5,.77,0,7.61,10,6.85,10a33.38,33.38,0,0,1-4-5Zm-7.6,3.25c0-.41-1.87-3.22-4.15-6.25s-3.12-4.6-1.88-3.5c3.15,2.79,8.35,10.5,7.08,10.5-.58,0-1-.33-1-.75Zm-23.25-11.31c-2.06-1.09-3.75-2.21-3.75-2.48s1.8.42,4,1.54,4,2.26,4,2.53C214,185.16,214,185.16,209.74,182.92Zm-6-9.62c-3.17-2-5.57-3.82-5.33-4.05.48-.49,11.59,6.43,11.59,7.22s0,.75-6.26-3.17Zm7.67-.57-1.91-2.25,2.25,1.91c2.12,1.79,2.71,2.59,1.91,2.59A10.82,10.82,0,0,1,211.4,172.73Zm16-4.56a77.78,77.78,0,0,0-13-9.93c-3.24-1.76-5.31-3.21-4.6-3.23,3.81-.08,16.15,8.76,21.71,15.55a32.48,32.48,0,0,1,3.31,4.38c-.18,0-3.51-3.07-7.42-6.77Zm16.15,2-3.84-4.73,4.35,4.22c2.39,2.32,4.11,4.45,3.83,4.73S245.65,172.81,243.54,170.21Zm-11.32-3.88c-2.9-2.94-4.9-5.35-4.46-5.35,1.05,0,10.75,9.84,10.17,10.33-.24.2-2.81-2-5.71-5Zm-26,3.43c-1.24-.59-2.25-1.48-2.25-2,0-1,3.6.72,4.51,2.19.73,1.18.64,1.17-2.26-.23Zm-25.59-2.22a39.16,39.16,0,0,1-6.5-3.14c-.36-.4.24-.38,1.34,0l7,2.75a46.72,46.72,0,0,1,5.42,2.37c1,1-1.84.19-7.26-2ZM19,214.54a23.78,23.78,0,0,0-2-3.77,45,45,0,0,1-5.49-16.36c-.36-2.71-.91-5.94-1.21-7.17S10,185,10.26,185s1.49,4.38,2.73,9.75c2.2,9.6,5.25,17.25,6.86,17.25a5.38,5.38,0,0,0,2.42-1.76c1.32-1.46,1.41-2.57.53-6.75a25,25,0,0,0-2.94-7.65,9.68,9.68,0,0,1-1.84-4c0-.77.52-.49,1.18.66a20,20,0,0,0,2.47,3.32,4.41,4.41,0,0,1,1.32,2.5,31.56,31.56,0,0,0,1,4.83c.85,3.05,1.37,3.56,3.15,3.09,2-.51,7.73-5.94,7.8-7.33,0-.33-1.19-1.15-2.69-1.83C27.5,194.89,16.85,185.61,15,182c-2.15-4.18-8.74-12-10.09-12-.55,0-.73,2-.43,4.75s.73,9.7,1,15.75S6,202.16,6.26,203s.21,1.16,0,.75C5.44,202.31,4,203,4,204.8c0,2.08,4.13,6.23,8.5,8.53,2.84,1.49,6.5,2.18,6.5,1.21ZM10.1,201.89a17.39,17.39,0,0,1-1-4.3c0-.61.71.66,1.5,2.81s1.26,4.09,1,4.3S10.72,203.65,10.1,201.89Zm7.07-3.09c-.59-2.34-.91-4.42-.7-4.63s.9,1.5,1.52,3.82.93,4.39.7,4.63S17.76,201.14,17.17,198.8Zm-2.61-8.39c-.37-1.46-.48-2.85-.24-3.09s.73.77,1.1,2.24.47,2.85.24,3.09-.73-.77-1.1-2.24Zm23.83,9.65c-1-1-6.4,5.46-6.4,7.53,0,4.23,2.46,3.17,4.66-2C37.84,202.77,38.63,200.29,38.39,200.06Zm60.73-42.32c.61-1.52,1.7-2.75,2.41-2.75s2.29-1.61,3.5-3.57c2.82-4.57,2.38-11.66-1.22-19.52-3.21-7-6.31-9-19.07-12.23L75,117.2v2.14c.07,8.75,7.89,28.14,16.68,41.38L96.49,168l.76-3.73a45.19,45.19,0,0,1,1.87-6.48Zm9.25,3.69c.37-1,.19-1.3-.5-.87-2.21,1.36,2.88-9.91,5.22-11.57a62.3,62.3,0,0,0,4.55-6.2c2.12-3.13,8.09-10.56,13.26-16.5s7.66-9.23,5.5-7.3c-6.51,5.82-19.91,19.31-22.24,22.4-1.21,1.59-2.45,2.65-2.75,2.35s-.92-3.23-1.39-6.51c-1-7.18-3-11.35-6.57-13.68C100.15,121.39,87.92,109,89.09,109c.47,0,3.2,2.46,6.06,5.48s5.37,5.32,5.58,5.11-.28-2-1.08-3.87c-1.12-2.68-2.73-4.09-7-6.1-3-1.45-6.56-2.62-7.81-2.62-2,0-1.71.57,2.63,5,2.69,2.74,4.66,5.22,4.37,5.51s-3.14-2.21-6.33-5.55c-5.37-5.63-6.26-6.16-11.91-7.13-7.74-1.32-14.61-5-18.54-9.87s-3.9-5.51.18-1.7c7.11,6.66,12.55,9,24.07,10.18l5.83.62-3.33-4.64a47.11,47.11,0,0,0-8-8.26c-5.09-3.93-6.52-6.46-2-3.62,4.06,2.57,7.94,6.38,12.08,11.83a27.76,27.76,0,0,0,8.4,7.26L97,109l-1.2-2.76c-3.33-7.59-9.6-15.83-13.71-18L77.78,86,83,91.71c5.8,6.36,10.53,13,9.75,13.82-.27.27-1.62-1.2-3-3.27a103,103,0,0,0-8.39-10.08C75.48,85.86,71.91,84.08,65,84c-2.33,0-2.22.23,2,4.72,2.46,2.62,6,6.52,8,8.69,3.28,3.68,3.31,3.78.49,1.52a112.74,112.74,0,0,1-9-9.07c-3.82-4.24-7-6.89-8.86-7.27C54.79,82,43.08,74.13,43,72.78c0-.38,2.56,1.07,5.72,3.23a42.15,42.15,0,0,0,22.49,7,26.37,26.37,0,0,1,8.41,1.5c3.37,1.41,3.51,1.4,2.22-.2C79.79,81.7,77.05,79,76.52,79c-.26,0-.19.72.15,1.6s-2.27-1.28-5.79-4.81a89.44,89.44,0,0,0-8.89-8c-1.89-1.23-2.09-1.64-.82-1.68.93,0,4.64,2.86,8.25,6.42s6.57,6,6.57,5.36c0-1.59-9.93-10.57-13.64-12.34a26.52,26.52,0,0,0-9-1.52,45.16,45.16,0,0,1-19.1-4c-6.41-3-5.1-3.19,2.33-.39a32.47,32.47,0,0,0,14,2.33l7.47-.15-4.9-3.3a61.39,61.39,0,0,0-11.49-5.6c-5.72-2-7-2.13-10-1.07a24.22,24.22,0,0,1-7.31,1.14c-4.36-.08-3.87-.43,2-1.42,3.36-.57,3.69-.83,2.16-1.69-1.06-.59-5.42-.79-10.47-.48-5.94.36-7.91.23-6.29-.41,1.31-.52,5.36-1,9-1.07l6.63-.13L24,46.15c-3.21-1.43-3.31-1.59-1.17-1.94,1.34-.22,3.9.65,6,2.07A25.73,25.73,0,0,0,36,49.48,86.53,86.53,0,0,1,46.19,53c3.74,1.52,6.8,2.43,6.8,2,0-.85-4.33-5.21-8-8-1.38-1.06-2-1.94-1.4-2,2.31-.07,8,4.69,10.9,9.1a30,30,0,0,0,7.38,7.4,95.39,95.39,0,0,1,10.38,8.37l6,5.55L77.56,72C76.26,65.42,70.24,54.62,65,49.52l-5.06-5-12.24-.91c-19.63-1.46-24.57-1.28-31.81,1.17A37.48,37.48,0,0,0,6,49.87L2.54,52.72l5-.1c7.31-.16,16.57,3.69,23,9.55C34.8,66.1,37,69.47,42,79.59c5.7,11.52,10.15,18.29,16.89,25.72,3.78,4.16,12.36,8.17,23.6,11,13.13,3.32,14.51,3.9,18.68,7.84,2.56,2.41,4.14,5.27,5.67,10.19,3,9.68,2.76,14.5-1,21.12-1.69,3-2.79,5.92-2.44,6.48,1,1.58,4.23,1.23,4.9-.52Zm-29.8-51c-2.15-1.87-3.5-3.39-3-3.38,1.31,0,8,5.73,7.41,6.3C82.71,113.57,80.73,112.26,78.57,110.39Zm-8.18-2.65-1.9-2.25,2.25,1.9A11.09,11.09,0,0,1,73,109.64C73,110.44,72.18,109.85,70.39,107.74ZM60,89.43c-2.45-2.51-3.73-4.28-2.83-3.94C58.53,86,65.67,94,64.74,94A49.91,49.91,0,0,1,60,89.43Zm5-14.38a73.73,73.73,0,0,0-7.5-6.84C55.84,67,55.05,66,55.73,66c1.44,0,15,12.56,14.26,13.24-.28.25-2.53-1.65-5-4.21Zm-9.4-3.13C53.45,70.3,52.32,69,53.09,69s3,1.37,4.86,3c4.45,3.8,2.74,3.72-2.36-.11Zm-7-1.47c-1.07-.8-1.46-1.46-.87-1.46A4,4,0,0,1,50,70.49c1.56,1.87,1.07,1.86-1.44,0ZM72,67.15a60.17,60.17,0,0,0-5-4.5c-1.92-1.55-2.59-2.38-1.49-1.83,2.7,1.34,10.26,8.09,9,8A5.19,5.19,0,0,1,72,67.15Zm-5.86-8.57A35.58,35.58,0,0,0,59.92,55c-1.61-.67-2.93-1.6-2.93-2.07,0-.94,9.64,4.44,12,6.68s.77,1.67-2.84-1Zm-6.69-8.15c-1.86-1.49-1.85-1.51.31-.46C61,50.56,62,51.26,62,51.52c0,.77-.52.54-2.56-1.09ZM165,159.18c0-1.83-2.7-4.26-5.69-5.11s-3.16-.85-2.08,1.52a7.16,7.16,0,0,0,4.19,3.32l3.33,1c.14,0,.25-.28.25-.72ZM118.36,150c2.27-1,4.8-2.09,5.63-2.37,1.15-.39,1.08-.53-.29-.59-4.2-.19-13.68,6.36-13.66,9.42,0,.55.95-.26,2.1-1.8a18.66,18.66,0,0,1,6.22-4.66Zm43.41,1.8c-.41-1.23-8-3.8-11.25-3.83-2,0-2,0,0,1.34C154.84,152.31,162.5,154,161.77,151.83Zm44-1.08c-.61-1.83-14.63-8.56-19.25-9.23l-4-.58,4,1.82c2.2,1,5.93,2.64,8.29,3.65s4.07,2.05,3.81,2.32-4.23-1.1-8.8-3c-8.06-3.42-19.07-6.05-15.8-3.78a6.63,6.63,0,0,0,3,1.1c.82,0,5.77,2.06,11,4.5,6.6,3.09,10.82,4.45,13.83,4.46s4.21-.36,3.92-1.22ZM161,148.16c0-1.26-13.49-3.89-15.63-3-1.33.52-.71.78,2.13.88a28.37,28.37,0,0,1,7.5,1.5c4.15,1.6,6,1.8,6,.67Zm-1.3-4.8c-.28-.28-2-.35-3.85-.15l-3.35.36,3.5,1c3.1.92,5.17.22,3.7-1.25Zm41.85-3.6c-.93-.53-2-.66-2.35-.31-.88.88,2,2.55,3.13,1.83.51-.31.16-1-.78-1.52ZM36.19,127.81c7.55-2.26,10.2-9.52,5.18-14.18-2.22-2-3.11-2.29-5.75-1.54-1.71.5-3.25.9-3.41.9A44.48,44.48,0,0,0,28,117c-2.71,2.76-3.94,4.9-3.91,6.75l.06,2.71L25.79,124c3.59-5.21,5.82-7,9.2-7.58l3.5-.56L34,118.19c-4.81,2.46-7.74,6.45-6.71,9.14.75,2,3.49,2.1,8.9.48ZM196,126.45c14.59-2.35,25.68-8.13,37.45-19.51,7-6.77,11.15-9.87,17.5-13a61.05,61.05,0,0,0,13.44-9.13,94.91,94.91,0,0,1,9.52-8c5.12-3.55,18.58-9,26.57-10.82,4.91-1.1,5.32-1.38,3.68-2.52-2.26-1.59-12.16-5.4-14-5.4-1.45,0-14.55-5-27.64-10.59-13.83-5.89-19.25-6.91-36.5-6.88-19.55,0-27.66,1.77-41.66,9-11,5.62-16.19,9.25-16.28,11.3-.06,1.42-3,5.89-7.31,11-4.93,5.89-12.75,24-12.75,29.59,0,1.82.32,1.72,3.25-1,1.79-1.66,7.38-6.07,12.43-9.79,10.12-7.47,13.17-11.24,5.75-7.09A43.24,43.24,0,0,0,162.75,88a8.26,8.26,0,0,1-2.87,2A14.56,14.56,0,0,0,156,92.61c-1.72,1.44-3.35,2.4-3.62,2.13-.77-.78,11.77-10.31,17.51-13.31,4.47-2.34,7.07-4.88,7.07-6.91,0-.33-1.23.26-2.75,1.3-6.48,4.47-19.51,12.24-19.89,11.86s10.82-8.13,18.14-12.29c2.75-1.56,8.4-6.22,12.54-10.37,10.18-10.17,15.28-13.91,25.46-18.67,8.27-3.87,8.6-2.61.39,1.48a106.13,106.13,0,0,0-12.7,7.52c-7.62,5.59-17.79,17.08-20.65,23.34-3,6.57-3.09,7.08-.79,5.1,6.39-5.5,35-17.89,36.29-15.74.33.52,2.36-.66,4.53-2.62,8.94-8.1,23.55-15.54,30.21-15.38,1.87.05,1,.52-2.66,1.52A57.59,57.59,0,0,0,222.83,64l-5.34,4.84,6.5-1.51C237.7,64.16,243.6,63,246.49,63c1.65,0,5-1.21,7.5-2.66,5.58-3.26,14.74-5.6,16.93-4.32,1.16.67.58.92-2.21,1-3.85,0-10,2.11-11,3.7-.31.51,2.94.55,7.63.11,8.36-.8,28.39-.05,29.1,1.09.21.35-6.23.5-14.31.34s-15.81.12-17.16.64l-2.46.94,3,1.2c1.65.65,7.24,1.38,12.43,1.61s9.64.63,9.91.9-4,.49-9.42.49c-8.36,0-10.73-.39-15.09-2.42-4.72-2.2-5.8-2.33-12.5-1.51-8.68,1.06-20.64,3.83-21.33,4.94-.27.43,2.55,2,6.26,3.53,5.85,2.38,8.63,2.83,20.92,3.37,7.8.34,14.55,1,15,1.48S264,78,256,77.73c-13.42-.45-15.24-.75-24.46-4l-10-3.55-8,2.52C199.12,77.25,177.34,89,183.34,89c2.87,0,3.11.06,5.29,1.5,1.18.77,5.9,2.42,10.5,3.67,7.26,2,10.53,2.25,24.71,2.12,9-.08,16.16,0,15.94.26-1,1-23,2.1-29.79,1.48-8.73-.8-11,0-21.15,7.71-7.13,5.4-11.85,8.53-11.85,7.85s17.07-13.67,19.61-14.82c1.32-.6,2.39-1.39,2.39-1.74s-2.18-1.35-4.84-2.2c-5.82-1.86-5.65-1.93-21.41,8.84-5.91,4-10.73,7-10.71,6.59,0-.89,20.31-15.33,23.38-16.67,1.77-.76,1.83-1,.41-1.3-1.95-.48-8.79,2.78-13.82,6.57C167.42,102.3,157.09,109,156.34,109c-1.64,0,2.64-3.26,13.15-10,6.4-4.1,11.13-7.63,10.53-7.83-2.34-.78-6,1-12.66,6.07-3.77,2.89-8.78,6.5-11.11,8a22.83,22.83,0,0,0-4.25,3.16c0,.22,3.93,1.61,8.75,3.08s10.1,3.2,11.75,3.84c3.34,1.29,25.84,1.57,34.5.43l5.5-.72-5,1.51c-6.79,2-22.72,2.91-29.7,1.6-5.58-1.05-5.75-1-8.91,1.93a29,29,0,0,1-5.3,4c-1.15.56-.17-.7,2.17-2.8,4.54-4,5.18-5.31,2.7-5.31-3.11,0-12.46,7.23-12.46,9.63s26.39,3,40,.83Zm-26.07-1.86c1.68-2,7.08-5,7.07-3.88,0,.43-1.92,1.87-4.25,3.2-3.12,1.77-3.87,2-2.82.68ZM189,113.05c0-1.69,14.18-12.06,16.49-12.06.42,0,.2.67-.49,1.5a4,4,0,0,1-2.42,1.5c-.65,0-4,2.25-7.38,5s-6.2,4.58-6.2,4.07Zm-17-3.47c4-3.89,18-13.59,19.69-13.59.83,0-1.35,1.88-4.85,4.19s-8.45,5.9-11,8c-5.15,4.23-7.7,5.16-3.83,1.4Zm29.92,1c1.7-2.07,10.66-8.37,9.71-6.83a38.86,38.86,0,0,1-5.91,4.82c-2.88,2.07-4.6,3-3.8,2ZM189.47,86c1.39-2.25,25-11.94,26.15-10.75.28.28-1.89,1.3-4.81,2.27S201.76,81,197.2,83.12s-8,3.41-7.73,2.91ZM207,84.49a25,25,0,0,1,5.5-2.41c.55,0-1,1.08-3.5,2.41a25.27,25.27,0,0,1-5.5,2.41C202.94,86.9,204.52,85.81,207,84.49Zm-44.57-8.38c.81-1.32,14.66-9.37,15.19-8.84s-2.11,2.18-11,7.43C162.48,77.17,161.58,77.47,162.42,76.11Zm22.07-2.65c2.85-2.36,18.31-9,19.1-8.21.21.21-2.2,1.42-5.36,2.69S190,71.54,187,73.1c-5.29,2.74-5.39,2.76-2.5.36ZM173,64.13c0-.86,7.94-5.55,8.46-5,.19.19-1.64,1.57-4.06,3.06s-4.4,2.36-4.4,1.93ZM204,59a16.07,16.07,0,0,1,5-1.94c.83,0-.46.87-2.85,2-5.52,2.5-6.73,2.49-2.15,0Zm47.74-9.66a5.79,5.79,0,0,1,3,0c1,.26.41.48-1.24.5S251.05,49.61,251.73,49.33Zm-91.28,69.91c4.23-3.72,4.45-4.15,2.56-4.75a3.42,3.42,0,0,0-3.79,1.25,77.48,77.48,0,0,1-6.73,5.82c-4.72,3.7-4.86,3.75-2.5.82a31,31,0,0,1,5.75-5.25c3.37-2.24,4.25-4.14,1.9-4.14-1.86,0-8.88,5.21-11.5,8.54-1.2,1.52-2.45,2.49-2.79,2.15s2-3.11,5.15-6.15,5.09-5.54,4.24-5.54-4.38,2.79-7.88,6.21l-6.37,6.21,8,1c7,.91,8.09.84,8.66-.54.36-.87,2.74-3.42,5.3-5.67Zm-16.33-2.75c2.13-1.92,3.54-3.49,3.13-3.47-2.28.1-11.64,10.54-10.75,12,.48.78,1.26.12,2.24-1.9a27.32,27.32,0,0,1,5.38-6.61Zm-2.57-5.58a24,24,0,0,0,2.44-3.69c0-1.07-6,4.66-7.54,7.18l-1.76,2.92,2.21-1.55A26.05,26.05,0,0,0,141.55,110.91Zm-87.06-1.43,4-1.49-3.5.61a23.15,23.15,0,0,0-6.75,2.58c-3.94,2.39-4.37,3.56-.5,1.35a56,56,0,0,1,6.75-3Zm50.4-.85a62,62,0,0,0-3-7.58c-1.16-2.48-2.5-5.53-3-6.78C98.09,92.11,96,91.05,96,92.79a58.2,58.2,0,0,0,3.5,7.75,54.63,54.63,0,0,1,4.13,10.3c.4,2.11.91,2.89,1.4,2.11s.36-2.62-.13-4.32Zm-4.92-3.7c-2.32-6.22-3.66-7.9-2.54-3.19,1.22,5.08,3.95,11.58,4.36,10.35.22-.67-.59-3.89-1.82-7.16Zm45-3.32c0-1.62-.22-1.69-1.74-.54-4.48,3.39-6.25,5.41-6.25,7.15s.59,1.39,4-1.43c2.19-1.81,4-4.15,4-5.17Zm7.51,2.62c2.75-2.06,7.65-5.54,10.88-7.74,5.11-3.49,8.18-7.14,7-8.39-.19-.22-2.92,1.58-6.05,4s-8.18,6.29-11.22,8.61c-5.28,4-8.15,7.28-6.44,7.27.44,0,3.05-1.69,5.8-3.75Zm-48.95-7a75.07,75.07,0,0,0-4.2-9.13c-.83-1.28-1.27-2.57-1-2.85s2.1,2.57,4,6.34l3.52,6.85,0-4.67c0-2.57-.33-4.82-.81-5-.89-.35-5.34-9.83-4.6-9.83.23,0,1.31,1.68,2.4,3.75,1.65,3.13,2,3.37,2,1.47.17-8.65-16.26-26.62-31.06-34A78.53,78.53,0,0,0,64.46,46c-.49,0,1.18,2.14,3.72,4.75,5.43,5.59,9,12.36,11.74,22.23A40.55,40.55,0,0,0,86.8,86.8c2.7,3.68,5.37,7.56,6,8.63.83,1.55,1.18.37,1.77-5.88.82-8.74-.51-17-3.62-22.37-2.16-3.75-2.27-4.19-1-4.19,1.06,0,4.51,6.4,5.4,10a89.15,89.15,0,0,1,1.24,9c.46,4.81,1.7,8.61,4.77,14.67,2.29,4.51,4.33,8,4.55,7.8s-.82-3.45-2.31-7.19ZM89.26,86.41c-3.26-3.73-4-5.22-1.35-2.93,2,1.74,4.66,5.54,3.87,5.49a17.61,17.61,0,0,1-2.52-2.56Zm-1.69-6.84c-3.26-3.89-4.45-5.73-2.66-4.08,3.73,3.42,9.51,10.45,9,10.88-.2.16-3-2.9-6.29-6.8ZM86.46,71.8c-3.53-3.69-3.94-4.34-1.4-2.25C88.28,72.21,92.58,77,91.75,77A61.05,61.05,0,0,1,86.46,71.8ZM83.4,62.74l-1.91-2.25,2.25,1.9A11.09,11.09,0,0,1,86,64.64C86,65.44,85.19,64.85,83.4,62.74ZM149.06,89c1.5-3.86,2.34-7,1.88-7s-1.24.7-1.72,1.56a4.09,4.09,0,0,1-2.61,1.82c-1.63.24-5.6,5.14-5.61,6.94,0,.45,1.37-.17,3.05-1.36,4.77-3.4,4.46-1.7-.52,2.9-2.47,2.28-4.81,5.37-5.18,6.86-.68,2.71-.67,2.7,3.65-1,3.24-2.78,5-5.48,7.06-10.72Zm-108,2.46c1.62-.84,3-1.91,3-2.39a53.48,53.48,0,0,0-3.06-7.4c-3-6.47-3.09-6.53-6-5.51-3.6,1.25-3.92,3.25-.42,2.58,1.39-.27,2.73-.15,3,.26s-1.26,1-3.35,1.35c-6.6,1.05-9.54,6.34-5.69,10.19,2.88,2.88,8.07,3.26,12.59.92ZM206.13,73.37c3.77-1.49,6.86-3.08,6.86-3.54,0-2.41-10.8,1.22-22,7.41-5.24,2.88-11.2,6.14-13.25,7.22S174,87,174,87.63s5.69-1.68,12.64-5.19,15.72-7.59,19.5-9.07Zm-53.91,7.18c.33.33,1.77-1.4,3.19-3.84a33.82,33.82,0,0,1,4.68-6.31c2.7-2.44,4.47-5.61,2.68-4.78-2,.94-16.78,17.29-16.78,18.58,0,.64,1.27,0,2.82-1.54s3.09-2.43,3.41-2.11ZM107,50.05c3.56-1.68,7-3.06,7.63-3.06s.93-.85.64-2c-.49-1.86-1-1.72-8.33,2.19-7.64,4.08-15,9.92-15,11.93,0,.55,1.93-.57,4.28-2.5A63.28,63.28,0,0,1,107,50.05ZM162,53c1.3-.84,1.28-1-.15-1-.91,0-3.52-2.24-5.8-5s-5-5.22-6.07-5.56c-2.39-.76-11,2.92-11,4.7,0,2.45,1.48,3.6,6.48,5.16,8.94,2.78,14,3.28,16.5,1.65ZM85.4,42.85c.39-2.2,2.26-5.47,4.74-8.29C92.4,32,94,29.66,93.7,29.36,92.67,28.33,85,28,85,29c0,.54.68,1,1.5,1,1.64,0,1.81,1.4.54,4.5-.76,1.86-.9,1.8-1.93-.82A16.31,16.31,0,0,1,84,28.92c0-1.06-.45-1.93-1-1.93-1.26,0-1.29-.21.59,5.29,1.31,3.85,1.39,5.82.5,11.62-1.82,11.69-.76,10.86,1.32-1Zm50.56-.6c-2.2-1.54-2.6-5.23-.77-7.06.94-.94.66-1.2-1.25-1.2-2.67,0-9.51,4.9-7,5s-4,3-7.13,3.23c-2,.16-2.84.71-2.64,1.72.35,1.83,3.7,2.82,10.27,3.05a28.43,28.43,0,0,1,7,1c3,1.17,4.25-3.72,1.47-5.67ZM122,44a6.57,6.57,0,0,1,3-1c1.34,0,1.34.11,0,1a6.62,6.62,0,0,1-3,1C120.66,45,120.66,44.85,122,44Zm40.68-3.74,3.74-3.74L163,35.89c-1.9-.34-4-.79-4.66-1C157,34.45,151,38,151,39.24c0,.41.6.75,1.34.75a5.85,5.85,0,0,1,3.15,2c2.43,2.68,2.85,2.58,7.18-1.74ZM141.49,41a3.54,3.54,0,0,1,2.69-1c1.18,0,4-2.07,6.59-4.75,10.95-11.53,10.77-11.29,9.36-12.17a4.84,4.84,0,0,0-3.25-.34,9.38,9.38,0,0,1-4.64-.54c-7.31-2.77-8-2.61-14.19,3.33-3.23,3.07-6.14,5.14-6.48,4.59s1-2.22,3-3.72a20.67,20.67,0,0,0,5-5.52c1.42-2.75,2-14,.82-15.17-.34-.35-1.68.93-3,2.83s-3.33,4.79-4.54,6.43c-1.74,2.34-2.22,4.42-2.29,9.75-.08,6.6,0,6.78,2.42,6.71a38.21,38.21,0,0,0,6-.86l3.5-.79-3.25,3.41c-3.63,3.81-4.1,6.21-1.5,7.73,2.24,1.3,3,1.32,3.75.08ZM129.12,33.2a3.32,3.32,0,0,0-2.66.82c-2,1.65-1.86.06.19-2.2.91-1,1.25-1.8.75-1.76s-2.23,1.73-3.85,3.75-2.31,3.11-1.55,2.43c2-1.8,3.48-1.55,1.93.32-.83,1,.09.75,2.54-.69,2.12-1.25,3.31-2.45,2.65-2.67ZM98.74,21c4.11-6.89,4.56-14,1-16.49-3.23-2.26-4.37-2-7.36,2A18.71,18.71,0,0,0,89,15.76l-.74,5.73-.13-5.13A25.92,25.92,0,0,1,89.55,7.5c2-4.81,1-5.75-2.08-2a18.66,18.66,0,0,0-4,14.84c.81,5.36,2.51,6.7,8.07,6.36,3.69-.22,4.25-.67,7.25-5.7Zm52.65-3.29c1.35-5.07,2.4-10.29,2.13-10.56s-2.17.17-4.42.78c-4.14,1.11-4.18,1.17-5.56,8.22-.24,1.25.5,1.8,2.81,2.09,1.73.22,3.49.47,3.92.56s.94-.41,1.12-1.09Z"/></g></g></svg>