<?xml version="1.0" encoding="utf-8"?>
<!-- Generator: Adobe Illustrator 22.1.0, SVG Export Plug-In . SVG Version: 6.00 Build 0)  -->
<svg version="1.1" id="Layer_1" xmlns="http://www.w3.org/2000/svg" xmlns:xlink="http://www.w3.org/1999/xlink" x="0px" y="0px"
	 viewBox="0 0 145.1 525.1" style="enable-background:new 0 0 145.1 525.1;" xml:space="preserve">
<style type="text/css">
	.st0{fill:#600F0A;}
</style>
<title>coffee_3</title>
<g id="Layer_2_1_">
	<g id="Layer_1-2">
		<path class="st0" d="M83.6,519.8c0.3-3.6,0-7.3-1-10.8c-1.2-4-1.3-6.5-0.7-9.5c0.5-2.2,0.8-4.2,0.6-4.5c-1.2-2-1.4-12.3-0.2-15.7
			c0.8-2.6,1.1-5.3,0.9-8c-0.3-3,0.3-5.4,2.2-9.2c2.5-4.9,2.5-5.4,1.3-10.7l-1.3-5.6l-6,5.2c-3.3,2.9-7.3,6.7-9,8.5
			c-3.7,4.1-4.9,4.3-4,0.6c0.7-2.8,1.5-22.3,0.9-22.3c-0.2,0-2.9,1-6.1,2.2c-4.6,1.8-7.4,2.1-13.5,1.9c-6.5-0.3-8.5,0.1-13.3,2.2
			c-3,1.4-5.5,2.3-5.5,2c0.4-1.2,0.9-2.3,1.5-3.4c1.1-2.1,1.6-6.8,1.8-17.2l0.2-14.3l-6.4,0.8c-3.2,0.4-6.4,0.9-9.5,1.8
			c-2.8,0.9-11.5,8.8-15,13.5c-2.1,2.9-1.9,0.6,0.3-3c3.4-5.6,5.1-11.4,6.7-22.2c2-13.4,2.8-16,7.1-22.3c2.2-3.3,4-6.8,5.5-10.4
			c1-3,2.8-5.8,5.2-7.9c1.8-1.4,4.8-3.9,6.7-5.7c2.7-2.5,2.9-2.9,1-1.9c-3.6,1.8-4.9,2.1-11,2.4c-5.8,0.3-12.9,1.6-14.8,2.8
			s-1.3,0,1.8-3.3c1.6-1.7,2.8-3.8,3.6-6c0.3-1.5,1-2.9,2-4.1c0.9-0.9,1.2-2.3,0.8-3.5c-0.6-2.4,4.6-13.3,7.1-14.7
			c0.7-0.4,2.3-2.7,3.5-5c2.6-5,5.8-8.8,7.6-8.8c0.7,0,2.2-1.3,3.3-2.9c1.6-2,3.6-3.8,5.8-5.2c1.9-1.1,3.5-2.4,5-4
			c1.6-2.2,6.9-6,8.7-6.3c0.8-0.1,1.5-0.4,2.1-0.9c0.6-0.5,1.4-0.7,2.2-0.7c1.3-0.2,2.5-0.8,3.4-1.8c1.6-1.5,3.9-1.8,13.8-1.7
			c6.5,0,11.9-0.3,11.9-0.6c-0.4-1.9-1-3.9-1.6-5.7c-1.9-5.9-4.2-6.9-8.7-3.7c-3.2,2.3-6,1.3-6.5-2.3c-0.3-1.7-1-2.1-3.7-2.1
			c-2.5,0-3.5-0.5-4-2c-0.7-2.1,1.8-7,3.4-7c0.5,0,1.1-0.9,1.4-2c0.3-1.4,1.4-2,3.1-2c4.2,0,4.8-2.8,2.6-11.4
			c-1.1-4.2-1.7-8.1-1.3-8.8s0.2-0.8-0.4-0.5s-1.3-0.3-1.6-1.5c-0.5-2-0.7-2-2.2-0.5c-2.1,2.1-2.7,2-5.8-0.4c-1.1-1-2.5-1.7-3.9-2
			c-1-0.1-1.9-0.5-2.6-1.2c-1.4-1.4-1.6-6.4-0.2-7.3c0.5-0.3,0.7-1.9,0.4-3.4c-0.3-1.7-0.1-3.5,0.6-5.1c1-1.9,1.7-2.1,5.2-1.6l4,0.6
			l-0.6-3.8c-0.3-2.1-0.8-5.7-1.2-8c-0.4-2.9-1.1-4.3-2.2-4.3c-1-0.2-1.8-1-2-1.9c-0.5-1.3-1.7-2.2-3.1-2.3
			c-1.5-0.2-2.8-1.1-3.6-2.3c-0.8-1.3-1.7-2.4-2.8-3.3c-1.1-1-1.7-2.3-1.8-3.8c0-1.3-0.3-2.4-0.8-2.3c-3.4,0.5-5.1-2.7-3.2-6.1
			c1-1.8,1.8-2,6.7-1.6c3.7,0.3,5.9,1,6.5,2c0.4,0.8,1.4,1.3,2.3,1c1.2-0.4,1.4-4,1.4-19.9c-0.1-16.1-0.3-19.3-1.5-18.8
			c-0.8,0.3-1.3,1-1.4,1.8c0,1.8-3.1,4.3-6.2,5.1c-4.9,1.2-6.7-6.1-2.3-9.2c1.4-1,3.9-3,5.7-4.5s3.9-2.7,4.8-2.7
			c1.1,0,2-1.6,2.8-5.3c0.7-2.9,1.5-6.3,1.9-7.7c0.6-2.2,0.4-2.3-2.1-1.7c-3.5,0.9-5.6-0.8-5.6-4.5c-0.1-1.8,0.9-3.6,2.5-4.5
			c1.4-0.9,2.2-2.1,1.9-2.6s0.4-2.4,1.7-4l2.3-3.1l-2.2,0.6c-3.1,0.8-6.4-2.6-5.5-5.6c0.8-2.6,3.2-4.6,5.6-4.7c1.2,0,1.5-0.6,1.1-2
			c-0.6-2.4-1.6-2.5-3.3-0.5c-2.8,3.4-11,0.9-11-3.4c0-4.8,7.6-5.8,10.8-1.4l2,2.8l2.6-2.4c2.2-2,2.9-2.2,5-1.3
			c2.4,1.1,2.4,1,5.6-11.5c1.7-7,3.6-15.6,4-19.2S86,40,87.3,32s2.6-16.5,2.8-19c0.3-4.4,0.2-4.6-3.9-6.8c-3.6-2-4.1-2.6-3.2-4.2
			c2-3.8,5.3-2.3,13.8,6c8.1,8,9.5,10,6.5,10c-0.9,0-1.4-0.5-1.2-1.1c0.5-1.6-13.2-15-15.3-15c-0.9,0-1.8,0.3-2.4,1
			c-0.3,0.5,0,0.8,0.8,0.5s4.4,2.3,8.6,6.2c7.3,6.8,10.2,11.2,3.5,5.3l-3.7-3.3l-0.7,2.7c-0.4,1.5-1.2,6.8-1.9,11.9
			C88.3,47,79,89.6,76.6,91.4c-0.7,0.5-0.5,0.7,0.5,0.3c0.9-0.3,1.9,0.1,2.3,1.1c0.5,1.4,0.8,1.4,2-0.3c1.7-2.3,0.9-4-1-2.3
			c-1,0.8-1.4,0.8-1.4,0.1c0-2.8,6.8-3.6,7.1-0.8s-0.3,5.2-1.5,6.2c-1.5,1.2-2.9,5.8-1.4,4.9c1.7-1,5.8,0.5,6.9,2.7
			c0.8,1.6,0.7,2.6-0.6,4.6c-0.9,1.4-1.4,3.2-1,4.1c1.4,3.6-5,8.7-7.9,6.3c-1-0.8-1.6-0.7-2.6,0.4c-1,1-2.3,1.5-3.7,1.5
			c-2.4,0-3.3,1.3-4.7,7.3c-0.6,2.4-0.4,2.8,1.8,2.8c2.7,0,4.8,2.9,4.3,5.6c-0.2,1.1,0.8,2,2.7,2.6c4.5,1.5,5.6,2.8,5.3,6.1
			c-0.3,2.8-0.7,3.1-4.2,3.4c-3.2,0.3-3.8,0.6-3.4,2.2c0.2,1.4-0.2,2.8-1,3.9c-1.1,1.6-2.1,1.9-4.1,1.4c-1.4-0.3-2.7-1-3.7-2
			c-1.2-1.7-2,16.6-1,23.9c0.6,4.5,0.8,4.8,2.4,3.3c2.3-2.1,4.4-2,6.5,0.3c0.9,1,2.2,1.5,3.5,1.4c2.2-0.6,5.1,2.1,5.1,4.8
			c-0.2,1.4-0.9,2.7-2,3.6c-1.1,1-1.9,2.4-2,3.9c0,4.7-6.7,7.4-9,3.6c-0.8-1.4-0.9-1.2-0.4,1.1c0.4,1.9,0.2,3.1-0.7,3.7
			c-1.1,0.7-1.1,2.3-0.2,8.4c0.6,4.2,1.3,7.9,1.6,8.1s1.5,0,2.6-0.6s4.3-1,6.8-0.8l4.7,0.3v4c0,2.8,0.6,4.5,2,5.6
			c1.7,1.4,1.8,2,0.8,4.3c-0.5,1.4-1.7,2.4-3.1,2.6c-1.5,0-2,0.6-2,2.5c0,2.4-2.5,5.8-4.8,6.6c-0.8,0.3-0.7,2.1,0.3,6.2
			c0.4,2.2,1.1,4.4,2,6.4c0.3,0.3,1.7-0.6,3.1-2.1c2.9-3.1,3.9-3.3,6.3-0.8c1,1.1,2.3,1.8,3.7,2.3c5,0.9,4.4,6.6-0.8,8
			c-3,0.8-9.1-1.2-10-3.4c-0.3-0.8-0.5-0.7-0.6,0.4c0,0.9,1.1,3,2.5,4.7c2.1,2.5,3.1,2.9,5.8,2.5c2.4-0.4,3.7,0,5.1,1.5
			c2.7,2.9,1.4,6.2-2.4,6.2c-1.8,0-3.2,0.6-3.6,1.6c-0.6,1.6,4.3,9.3,6.8,10.6c0.8,0.4,3.4,1.6,5.9,2.8c6.9,3.2,11.3,5.9,13,7.8
			c1.4,1.5,3,2.9,4.7,4.1c2.3,1.8,4.2,4.1,5.8,6.6c1.3,2.2,2.8,4.3,4.6,6.2c1.7,1.8,3,3.7,4.1,5.9c1.3,2.5,2.7,4.8,4.3,7.1
			c2.6,3.5,6.6,17.9,6.6,23.9c-0.2,3.4-0.9,6.8-2.1,10c-1.1,3.3-2.1,6.2-2.2,6.5s-0.5-0.6-1-2c-0.6-1.9-0.7-1.5-0.3,1.6
			c0.4,3.4,0,5.1-2.6,9.7c-4,7.1-5.4,15.1-3.3,19.1c0.9,1.8,1,2.6,0.3,2.1s-2.4-3.4-4-6.7l-2.8-5.9l-1.5,4.3
			c-4.3,11.9-5.1,16.4-5.1,28.4c0,8.7-0.4,12.6-1.4,13.7c-0.9,1.3-1.2,2.9-0.8,4.4c0.3,1.5,0.8,4.4,1.2,6.4c0.6,3.1,0.3,4-1.7,6
			c-3.5,3.3-3.9,5.1-2.2,10.7c1.4,4.6,1.3,5.4-0.5,10.2c-1.7,4.5-1.9,6.7-1.4,15.4l0.6,10.1l-6.3,7.3c-3.9,4.5-8.1,8.2-11,9.7
			c-2.6,1.3-5,3-5.3,3.8s-2.3,2.8-4.6,4.6l-4,3.2L83.6,519.8L83.6,519.8z M87.8,511.7c0-1-0.3-1.6-0.7-1.3s-0.8-0.2-0.8-1
			s0.6-1.3,1.6-0.9c1.3,0.5,1.3,0.4,0.3-0.6c-0.8-0.9-1.2-2.1-1.2-3.3c0.1-2,0.1-2,0.6,0c0.4,1.5,1,0.8,2.8-3.3
			c1.3-2.9,2.2-5.8,2-6.5s-0.1-0.8,0.2-0.3c0.5,0.9,2.3-2.9,3.7-7.5l0.7-2.4l-1.7,2.5c-1.1,1.6-2.4,3-3.8,4.4
			c-1.1,1-1.9,2.3-1.8,2.8s-0.1,0.8-0.5,0.6s-1.9,0.9-3.2,2.2c-2.9,2.9-3.2,7.5-1,15.8c1.2,4.4,1.5,4.9,2.1,3
			C87.4,514.5,87.6,513.1,87.8,511.7L87.8,511.7z M88,500.6c0-1.1,0.2-1.6,0.5-1.3c0.3,0.6,0.4,1.3,0.1,1.9
			C88.3,502,88.1,501.8,88,500.6z M96.8,511.2c1.2-1,1.9-2.1,1.5-2.4s-0.1-2.1,0.5-3.8s0.8-3.6,0.2-4.1s-1.6,1.3-2.7,4.4
			c-1,2.9-2,5.9-2.2,6.6C93.5,513.5,94.3,513.3,96.8,511.2z M92.9,503.8c3.2-10.6,3.4-11.8,0.9-7.3c-1.9,3.5-4.8,12.4-4.9,14.8
			C88.9,514,90.9,510.1,92.9,503.8z M110.3,493.8c-0.4-5.2-1.3-7.8-2.4-7.8c-1.7,0-1.6,9.3,0.1,9.8c0.5,0.2,0.7,1.5,0.4,3
			c-0.5,2.4-0.4,2.5,0.9,0.9C110.1,498.6,110.5,496.4,110.3,493.8L110.3,493.8z M87.9,489c0,0.8,0.9-0.5,1.9-3
			c1.8-4.5,1.8-4.5,2.2-1.5s0.4,3,1.5-1c0.6-2.2,1.6-5.6,2.2-7.5l1-3.5l-0.5,4c-0.3,2.2-0.8,4.9-1,6c-0.4,1.5-0.3,1.6,0.4,0.6
			c0.5-0.8,1.3-1.1,1.8-0.9s0.9-0.9,0.9-2.6s0.4-7.4,0.9-12.6l0.8-9.5l-3.7,4c-2.3,2.5-4.4,5.2-6.4,8c-1.2,1.8-2.4,3.4-3.9,5
			c-1.2,1.1-3.4,7.1-3.3,8.9c0,0.6,0.7-0.5,1.4-2.4s1.8-3.4,2.4-3.3s1.1-0.1,1.1-0.6c0.3-1,0.8-2,1.6-2.8c0.9-1.1,1.2-1.3,0.8-0.4
			s-0.4,1.1,0.2,0.7c0.9-1.2,1.6-2.6,2.1-4l1.2-3.2l0.1,3.4c0.1,2.5-0.9,4.5-3.8,8c-5.1,6.1-7.2,10.4-6.4,13.1
			c0.6,2.2,0.7,2.1,2.4-1.1C87,489,87.9,488.2,87.9,489L87.9,489z M95.5,471c0.7-1.6,1.2-3.3,1.5-5c0.7-3.5,0.7-3.5,0.8-0.5
			c0,1.8-0.5,3.5-1.5,5C95.5,471.6,95.1,471.8,95.5,471z M105.8,487.9c1.1-5.2,0.4-9-1-5.4c-0.6,1.4-0.8,0.9-0.9-2.1
			c-0.2-3.5-0.3-3.7-1-1.5c-0.5,2-0.8,4-0.8,6c0,2.9,0.1,3.1,0.9,1.5s0.9-1.4,0.8,1.5C103.6,494.8,104.4,494.8,105.8,487.9
			L105.8,487.9z M101.6,476.7c-0.3-0.7-0.5-0.1-0.5,1.3s0.2,1.9,0.5,1.3C101.9,478.4,101.9,477.6,101.6,476.7L101.6,476.7z
			 M109.3,461.2c-1.2-1.9-2.5-3.6-4-5.3c-0.2,0-0.3,2.6-0.3,5.8l0.1,5.8l1.3-3.5l1.3-3.5l0.1,4.3c0,2.4,0.5,4.1,1,3.8
			c1-0.6,2,2.4,2.2,6.4c0.1,1.4,0.5,0,1-3C112.8,466.7,112.7,466.2,109.3,461.2L109.3,461.2z M87.2,465.7c1.2-2.5,1.6-2.8,1.7-1.3
			c0,1.2,1.1-0.3,2.6-3.5c1.3-2.9,3-5.7,5.1-8.2c1.4-1.5,2.4-3.5,2.2-4.5c-0.3-1.4-1.4-0.3-4.3,4.2c-2.2,3.3-4.2,6.2-4.5,6.5
			c-2.1,2.5-3.9,5.3-5.3,8.3C83.5,470.2,85.5,469.1,87.2,465.7z M93.9,460.2c0-1.5-0.2-1.5-1-0.2c-1.3,2-1.3,3.3,0,2.5
			C93.6,461.9,93.9,461,93.9,460.2z M97.9,455.2c0-2-0.2-2.2-1.5-1.2c-0.8,0.7-1.5,2.6-1.5,4.4c0,3,0.1,3,1.5,1.2
			C97.3,458.3,97.8,456.8,97.9,455.2L97.9,455.2z M100.9,450.6c0-2.1,0.2-4.2,0.6-6.3c0.4-1.3,0.3-1.5-0.4-0.8
			c-1.3,1.2-2.3,11.5-1.1,11.5C100.5,455,100.9,453,100.9,450.6z M93,446.4c0.3-1.6,0.7-2.5,0.8-1.9s0.8-0.4,1.5-2
			c1.3-3,1.4-3,1.5-0.5s0.2,2.3,1.3-0.7c1.5-4,2.7-5.2,2.7-2.8c0,2.7,1.1,1.1,2-2.9l0.8-3.6l-3.1,2.2c-4,2.8-13.6,12.5-13.6,13.8
			s1.7,1.2,2.3-0.3c0.3-0.7,0.5-0.5,0.6,0.6C90,451.1,92.3,449.7,93,446.4L93,446.4z M118.3,447.4c0.7-1.8-0.2-3.7-1.4-2.9
			c-0.4,0.3-1.1-0.7-1.5-2.1c-0.7-2.9-1.4-2.7-2,0.5c-0.3,1.3,0.2,2.4,1,2.7c0.8,0.3,1.4,1.1,1.5,2
			C115.9,449.5,117.6,449.3,118.3,447.4L118.3,447.4z M83.2,441.2c1.4-2.9,2.3-5.3,1.8-5.3c-0.9,0-5.2,8.5-5.2,10.2
			C79.9,447.7,80.2,447.2,83.2,441.2z M112.9,438.8c0-4-1.7-2.7-2.2,1.6c-0.3,2.7-0.1,3.2,0.9,2.4
			C112.3,442.2,112.9,440.4,112.9,438.8L112.9,438.8z M79.8,429.1c-1.6-0.6-3.5,1.7-4.8,5.9c-0.7,2.3-1.5,4.9-1.8,5.8
			s1.3-1.3,3.5-4.9S80.3,429.3,79.8,429.1z M36.9,437.5c0,0.5,1.4-0.4,3-1.9s3-3.4,3-3.9s-1.3,0.5-3,2.4s-3,3-3,2.5
			c0-1.5,5-6.8,5.7-6.1s4.3-2.3,4.3-3.5c0-1.1-5-0.5-7.8,1c-3,1.6-5,4.9-5.7,9.6l-0.7,4l2-2.5c1.1-1.4,2.1-2.1,2.1-1.6L36.9,437.5z
			 M56.6,439.4c0.3-0.9,0.2-3.9-0.4-6.6c-0.8-3.5-0.7-7,0.3-10.5c0.4-1.9,0.9-3.8,1.6-5.7c0.2-0.1,1.2-0.8,2.3-1.6
			c1.7-1.3,1.7-1-0.4,2.3c-2.4,4-2,6.7,0.5,3.3c0.8-1.1,1.4-1.5,1.4-0.9c-0.4,1.1-1.1,2.1-2,2.9c-1.1,1-1.8,2.4-2,3.9
			c0,2,0.1,2,2.1-0.4c1.1-1.4,1.7-1.8,1.3-1c-0.6,1.1-1.4,2.2-2.2,3.2c-0.8,0.9-1.1,2.2-0.8,2.8c0.5,0.8,1.2,0.5,2.2-0.7
			c1.2-1.4,1.1-1.2-0.1,0.9c-0.8,1.4-1.4,2.9-1.6,4.4c0,1.5,0.2,1.5,1.8-0.2c3.2-3.4,3.7-5.7,3.7-16.9c0-6,0.4-11.9,0.8-13
			c0.8-2,0.8-2-0.8,0c-3.4,4.3-13.1,18.2-14.8,21.3c-2,3.7-0.8,4.4,1.8,1c0.9-1.2,0.5-0.1-0.9,2.4c-3.1,5.6-3.3,8.3-0.4,4.8
			c2-2.4,2-2.4-0.1,1.2l-2.1,3.7l2.3,0.4C54.7,441.2,56,441,56.6,439.4z M110.5,432.4c-1.1-2.9-2.6-0.3-2.2,3.9
			c0.1,1.6,0.3,3.2,0.6,4.7C109.5,442.3,111.1,433.8,110.5,432.4z M43.6,439.2c1.5-0.9,3.6-6.2,2.5-6.2c-0.8,0-4.4,3.6-5.6,5.8
			C39.7,440.2,41.7,440.5,43.6,439.2z M74,433.5c0.9-1.8,0.9-1.9-0.4-0.3c-0.8,1-1.7,1.4-2,1.1s-0.7,0.4-0.6,1.8
			C71,438.7,71.8,438,74,433.5L74,433.5z M74,428.8c1,0.3,6-5.9,6-7.5c0-1.3-4.8-0.6-6.8,1c-2.4,2-2,0.3,1-3.7
			c2.4-3.2,2.8-3.5,2.3-1.5c-0.7,2.4-0.6,2.4,2-0.5c1.9-2.1,2.5-2.4,2-1.1c-0.7,1.9-0.6,1.9,1.5,0s5.4-7.5,4.3-7.5
			c-1.2,0.4-2.3,1.1-3.3,1.8c-2.3,1.4-4.8,2.5-7.4,3.2c-4.2,1.2-4.7,1.6-4.2,3.6c0.3,1.4-0.2,3.6-1.5,5.7c-2.5,4.1-2.6,5.1-0.5,4.3
			c1.3-0.5,1.5,0,1,2.6c-0.6,3.1-0.6,3.2,1,1.3C72.4,429.4,73.5,428.6,74,428.8L74,428.8z M74,427.3c0.2-0.8,0.5-1.6,1-2.3
			c0.8-1.3,1-1.3,1,0.2c0,0.9-0.3,1.7-1,2.3C74.4,427.9,73.9,427.8,74,427.3L74,427.3z M119,430.5c0-0.9-0.4-1.3-1-0.9
			c-0.6,0.3-0.9,0.9-1,1.5c0,0.5,0.5,1,1,1C118.5,432,118.9,431.3,119,430.5L119,430.5z M36,428.1c0.8-1.8,1.9-3.4,3.3-4.8l2.1-1.8
			l-1.9,2.9c-1.8,2.7-1.8,2.9-0.1,1.9c1.4-1.1,2.7-2.4,3.6-3.9c1.1-1.6,1.9-2.5,1.9-1.9c-0.1,0.9-0.6,1.6-1.2,2.2
			c-0.7,0.6-0.8,1.5-0.4,1.9s2.3-1,4.2-3.2c3-3.4,3.3-3.5,1.8-1s-0.9,2.2,2.5-1.5c2.7-2.9,3.7-4.6,2.9-4.9c-0.7-0.3-1.4,0.1-1.7,0.7
			c-0.2,0.6-0.8,0.9-1.2,0.6c-0.8-0.5-10.8,2.7-14.2,4.6c-1,0.5-1.8,0.7-1.8,0.5c0-0.5,4.2-6.3,8.8-12.1c3-3.8,1.6-0.9-1.6,3.3
			c-2,2.7-2.2,3.3-0.8,3.3c0.9,0,3.1-2.3,4.8-5s3.3-4.8,3.6-4.5s-0.6,2.1-1.8,4.1c-3.5,5.7-0.1,3.7,3.8-2.1c1.8-2.7,3.2-4.5,3.2-3.9
			c-0.4,1.4-1.1,2.8-2,4c-2.3,3.5-2.5,4.6-0.8,4c0.7-0.3,2.5-2.5,4.1-5s3.3-4.5,3.9-4.5s0.7,0.5,0.2,1.3s0.2,0.1,1.4-1.3
			c1.3-1.4,2.4-2.9,3.4-4.5c1-1.9,1-1.9-0.8-0.4c-1,0.9-5.4,2.4-9.7,3.3s-7.6,2-7.3,2.4s-1.2,0.8-3.1,0.9c-2.1,0.2-4.2,0.8-6,1.9
			l-2.5,1.7l1.8-3.1c1-1.7,2-2.7,2.2-2.2c0.5,1.5,3.4,0.1,6-2.8c2.1-2.3,2.2-2.4,1.2-0.3c-1.7,3.5,1,2.4,3.8-1.6
			c1.3-1.8,2.6-3.1,2.9-2.8s-0.3,1.5-1.3,2.6c-1.6,1.7-1.6,2-0.2,2c0.9,0,2.5-1.2,3.7-2.8c1.6-2.1,1.9-2.2,1-0.5s-0.8,2.3,0.4,2.3
			c0.8,0,1.5-0.4,1.5-0.8c0.3-1,0.9-2,1.6-2.8c1.3-1.7,1.5-1.7,1-0.2c-0.9,2.9,1,2,4.3-2c2.8-3.4,2.7-5.7-0.2-3.5
			c-0.7,0.5-3.3,0.9-5.9,0.9s-4.4,0.3-4.1,0.8s-0.1,0.6-0.8,0.4s-2.3,0.2-3.3,1.1c-1.7,1.5-1.7,1.2,0.3-2.4c1.3-2.3,2.7-4.4,4.3-6.5
			c2-2.4,2-2.4-0.1,1.3c-1.9,3.5-2,3.8-0.4,3.5c1-0.2,2.8-2,4.2-4.1s2.7-3.5,2.9-3.2s-0.5,1.9-1.7,3.5c-1.7,2.3-1.9,3-0.7,3
			c0.8,0,1.6-0.4,2.1-1c0.5-0.6,1.2-0.7,1.9-0.5c1,0.2,2-0.2,2.6-1c0.7-0.8,1.6-1.3,2-1.1c1,0.6,4.7-3.5,5.5-6.2
			c0.6-2.1,0.5-2.2-2.4-1.1c-2.1,0.8-3.8,2.4-4.7,4.5c-0.6,1.5-1.5,2.8-2.5,4c-1.3,0.8-1-0.9,0.7-3c2.3-3,1.8-3.4-2.7-2.4
			c-2.3,0.5-4.3,0.7-4.5,0.5s0.6-2.1,1.8-4.1s2.4-3.4,2.7-3.1s-0.1,1.2-0.8,2.1s-1,1.8-0.7,2.2c1,1,5.5-2.4,6.2-4.6
			c0.3-1.1,1.1-2,1.7-2s0.3,1.1-0.6,2.5c-2,3.1-2,3.6-0.1,2.9c0.8-0.3,2.2-1.9,3.1-3.6s1.8-2.7,2-2.5s0,1.4-0.6,2.6
			c-0.9,1.7-0.8,2,0.5,1.5c1.3-0.9,2.4-2.1,3.1-3.5c0.8-1.6,1.9-2.6,2.5-2.3s1,0.1,1-0.5c0-1.3-3.7-1.4-4.4-0.2
			c-0.3,0.5-1.6,0.7-2.9,0.4l-2.4-0.5l4.1-5.9c2.2-3.2,3.8-6.2,3.5-6.5c-1-1-10.1,3.9-11.2,6c-3.3,6.2-20.8,32.9-24.6,37.5
			c-1.6,2-1.9,2.1-1.3,0.5c0.7-2,0.6-2-1.4-0.2c-3.5,3-8,14.8-5,13c1-0.6,1-0.5,0.2,0.7c-1.5,2-2.3,7-1.2,7c0.5,0,0.6,0.6,0.1,1.3
			c-1,1.6-1.3,10.8-0.3,10.8C34.4,431,35.3,429.7,36,428.1L36,428.1z M36.4,415c0.8-1.6,1.8-3,2-3s-0.2,1.4-1,3s-1.8,3-2.1,3
			S35.6,416.7,36.4,415z M69.9,382.1c0.1-0.7,0.4-1.3,1-1.6c0.6-0.3,1-0.2,1,0.4c-0.1,0.7-0.4,1.3-1,1.6
			C70.4,382.9,69.9,382.7,69.9,382.1L69.9,382.1z M67.5,365c2.3-4.3,5.4-8.6,5.5-7.5c0,0.6-1.2,2.8-2.6,4.9c-2.1,3.1-2.3,4-1.3,4.7
			s0.7,0.8-0.8,0.7C66.2,367.6,66.2,367.4,67.5,365z M93.7,428.5c0.6-1.4,0.8-2.7,0.3-3c-0.7-0.4-3.1,3.5-3.1,5
			S92.8,430.6,93.7,428.5z M91.9,423.5c0.1-3.1-1.8-0.5-2.5,3.5l-0.6,3.5l1.5-2.5C91.2,426.6,91.7,425.1,91.9,423.5z M116.5,426.2
			c-0.3-0.3-0.6,0.3-0.5,1.3s0.3,1.4,0.6,0.6C116.9,427.6,116.9,426.8,116.5,426.2z M82.8,423.8c3.4-4.7,3.8-5.8,1.6-5.8
			c-1.4,0-3.6,3.4-5,7.8C78.5,429.1,79.4,428.5,82.8,423.8L82.8,423.8z M101.4,423.2c-0.3-0.8-0.5-1.7-0.6-2.5
			c-0.2-1.7-1.7,3.4-1.8,5.8c-0.1,2-0.1,2,1.4,0C101.3,425.6,101.6,424.4,101.4,423.2L101.4,423.2z M115.9,424
			c0-0.6-0.4-1.1-0.8-1.5c-0.5-0.3-0.8,0.1-0.8,0.9s0.4,1.5,0.8,1.5C115.6,424.9,115.9,424.6,115.9,424L115.9,424z M98.4,420
			c1-2,1.3-3.6,0.7-4.6c-0.7-1.3-1.1-1-2,1.7C95,423.1,95.9,425.1,98.4,420L98.4,420z M108,418.6c0-0.6,2-2.6,4.5-4.5s4.5-4,4.5-4.8
			c0.1-1.1,0.7-2.1,1.4-2.9c1.9-1.9,1.8-17.1-0.2-17.1c-0.8,0-1.2,1.3-1.2,3.6c0,2.8,0.2,3.2,0.9,1.6c0.5-1.3,0.7,0.3,0.6,4.2
			c-0.1,3.4-0.5,6.5-0.9,6.9s-0.7-0.3-0.7-1.5s-0.4-2-1-1.6s-0.8-0.3-0.4-1.9c0.3-1.4,0.2-2.6-0.3-2.6c-1.7,0-3.3,5-3.3,10.5
			s-1.6,8.5-2.2,4.3c-0.3-2.1-0.5-2-2.2,1.1c-1,1.8-2,3.1-2.3,2.9s0.5-2.3,1.7-4.5c1.6-3,1.9-4.5,1.1-5.9c-0.9-1.6-1.1-1.5-2.2,1.2
			c-0.9,3-1.4,6.2-1.5,9.4c-0.3,6.2-0.3,6.3,1.6,4.6C107,420.7,107.7,419.7,108,418.6L108,418.6z M89.5,418.3
			c-0.3-0.3-0.6,0.3-0.5,1.3s0.3,1.4,0.6,0.6C89.9,419.6,89.9,418.9,89.5,418.3z M94.9,418.4c0.3-1.4,0.8-2.8,1.7-4
			c1.3-2,1.4-2.9,0.5-4.5c-1.6-2.5-1.5-6.9,0.1-6.9c1.2,0,4-6,5.2-11.3c0.4-1.7,1.3-3.3,2.5-4.6c1.2-1.4,2.1-3.2,2.6-5
			c1-4.7,2.8-5,2.1-0.5l-0.6,3.9l1.5-3c1.7-3.5,1.9-5.5,0.7-5.5c-1,0,0.1-6.4,1.8-10c1-2.3,1.1-2.1,0.7,1.5s-0.4,3.9,1,2
			c0.9-1.1,1.2-2.6,0.9-4c-0.3-1.1-1-3.4-1.4-5c-0.7-2.7-0.9-2.3-2.6,4.4c-1.1,4.4-2.7,8.8-4.8,12.9c-1.6,3-4.5,9.2-6.4,13.6
			s-4.6,10.5-5.9,13.4c-2.9,6.4-3.1,8.6-0.4,5.2c2.4-3,2.5-2.4,0.5,2.4c-1.7,4.1-2,8.1-0.5,7.1C94.5,420,94.9,419.2,94.9,418.4
			L94.9,418.4z M67.4,416c-0.4-0.8-0.2-1.8,0.5-2.5c0.6-0.4,0.9-1,1-1.6c0-0.5-0.4-0.7-1-0.4c-1.3,0.8-1.3-0.7,0.1-4.2
			c0.9-2.3,0.8-2.6-0.3-1.5c-1.4,1.4-2,13.4-0.6,12.5C67.6,418.1,67.7,417,67.4,416L67.4,416z M13.2,409.3c2.4-3.2,7-9.8,10.1-14.8
			s7.5-11.3,9.7-14.2s3.8-5.3,3.5-5.3s-2.4,2.5-4.6,5.5s-4.5,5.3-5,5s-1.1,0-1.5,0.7s-0.3,0.9,0.4,0.5s1.2-0.3,1.2,0.3
			c0,1.4-2,2.5-5,2.7c-2.6,0.2-11.3,3.3-9.6,3.3c0.5,0,0.4,0.6-0.3,1.3c-0.8,0.9-1.2,2-1.2,3.2c0,1.7,0.5,1.5,3.1-1.5
			s2.5-2.7-0.5,1.4s-4.6,8.6-3.1,8.6c2-2.2,3.8-4.5,5.5-6.9c2.1-2.9,4.3-5.7,6.8-8.3c0.9-0.8,0,0.8-2,3.5s-3.4,5.4-3,6
			s0.3,0.8-0.1,0.4c-0.9-0.8-8.6,7.8-8.6,9.7c-0.1,1-0.3,2-0.6,2.9C7.2,416.4,8.9,415,13.2,409.3L13.2,409.3z M74.6,410.4
			c1.2-1.8,1.9-2.2,2.4-1.4s1.5-0.2,2.8-2.9c1.2-2.2,2.6-4.4,3.2-4.7c0.8-0.5,0.8-0.1,0,1.4c-0.6,1-0.9,2.1-1.1,3.2
			c0,2,2.2-0.2,3.7-3.7c1.7-4.1,2.9-3.9,1.3,0.2c-1,2.5-0.9,2.6,0.5,1.5c1.6-1.7,3-3.6,4.2-5.7c1.4-2.4,2.8-4.1,3.1-3.9
			s0,1.1-0.6,1.8c-0.9,1.3-1.6,2.7-2.1,4.2c-1,2.6-0.9,2.7,0.5,1.5c3.3-2.7,6.5-11,4.3-11c-0.5,0.1-0.9,0.5-0.9,1
			c0,0.6-0.4,0.8-0.9,0.5s-4.8,1.4-9.5,3.9s-8.6,4.3-8.6,4c0.9-1.8,1.9-3.5,3-5.1c2.9-4.5,4.1-4.5,1.9,0c-0.9,1.9-0.7,1.8,1.3-0.4
			c1.3-1.4,2.4-2.9,3.5-4.5c1-1.6,1.1-1.5,0.3,0.9c-0.5,1.5-0.6,2.8-0.1,2.8c1,0,3.6-2.9,4.5-5c0.3-0.8,0.4-0.5,0.2,0.8
			c-0.6,3.1,0.1,2.9,4.2-1.3c2.8-2.9,3.4-3.2,2.9-1.4c-0.6,2.1-0.5,2.1,1.3,0.5c1.2-1.3,2.2-2.8,2.8-4.5c0.9-2.7,0.9-2.8-0.9-1.7
			c-1.1,0.7-1.9,1.6-1.9,2s-0.4,0.6-1,0.2c-1.2-0.8-10.4,2-15.2,4.5c-1.3,0.8-2.7,1.4-4.2,1.9c-0.8,0,0.7-3.4,2.1-4.8
			c1.1-1.1,1.3-1,1.3,0.3c0,2.3,1.9,0.9,3.2-2.3c1-2.4,1.1-2.5,1.8-0.7s0.7,1.9,1.4,0c0.6-1.4,0.9-1.6,1.5-0.6s1.1,1,2.3-0.2
			c0.8-0.8,1.9-1.2,2.3-0.8s0.5-0.1,0.2-1c-0.4-1.2-0.2-1.5,0.8-1.1c0.8,0.3,1.2,1,0.9,1.5s0.2,0.9,1,0.9s2-1.1,2.5-2.5
			s1.2-2.5,1.4-2.5s0.2,0.7-0.1,1.5c-1,2.6,2.3,0.6,3.5-2.1c1.5-3.3,1.4-3.6-0.6-2.6c-1,0.5-2.1,0.7-3.3,0.7
			c-1.2,0.1-2.3,0.5-3.2,1.3c-0.9,0.8-2.1,1.1-2.7,0.8s-1.7,0.1-2.5,0.9c-0.7,0.8-1.6,1.3-2.6,1.5c-0.6,0-3.5,1.4-6.6,3
			c-3.7,2-5.5,2.5-5.5,1.7c0-1.6,2.9-5.6,3-4.2s1.8-2.5,1.9-4.3c0.1-2.3-3.8,0.5-5.6,4c-1.1,2.8-1.7,5.8-1.8,8.9
			c-0.1,3.1-0.4,6-0.9,6.5s-0.8,2.8-0.8,5.3c0.1,2.5-0.6,5-2,7.1c-2.1,2.6-2.7,7-1,7C72.4,413,73.6,411.8,74.6,410.4L74.6,410.4z
			 M92.1,406.7l2-3.9L91,405c-1.7,1.2-3.1,2.5-3.2,2.9s-0.3,1.8-0.5,3.1c-0.3,2-0.2,2.2,1.2,1C89.9,410.4,91.2,408.7,92.1,406.7
			L92.1,406.7z M103.9,408.3c1.9-4.4,2-8.8,0.1-6.7c-0.7,0.8-3.1,9.2-3.1,10.9S102.1,412.4,103.9,408.3L103.9,408.3z M22.9,410
			c1.6-0.8,1.9-2.1,1.7-7.5c0-2.2-0.1-4.3-0.3-6.5c-0.1,0-1.8,2.7-3.7,6c-3.8,6.3-3.8,7.4,0,3.8c1.3-1.2,2.3-1.7,2.3-1
			c-0.1,0.8-0.6,1.5-1.3,1.9c-1,0.7-1.9,1.6-2.6,2.5c-1.2,1.5-1.1,1.8,0.3,1.8C20.6,410.9,21.8,410.6,22.9,410L22.9,410z
			 M32.8,403.6c-0.3-0.3-1.1,0.5-1.8,1.7c-1.3,2.1-1.3,2.1,0.5,0.5C32.5,404.8,33.1,403.8,32.8,403.6L32.8,403.6z M102,403.1
			c0.9-2.1,1.3-4.4,0.9-5.1c-0.7-1.1-2,1.3-3.5,6.7C98.4,408.5,100.3,407.3,102,403.1z M113.8,396c0-0.8-1.1-2.6-2.4-3.9l-2.4-2.3
			l-1,2.7c-0.6,1.5-0.9,3.2-1,4.8c0,2,0.2,2,1.5-0.6c0.8-1.5,1.7-2.8,2-2.8s0,0.9-0.5,1.9c-0.7,2-1.1,4.1-1,6.3v4.3l2.4-4.5
			C112.8,399.5,113.8,396.9,113.8,396L113.8,396z M33.2,401.5c0.4,0.3,0.5,0.2,0.2-0.1s-0.1-1.2,0.4-1.8c1.4-1.7,1.8-11.1,0.4-10.9
			c-0.7,0.1-0.4-1.3,0.8-3.7c2.5-5.1,2.4-5.9-0.4-2.8c-2.7,2.9-4.8,6.4-5.8,10.2l-0.8,3.1l2.5-3c1.4-1.6,2.5-2.6,2.5-2.1
			c-0.3,1-0.8,1.9-1.5,2.6c-1.1,1.5-2,3.2-2.5,5.1l-0.9,3.4l2.5-2.8c3.2-3.6,3.2-2.3,0,1.9s-3.2,5.5-0.2,2.6
			C31.6,402,32.9,401.2,33.2,401.5L33.2,401.5z M107.8,388c0-1.1-0.3-1-1.4,0.4c-0.9,1.3-1.4,2.9-1.4,4.6c0.1,2.5,0.1,2.5,1.4-0.4
			C107.2,391.1,107.6,389.6,107.8,388z M116.2,389.9c0.7-2.5-0.2-5.1-1.4-4.3s-1.2,6.4,0,6.4C115.3,392,115.9,391,116.2,389.9
			L116.2,389.9z M16.2,386.2c1.5-1,3.2-1.6,5-1.7c3.7-0.1,8.9-2.4,9.5-4.1c0.5-1.5-9.4-0.6-13,1.3c-1,0.4-1.9,1-2.8,1.8
			c0,0.2-0.7,2.1-1.5,4.2c-0.9,2.3-1,3.1-0.3,2C14,388.4,15,387.2,16.2,386.2L16.2,386.2z M42.2,389c0.5,0,0.5,0.5,0.1,1.1
			s-0.3,0.9,0.4,0.5c1.8-1.1,2.4-6,1.3-10.7c-0.6-2.8-0.6-4.8,0-5.4c1.9-1.9,0.9-2.8-1.1-1c-3.2,2.8-4.2,5.3-4.4,10.7
			c-0.2,4.7-0.2,4.8,1.7,3.1c2.3-2.1,2.5-0.8,0.2,2c-0.9,1.1-1.1,1.5-0.3,0.8C40.6,389.6,41.3,389.2,42.2,389L42.2,389z M38.9,384.8
			c0.3-0.7,0.9-1.3,1.5-1.7c0.8-0.7,1.5-1,1.5-0.8s-0.7,1.1-1.5,1.8S38.9,385,38.9,384.8L38.9,384.8z M40,379.3
			c0.8-1.2,1.7-2.3,2.1-2.3c1.2,0,0.9,0.5-1.4,2.6S38.6,381.5,40,379.3z M19.7,385.5c-0.3-0.3-1.1,0.5-1.8,1.7
			c-1.1,2.2-1.1,2.3,0.6,0.6C19.5,386.8,20,385.8,19.7,385.5z M114.4,382.6c0.2-1.3-0.3-2.3-1.1-2.3s-1.3,1.3-1.3,4.1
			c0,3.4,0.2,3.8,1.1,2.3C113.7,385.4,114.2,384,114.4,382.6z M121.4,384.4c0.4-2,0.4-3.8,0.1-4.1c-0.6-0.6-1.2,1-1.9,5
			S120.6,388.6,121.4,384.4z M130.5,385.3c-0.3-0.3-0.6,0.3-0.5,1.3s0.3,1.4,0.6,0.6C130.9,386.6,130.9,385.9,130.5,385.3z
			 M133,374.5c0-1.1-0.1-5.7,0-10.3s-0.4-8.3-0.9-8.3s-0.7-0.9-0.4-2c0.4-1.4,0.1-1.9-0.8-1.8s-1.5-0.6-1.7-1.7
			c-0.3-1.6-0.2-1.7,0.7-0.5s1,1.1,1-0.7c0-2.5-1.6-4-2.2-2.1c-0.2,0.7-0.4-0.3-0.5-2.2s-0.2-4.7-0.4-6.3l-0.4-2.7l-1.8,2.2
			c-1,1.4-1.6,3.2-1.4,4.9c0.2,1.5,0,2.5-0.4,2.2s-0.6,1.7-0.4,4.3c0.5,7,0.6,7.2,2,2.8l1.2-4l1.2,4.8c0.7,2.6,0.9,5.3,0.6,7.9
			l-0.7,3.1l-1.3-2.9c-1.2-2.7-1.3-2.3-0.9,4.6c0.4,6.6,2.2,15.6,2.4,12.2c0.1-2.3,2.1-0.2,2.1,2.2c0,4,1.5,3.9,2.3-0.1
			C132.7,378.5,132.9,376.5,133,374.5L133,374.5z M130.9,375.9c0-1.4-0.4-2.7-1-3.9c-0.8-1.2-1-1-1,0.9c0,1.3-0.3,2.2-0.5,1.9
			c-0.8-0.8,0.7-8.8,1.6-8.3s2.4,10.4,1.6,11.2C131.2,378.1,130.9,377.3,130.9,375.9L130.9,375.9z M131.2,363.5
			c0-1.6,0.2-2.4,0.5-1.8c0.3,1,0.3,2,0,3C131.4,365.8,131.1,365.2,131.2,363.5L131.2,363.5z M131,358.6c0-1.1,0.2-1.6,0.5-1.3
			c0.3,0.6,0.4,1.3,0.1,1.9C131.3,360,131.1,359.8,131,358.6z M126.6,343.5c-0.4-1.1-0.5-2.2-0.5-3.3c0-0.9,0.5-0.3,1,1.3
			C127.9,344.6,127.6,346.2,126.6,343.5L126.6,343.5z M120,378.9c0.8-2.9,0.8-4.4,0-5.2c-0.6-0.6-1.1-0.7-1.1-0.1s-0.4,2.9-0.9,5.2
			C117,384.2,118.5,384.3,120,378.9L120,378.9z M52.2,376.6c1-1.9,1-2-0.6-0.7c-1.1,1-2.1,2.2-2.8,3.5c-1,1.9-1,2,0.6,0.7
			C50.5,379.1,51.4,377.9,52.2,376.6L52.2,376.6z M24.9,377.1c0.6-1.1,1.5-1.9,2.5-2.5c1.3-0.5,1.4-0.2,0.5,1.4
			c-0.7,1.3-0.7,2-0.1,2s1.5-0.9,2.1-2s1.6-2,2.2-2c0.6,0,0.7,0.5-0.2,1.5c-1.9,2.3,0.4,1.8,2.5-0.5c1-1.1,2.2-1.7,2.7-1.4
			s3.5-1.8,6.6-4.8c6.4-6,19.4-15.8,21-15.8c1.1,0,5.2-4.7,5.2-6.1s-8.3-2.6-11.9-1.8c-2.1,0.5-4,1.5-5.5,3l-2.1,2.2l3-1.9
			c2.6-1.6,2.8-1.6,1.6-0.1c-2,2.4-0.5,3.3,1.9,1.2c2.1-1.9,2.8-0.8,0.8,1.3c-2.3,2.3,1.2,1.3,5-1.4l3.7-2.6l-3,2.6
			c-1.7,1.4-2.5,2.6-2,2.6s0.2,0.5-0.7,1c-1.2,0.7-3,0.6-5.8-0.2c-3.5-1-4.3-1-5.7,0.4c-2.1,2.1-0.8,3.5,1.9,1.8c1.6-1,1.9-1,1.3,0
			s-0.3,1,0.9,0.6c3-1.1,1.8,1.1-1.8,3.3c-3.1,2.2-5.9,4.8-8.5,7.7c-4.5,5-9,7.5-9,5c0-0.5-1.8-0.8-4-0.6c-4.7,0.3-7-1.3-5-3.6
			c1.7-2.1,3.1-2,2.3,0.2c-0.6,1.6-0.5,1.6,2.1-0.1l2.8-1.8l-0.7,2.3l-0.7,2.3l2.2-2c1.2-1.1,2.8-1.9,4.4-2.2
			c3.2-0.3,5.5-0.9,6.3-1.6c0.4-0.4,0.2-0.7-0.5-0.7c-3.1,0,1.9-4.2,5.3-4.4c2.3-0.2,1.4-2.5-1.3-3c-4.6-1-12,0.5-14.5,2.9
			c-1.2,1.2-1.5,1.6-0.6,0.9c2.3-1.7,3.5-1.6,2,0.3s-0.7,1.9,2.2,0.4c1.5-0.8,1.9-0.8,1.4,0c-1.2,2,1.7,1.2,4.3-1.1l2.5-2.3
			l-2.5,3.1c-1.3,1.7-2.8,2.9-3.2,2.7s-0.8,0-0.8,0.5s-1.4,0.6-3.5,0.2c-1.9-0.4-3.7-0.4-4,0.1c-0.5,0.5-1.3,0.6-2,0.3
			c-1.9-0.7-5.6,2.5-5.2,4.6c-0.1,1.5-0.6,2.8-1.5,4c-2.2,3.1-2.2,4.1-0.1,3.3c1.3-0.5,1.5-0.2,1,1
			C21.9,379.6,23.8,379.4,24.9,377.1L24.9,377.1z M88.9,375c0,0.9,1.1,0.4,3.2-1.5c2.6-2.5,3-2.6,2-0.7c-1.8,3.6,0.6,2.7,3-1l2-3.3
			l-0.7,3c-0.6,2.6-0.5,2.8,0.8,1.8c0.8-0.7,1.8-1,2.1-0.7s1.4-1.3,2.3-3.5s2.2-4.1,2.6-4.1c1.1,0,1,0.7-0.3,3.1
			c-1,1.8-0.9,1.9,1,0.9c1.3-0.7,2.1-2.1,2.1-3.5c0-2.2-0.3-2.4-3.3-1.8c-2.8,0.7-5.4,1.6-8,2.8c-2.7,1.3-4.8,1.8-4.8,1.1
			s-0.7-0.1-1.6,1.1s-2,2.2-2.6,2.2s-0.7-0.4-0.1-1.3c0.8-1.3,1.4-2.7,1.7-4.2c0.6-2.6,0.6-2.8-1-1.5c-2.1,1.7-3.5,5.3-4.1,10.5
			l-0.4,4l2-2.5C88.2,374.4,88.9,374,88.9,375L88.9,375z M118.2,370.3c-0.8-2.3-2.2-1.3-2.8,2.2c-0.9,5,0.6,6.8,2.1,2.5
			C118.1,373.1,118.5,371,118.2,370.3z M51.4,373.9c1.9-1.5,2.6-2.9,2.4-4.8c-0.2-1.3,0-2.7,0.5-3.9c0.4-0.7,0.3-1.3-0.2-1.3
			c-1.2,0-2.1,1.4-2.6,4.1c-0.3,1.2-0.9,2.4-1.8,3.3c-1.7,1.4-2.9,4.6-1.8,4.6C49.1,375.5,50.3,374.8,51.4,373.9z M36.9,368.5
			c0-0.8-0.5-1.5-1-1.5s-1,0.7-1,1.5s0.5,1.5,1,1.5S36.9,369.4,36.9,368.5z M40.4,368c1-1.1,1.6-2,1.3-2c-0.9,0.5-1.7,1.2-2.3,2
			c-1,1.1-1.6,2-1.3,2C39,369.5,39.8,368.8,40.4,368L40.4,368z M135.9,357c-1.8-3.4-2-1.8-0.7,4.6l1.2,5.9l0.3-4.2
			C136.9,361.2,136.6,359,135.9,357z M95.9,360.3c1.4-5.4,3-7.8,3-4.7c0,1-0.3,2.1-0.9,3c-0.7,1.1-1.3,2.4-1.5,3.8
			c-0.7,2.8-0.7,2.8,1.9,1.1c1.4-0.9,2.5-2.3,2.5-3c0-1.7,3-1.9,3-0.1c0,0.7,1,0.1,2.1-1.3s2.3-2.4,2.5-2.3c0.6,0.5,1.6,0.4,2.1-0.2
			c0.2-0.3,0.3-0.6,0.3-1c0-1-0.8-1.4-2.8-1.1c-1.5,0.2-2.2,0.1-1.5-0.1s1.3-0.8,1.3-1.3c0.3-1,0.9-1.8,1.7-2.5
			c1.4-1.4,1.4-1.8,0.3-2.5c-0.6-0.4-1.3-0.6-2-0.5c-0.3,0.2-0.4-1-0.2-2.6s0.1-3-0.3-3c-1.4,0-3.4,3.5-3.4,5.9
			c0,1.3-0.3,2.1-0.7,1.7c-1-1-7.3,5.4-7.3,7.4c-0.1,1.1-0.6,2.2-1.5,2.9c-1.6,1.3-2.2,6.5-0.6,5.6C94.2,365.4,95.2,363,95.9,360.3
			L95.9,360.3z M101.9,355.6c0-1.8,0.6-2,1.5-0.6c0.3,0.6,0.1,1.2-0.4,1.5C102.4,356.9,101.9,356.5,101.9,355.6L101.9,355.6z
			 M59.9,362.3c0-0.3-0.7,0.1-1.5,0.7s-1.5,1.5-1.5,1.8s0.7-0.1,1.5-0.8C59.1,363.6,59.6,363,59.9,362.3L59.9,362.3z M80.6,358.3
			c1.4-2.4,2.3-4.7,1.9-5.1s-1.1,0-1.6,0.8c-2.7,4.4-5.9,10.1-5.9,10.6C74.9,366.1,78.2,362.4,80.6,358.3L80.6,358.3z M84.9,356.2
			c1.4-2.5,1.8-2.9,1.4-1.2c-0.7,2.9-0.2,2.6,1.6-0.9c0.8-1.5,0.8-2.1,0.1-1.7s-1.1,0.2-1.1-0.4c0-1.9-1.7-0.2-3.9,4
			c-0.8,1.5-1.5,3-2.1,4.6C80.9,361.9,83.1,359.5,84.9,356.2L84.9,356.2z M127.1,356.9c-0.6-0.6-0.8,0-0.4,1.9c0.4,2.1,0.7,2.3,1,1
			C128,358.7,127.8,357.7,127.1,356.9L127.1,356.9z M139.9,359.3c0-1.3,0.2-1.4,0.9-0.4s0.9,1,1.4-0.2c1-2.7-1-10.3-3.2-11.9
			c-1.4-1.2-2.5-2.6-3.5-4.1c-1.7-2.6-2-2.7-2.9-1.1c-1.3,2.3-0.1,9.3,1.9,11.4c1.8,1.8,1.8,1.9-0.3-6.3c-0.4-1.7-0.3-1.8,0.5-0.4
			c0.6,0.9,1.6,4.6,2.3,8.3C138.3,360.5,139.9,363.4,139.9,359.3L139.9,359.3z M117.9,359.3c-0.2-0.8-0.5-1.6-1-2.3
			c-0.8-1.2-1-1.1-1,0.8c0,1.2,0.4,2.3,1,2.3S117.9,359.7,117.9,359.3L117.9,359.3z M24.3,351.2c1.1-1.1,2.1-2.3,2.9-3.6
			c0.6-1.2-0.3-0.7-2.3,1.3c-1.8,1.8-3.9,3.4-6.1,4.8c-1.5,0.8-2.8,1.7-2.8,2C15.9,356.3,22.1,353,24.3,351.2L24.3,351.2z
			 M31.9,349.4c2.2-4.6,2-7.7-0.3-3.9c-1.6,2.7-3.6,9.6-2.7,9C29.3,354.3,30.7,352,31.9,349.4z M47.9,353.5c0.7-0.8,0.8-1.5,0.2-1.5
			c-0.9,0.2-1.7,0.8-2.2,1.5c-0.7,0.8-0.8,1.5-0.3,1.5C46.6,354.8,47.4,354.3,47.9,353.5L47.9,353.5z M77.2,349.7
			c3-4.7,3.3-5.7,1.8-5.7c-0.5,0-1.9,1.8-3,4s-2.3,4-2.6,4s0-1,0.7-2.3c1.1-2,1-2.1-0.4-0.9c-1.8,1.5-2,6.2-0.2,5.5
			C74,354.2,75.7,352,77.2,349.7L77.2,349.7z M19,348.9c0.7-1.2,0.5-1.8-0.8-2.3c-0.9-0.4-1.4-0.4-1,0s0,2-0.8,3.5
			c-0.7,1.1-1.1,2.4-1.4,3.6C15,354.6,17.5,351.6,19,348.9z M40,352c1.3-0.8,1.3-1-0.2-1c-0.9,0-1.7,0.3-2.3,1
			C36.7,353.3,38,353.3,40,352z M143,345.8c-0.6-1.7-1-3.4-1.1-5.2c0-1.2-1.2-4.4-2.6-7.1s-3.3-6.3-4.1-7.9c-1-1.9-1.8-2.5-2.2-1.7
			s-0.9,0.7-1.4-0.4s-0.2-1.4,0.5-0.9s0.9,0.1,0.5-1c-0.3-0.7-0.5-1.4-0.7-2.1c0-0.6-6.3-3.4-8.5-3.7c-1.5-0.3-2.9-0.8-4.3-1.6
			c-1.2-0.7-2.3-1-2.3-0.7c0,0.8,2.3,4.7,3.8,6.7c0.7,0.8,0.9,1.9,0.6,2.9c-0.5,0.8-0.3,1,0.4,0.5s1.2-0.3,1.2,0.3s1.6,3.6,3.5,6.8
			c3.9,6.4,4.6,6.5,1.5,0.1c-2.4-5.1-2.5-5.5-0.3-3.6c1.1,0.9,2.2,1.6,3.5,2.1c1,0.3,1.8,1.1,1.8,1.8c0,0.8-0.4,0.8-1.5-0.1
			c-2.1-1.7-2.9-0.6-1.5,2c0.6,1.2,0.8,2.5,0.6,3.8c-0.2,1.1-0.1,2.2,0.5,3.1c0.8,1.2,0.9,1,0.4-0.8c-0.6-2.1-0.5-2.2,1.4-1.2
			s2,0.9,1.1-1.6c-1.9-5.1-0.3-3.3,2,2.2c1.4,3.3,2.8,5.4,3.5,5.1s1.7,1.4,2.6,4.7c1,3.8,1.5,4.5,1.8,2.9
			C143.8,349.4,143.6,347.5,143,345.8L143,345.8z M138,337.6c0-1.1,0.2-1.6,0.5-1.3c0.3,0.6,0.4,1.3,0.1,1.9
			C138.3,339,138.1,338.8,138,337.6z M136.5,334.2c-1.3-2.1-2.5-6.2-1.7-5.7c0.9,1,1.6,2.2,1.9,3.5
			C137.8,334.9,137.6,336,136.5,334.2L136.5,334.2z M128.6,324.5c-0.9-1.9-1.5-3.5-1.2-3.5c0.7,0,3.7,6.1,3.3,6.6
			C130.5,327.8,129.5,326.4,128.6,324.5z M124.1,322.5c-1.7-3.7-1.3-4.5,0.5-1.1c0.8,1.6,1.3,3,1.1,3.3S124.7,323.9,124.1,322.5z
			 M44.2,348.6c0.3,0.3,2.2-0.7,4.2-2.1s4.5-2.6,5.3-2.6s3.8-1.5,6.6-3.3c4.2-2.7,6.1-3.3,11.4-3.4c6-0.1,6.5-0.4,8.8-3.5
			c3.2-3.8,6.7-7.5,10.4-10.9l7.9-7.6l-1.4-6c-1.4-6.3-4.3-14.2-5.5-15.6c-0.4-0.5-2.2,1.3-4,3.9c-2.2,3.1-4.7,6.1-7.5,8.8
			c-2.6,2.6-4.9,5.5-7,8.5c-4.3,6.8-13.7,18-21,24.9c-3.6,3.4-6.6,6.7-6.6,7.3c0,0.6-0.4,1-1,1c-0.6,0,0-1.5,1.4-3.3
			c1.2-1.6,2.3-3.4,3.1-5.3c0.3-1.1,2.1-2.7,3.9-3.6c3.1-1.5,3.3-1.9,3.5-8c0.2-5.1,0.7-6.7,2.3-7.7s2-1,2,0.3
			c0,0.8-0.6,1.4-1.2,1.3c-0.9-0.2-1.3,1.4-1.3,5.2l-0.1,5.4l2.1-2.7c1.2-1.5,4.4-5.5,7.3-8.9c4.9-5.8,6.6-8.7,4.3-7.3
			c-0.6,0.3-1-0.1-1-1.1c0-1.5-0.2-1.5-1.8-0.3s-1.6,1.1,0.1-0.8c1-1.1,1.5-2.4,1.5-3.9c-0.2-0.9,0.2-1.8,1-2.2
			c1-0.4,1.2,0.1,0.6,1.9c-0.7,2.2-0.6,2.3,1.2,0.9s1.8-1.4,0.1,0.6c-2.6,3.1-2.1,4.1,0.7,1.4c1.4-1.3,2.2-2.8,1.8-3.3
			s-0.2-0.7,0.4-0.4c0.8,0.5,2-1.8,2.7-5.3c0.2-0.7,0.6-1.3,0.9-1.9c0.7-1.1,0.4-1.1-1.5-0.1c-12,6.4-33.3,24.6-33.3,28.6
			c0,1-0.2,2-0.8,2.9c-1.1,1.1-0.9,4.4,0.2,4.4c0.5,0,1.4-0.8,2-1.8s1-1.3,1-0.6s-0.9,1.9-2,2.9c-2.2,2-2.8,5.1-0.8,3.9
			c0.7-0.4,0.4,0.3-0.7,1.4s-2,2.2-2,2.2c-0.7,0,0.5-12.4,1.4-14c0.6-1.2,1-2.3,0.8-2.5c-0.5-0.5-6.3,5-9.3,8.9
			c-3.8,5-3.1,6.5,1.2,2.6c2.1-1.9,2.7-2.3,1.5-0.9c-1.2,1.4-1.9,3.1-2.1,4.9c0,2,0.2,2.2,1.8,1s1.7-1.2,0.1,0.6
			c-1.1,1.5-1.8,3.3-2.1,5.1l-0.4,3.1l4.2-1.9C41.8,349,44,348.4,44.2,348.6L44.2,348.6z M50.4,333.8c-0.4-1.6-0.5-3.2-0.2-4.8
			c0.3-1.1,0.1-2-0.5-2c-1.2,0-0.1-4,1.8-5.9c2.1-2.2,2.8-0.5,0.9,2.3c-1.6,2.5-1.6,2.5,0.4,2.1c1.5-0.3,2,0.1,1.9,1.5
			c-0.1,1-0.4,1.8-0.7,1.7s-0.5,0.3-0.5,0.8c0,0.4,0.2,0.7,0.6,0.8c0.1,0,0.3,0,0.4-0.1c0.5-0.2,0.3,0.5-0.6,1.5
			c-0.9,1-1.6,2.1-2.1,3.3C51.3,336,50.9,335.6,50.4,333.8L50.4,333.8z M60,324.6c0-1.1,0.2-1.6,0.5-1.3c0.3,0.6,0.4,1.3,0.1,1.9
			C60.3,326,60,325.8,60,324.6z M62.8,320.9c-0.4-6.4,0.4-9,3.2-10.8c2.3-1.5,2.4-1.5,0.8,0.4c-3,3.7-3.4,4.9-1.3,4.1
			c1.8-0.6,1.8-0.6,0.2,0.7s-2.4,3.6-1.1,3.6c1.2-0.5,2.3-1.3,3.3-2.2c1.5-1.3,1.1-0.6-0.9,1.7s-3.6,4.2-3.8,4.4
			S62.9,322.3,62.8,320.9L62.8,320.9z M56.9,319.2c0-1.5,2.8-4.7,3.5-4c0.4,0.4-0.3,1.6-1.4,2.8S56.9,319.7,56.9,319.2L56.9,319.2z
			 M72.9,304.1c0-0.5,0.9-1.1,2.1-1.4c1.7-0.4,1.8-0.3,0.9,0.9C74.5,305.2,72.9,305.5,72.9,304.1z M80,351c2.7-1.4,6.5-9,4.6-9
			c-0.8,0-2.2,1.2-3.2,2.8l-3.2,5C76.6,352.2,77.1,352.6,80,351z M121.1,349.8c0.3-2.2,0.4-4.3,0.4-6.5c0-2.9,0.3-5.3,0.8-5.3
			s0.7-2.3,0.5-5s-0.6-5-1.1-5s-0.6-0.4-0.2-0.9c0.3-0.3,0.3-0.9-0.1-1.2c0,0-0.1-0.1-0.1-0.1c-1.1-0.5-9.6-15-9.6-16.5
			c0-0.7-0.4-1-0.8-0.7s-0.8,0-0.8-0.6s-2-3.9-4.5-7.3c-4.6-6.3-6.1-6.9-2.5-1c1.1,1.8,1.6,3.3,1.2,3.3s-1.4-1.2-2-2.6
			s-1.5-2.3-1.9-2s0,2.1,0.9,3.9c3.6,7.5,4.8,10.9,4.2,11.9c-0.4,0.6-0.2,0.8,0.4,0.4c1.6-1,4,4.4,3.5,7.9c-0.3,1.7,0.1,3.5,1,5
			c1.9,2.6,3.5,1.1,1.8-1.6c-0.7-1.1-1-2.3-0.8-2.6s1.3,1,2.1,2.9c1.5,3.1,1.5,3.8,0.1,7.8s-1.3,4.6-0.1,5.8
			c0.8,0.8,1.3,1.9,1.4,3.1c0,2.1,3.6,8.2,4.9,8.2C120.3,351,120.9,350.5,121.1,349.8L121.1,349.8z M115.6,340.3
			c-0.9-2.5-1.5-4.8-1.3-5s1.2,1.7,2.1,4.2s1.6,4.8,1.3,5S116.6,342.9,115.6,340.3L115.6,340.3z M116.9,336c-0.7-1.7-1-3.3-0.8-3.6
			s1,0.9,1.6,2.7C119.3,339.3,118.6,340,116.9,336L116.9,336z M118.4,333c-0.4-0.6-0.4-1.3-0.2-1.5s0.7,0.2,1.1,1.1
			C120,334.3,119.4,334.6,118.4,333z M114.1,322.8c-1.7-4-3.5-7.2-4.1-7.1s-0.7-0.4-0.4-1.2s-0.4-3.2-1.6-5.2s-1.4-2.9-0.5-1.8
			c2.7,3.3,11,21.4,10.2,22.2C117.4,330,115.8,326.9,114.1,322.8L114.1,322.8z M24.9,346.5c1.3-1.4,2.1-2.7,1.8-3s-1.7,0.8-3.2,2.5
			C20.4,349.6,21.6,350.1,24.9,346.5z M87.5,345.4c0.8-2,1.7-3.4,2-3.1s0,1.5-0.6,2.6s-0.9,2.1-0.6,2.1s1.2-1.2,2-2.8
			s1.5-2.2,1.5-1.5c0.1,2.3,1.7,1.3,3.3-2.3c0.9-1.9,1.2-3.5,0.7-3.5c-0.6,0-1,0.4-1,1c0,0.5-0.7,1-1.4,1c-3.1,0-6.3,2.3-7.9,5.6
			c-1.9,4-2,4.4-0.6,4.4C85.5,349,86.7,347.4,87.5,345.4L87.5,345.4z M73.5,342.9c0.3-0.5-0.3-0.6-1.3-0.3c-1.7,0.5-1.7,0.5,0-0.9
			c2.5-2.1,2.2-2.5-2.2-2.5c-2.7,0-4.5,0.6-5.8,2c-1.8,2-1.8,2.1,0.3,1.4c1.2-0.4,2.4-0.3,2.7,0.2C68.1,344,72.9,344,73.5,342.9
			L73.5,342.9z M67.4,341c0.4-0.6,1-0.9,1.6-1c0.6,0,0.7,0.5,0.4,1c-0.4,0.6-1,0.9-1.6,1C67.3,342,67.1,341.6,67.4,341z M85.9,333.9
			c2.2-4.4,3.5-7.7,3-7.4c-1.1,1-1.9,2.3-2.5,3.6c-0.8,1.6-2,2.7-2.5,2.4s-0.7,0.1-0.3,1.1s0.3,1.5-0.4,1.1c-0.7-0.3-1.6-0.1-2,0.6
			c-1.2,1.5-1.3,7.9-0.1,7.1C81.6,342.1,83.8,338.3,85.9,333.9L85.9,333.9z M80.9,338.1c0.1-0.6,0.5-1.2,1-1.5
			c0.6-0.4,0.7,0,0.4,0.9C81.7,339.2,80.9,339.5,80.9,338.1L80.9,338.1z M26.3,339.8c2.1-0.7,4.4-2.2,5-3.3c0.8-1.4,1.9-2.6,3.1-3.7
			c6.6-5.6,8.7-7.9,7.3-7.9c-0.8,0-1.5,0.2-2.2,0.7c-0.4,0.4-3,0.7-5.9,0.7c-5.4,0-12.8,3.4-12.8,5.9c0,0.6,0.7,0.3,1.5-0.8
			c1-1.4,1.5-1.5,1.5-0.5s0.8,0.7,2.5-0.9c1.6-1.5,2.5-1.9,2.5-1c0,1.5-7.6,9-9.2,9c-0.7,0-0.5-0.7,0.3-1.8c1.2-1.6,1.2-1.6-0.4-0.4
			c-1,0.8-1.5,1.7-1.2,2.2c0.3,0.5,0,1.2-0.5,1.4c-0.5,0.3-0.9,0.9-1,1.5C17,342.1,21.2,341.6,26.3,339.8L26.3,339.8z M26.4,334.2
			c3.2-3.4,5.3-4.9,5.9-4.2s1.7,0.4,3-0.7c1.1-0.9,0.1,0.4-2.4,3c-3,3.2-4.7,4.3-5.2,3.5s-1.5-0.5-3.6,1.2
			C22.6,338.4,23.6,337.1,26.4,334.2L26.4,334.2z M86.9,338.8c0.6-0.7,1.8-2.1,2.6-3.3c1.5-1.9,1.5-1.9,0.4,0.3
			c-0.8,1.6-0.8,2.3,0,2.3c0.6,0,1.7-1.6,2.6-3.5c1.6-3.9,2.9-4.7,2-1.3c-0.6,2.1-0.5,2.1,0.9-0.3c0.8-1.4,1.5-2.1,1.6-1.5
			c0.1,1.8,1.8-0.9,2.5-3.9l0.7-3l-2.4,2.5c-1.3,1.4-2.9,2.4-3.6,2.1s-1.6,0.6-2.2,1.9s-1,1.8-1,1.1c-0.1-2.8-2.8-1-4.8,3.3
			S84.6,341.5,86.9,338.8L86.9,338.8z M97,329.6c0-1.1,0.2-1.6,0.5-1.3c0.3,0.6,0.4,1.3,0.1,1.9C97.3,331,97,330.8,97,329.6z
			 M108.9,333.5c0-2.4-0.3-4.6-0.8-4.8s-0.8,1.9-0.8,4.9s0.3,5.1,0.8,4.8S108.9,335.9,108.9,333.5L108.9,333.5z M110.6,331.8
			c-0.3-0.7-0.5-0.1-0.5,1.3s0.2,1.9,0.5,1.3C110.9,333.5,110.9,332.6,110.6,331.8L110.6,331.8z M92.6,326.1
			c0.9-2.4,0.8-2.8-0.3-2.4c-0.8,0.3-1.4,0.9-1.4,1.3c-0.1,0.8-0.3,1.6-0.6,2.4c-0.3,0.9-0.2,1.6,0.3,1.6S92,327.7,92.6,326.1
			L92.6,326.1z M97.5,321.5c0.6-2.7,0.5-2.8-0.9-1.5c-1.1,1.3-1.9,2.8-2.3,4.5c-0.6,2.7-0.5,2.9,0.9,1.5
			C96.3,324.7,97.1,323.2,97.5,321.5L97.5,321.5z M39.9,323c0-0.4,0.9-1,2-1.2s1.8-0.1,1.4,0.4c-1.3,2.1,2.4,0.7,5.6-2.2
			c1.9-1.7,2.8-2.8,2.1-2.4s-4.5,0.6-8.4,0.5c-5.4-0.1-7.5,0.3-9.1,1.6c-2,1.7-2,1.7-0.6-0.1s1.3-1.8-0.5-1.5
			c-1,0.2-1.9,0.9-2.3,1.9c-0.2,1.2,0.6,1.5,4.2,1.4c3.3-0.1,4.3,0.2,3.5,1s-0.5,1.2,0.5,1.2C39.3,323.7,39.9,323.4,39.9,323
			L39.9,323z M107.8,317.9c-1.3-2.5-2-2-1.3,0.9c0.3,1.2,1,2,1.5,1.6S108.5,319.1,107.8,317.9z M103.5,316.3
			c-0.3-0.3-0.6,0.3-0.5,1.3s0.3,1.4,0.6,0.6C103.9,317.6,103.9,316.9,103.5,316.3z M45.9,314.1c2.3-1.3,2.4-1.2,1.1,0.3
			s-1.2,1.7,0,1.7c1-0.1,2-0.5,2.8-1.3c1.1-1,1.2-1,0.6,0c-0.4,0.7-0.3,1.3,0.1,1.3c1.5,0,7.3-4,7.3-4.9c0-0.8-11.9-0.8-17,0
			c-1.7,0.3-4,3.1-3.4,4S43.2,315.5,45.9,314.1L45.9,314.1z M101.4,309.8c-0.3-2.7-0.9-5.4-1.9-8c-0.9-2.1-1.4-4.3-1.6-6.6
			c-0.1-2-1-3.9-2.5-5.2c-2.1-2-2.5-2.1-2.5-0.6c0.1,1.3,0.5,2.6,1.1,3.8c1.4,3.5,2.6,7.1,3.6,10.7c1.4,4.8,2.7,9,3,9.4
			C101.6,314.8,101.8,313.9,101.4,309.8L101.4,309.8z M124.7,312c-0.7-1.1-1.6-2-2-2s-0.8-0.6-0.8-1.4c0-2.2-5.6-6.4-10.1-7.6
			c-2.3-0.6-3.7-1.5-3.3-2.1c0.6-1-3.3-5.9-4.8-5.9c-2,0,0.6,4.1,6.9,10.7c1.1,1.1,2.2,2.3,3.1,3.6c-0.6,1.2,1.8,4.7,3.2,4.7
			c1.2,0,2.4,0.3,3.6,0.7c1.3,0.5,1.6,0.3,0.9-0.8c-0.5-0.8,0-0.7,1,0.3C125,314.6,126.2,314.5,124.7,312L124.7,312z M116.4,308.2
			c-1.2-0.4-2-1.4-2.2-2.7c-0.2-1.9-0.1-1.9,1.2-0.1c0.8,1,1.8,1.6,2.3,1.3s1.2,0.1,1.5,0.9C119.9,309.1,119.6,309.2,116.4,308.2
			L116.4,308.2z M104.3,311.5c-0.3-0.9-0.8-1.3-1.1-1.1s-0.2,1,0.2,1.5C104.4,313.5,104.9,313.2,104.3,311.5z M44.1,308.3
			c1.2-1.5,1.2-1.5-0.9-0.5c-2.3,1.2-2.9,2.1-1.4,2.1C42.7,309.7,43.5,309.1,44.1,308.3z M57.9,307.8c0-0.4,0.8-0.5,1.9-0.3
			s3.6-0.8,5.6-2.3l3.8-2.7l-4.9-0.5c-2.7-0.3-6.5-0.5-8.6-0.5c-2.8,0-3.4-0.3-2.6-1.2c0.6-0.7,0.8-1.3,0.5-1.3s-2,2.1-3.7,4.6
			c-1.9,2.8-2.5,4.4-1.6,4s1.7-0.3,2,0.1C50.9,308.7,57.9,308.7,57.9,307.8L57.9,307.8z M55.3,306.1c2-2.3,2.6-2.6,2.6-1.4
			c0,0.4-1,1.4-2.3,2.1C53.4,308.3,53.4,308.3,55.3,306.1L55.3,306.1z M49.9,306.5c0-0.3,1-1,2.3-1.7c2-1.1,2.1-1,0.9,0.5
			S49.9,307.6,49.9,306.5z M84.5,299.9l2.9-3.1l-2.5,0.7c-2.4,0.6-2.4,0.6-0.6-0.9c1.1-0.9,1.5-1.6,0.9-1.6c-1.4,0-3.5,2.5-2.7,3.3
			c0.3,0.3,0.1,1.5-0.5,2.7C80.4,303.8,81.1,303.6,84.5,299.9L84.5,299.9z M68.4,299.4c2.2-0.1,4.5-0.3,6.7-0.6
			c2.9-0.6,3.3-1.8,0.7-1.8c-1.3,0.1-2.5-0.3-3.5-1c-1.5-1.5-7.4-1.5-8.3,0c-0.4,0.7-1.2,0.9-1.9,0.6c-0.6-0.4-2.6,0.1-4.4,1.1
			c-2.6,1.4-2.9,1.8-1.5,2.1c1.5,0.1,2.9-0.5,4-1.5c1.4-1.2,1.8-1.3,0.9-0.2c-1.4,1.8-0.6,3.2,1.2,2.2
			C62.9,299.9,65.7,299.5,68.4,299.4L68.4,299.4z M64.9,298.8c0-0.3,0.7-1.1,1.5-1.8s1.5-1,1.5-0.7c-0.3,0.7-0.9,1.3-1.5,1.7
			C65.6,298.7,64.9,299,64.9,298.8L64.9,298.8z M112.9,299.6c-0.4-0.6-0.9-1.2-1.5-1.6c-1.3-1.1-1.4-1-0.9,0.4
			S112.9,300.8,112.9,299.6L112.9,299.6z M80.3,293.7c1.9,0,2.4-0.3,1.5-0.9c-2.4-1.3-5.3-1-7.4,0.7c-1.9,1.5-1.8,1.5,0.6,0.9
			C76.7,294,78.5,293.8,80.3,293.7z M72.4,293c0.3-0.6-0.5-1-1.9-1s-2.6,0.5-2.6,1s0.9,1,1.9,1C70.8,294.1,71.8,293.7,72.4,293z
			 M77.9,276.5c0-0.8-0.4-1.5-1-1.5s-1,0.7-1,1.5s0.4,1.5,1,1.5S77.9,277.4,77.9,276.5L77.9,276.5z M85.4,276
			c-0.3-0.9-0.1-1.8,0.6-2.5c1-1.2,0.9-1.5-0.3-1.5c-0.7,0-1.5,0.2-2.1,0.6c-0.7,0.6,1,4.4,1.9,4.4C85.8,277,85.8,276.6,85.4,276
			L85.4,276z M71.2,270c-1.3-1.3-2.8,0.5-1.8,2.2c0.5,0.8,1,0.8,1.8,0C71.7,271.7,71.3,270.7,71.2,270L71.2,270z M92.9,272.1
			c0-1.4-1.8-2.3-2.4-1.2s0.3,2.1,1.6,2.1C92.6,273,93,272.5,92.9,272.1L92.9,272.1z M81.9,267.2c0-3-1.6-5.9-2.6-4.9
			c-0.4,0.4-0.2,1.3,0.5,2.1c0.8,1,0.9,2.2,0.1,4.1c-1.4,3.6-1.3,4,0.5,2.5C81.4,270,81.9,268.6,81.9,267.2z M84.9,270.5
			c0-1.2-1.9-1.2-2.3,0c-0.4,1-0.1,1.3,0.9,0.9C84.3,271.1,84.9,270.7,84.9,270.5z M76.3,265.8c-0.3-0.5-1-0.5-1.5,0.1
			c-0.6,0.6-0.7,1.5-0.3,2.2C75,269,75.4,269,76,268C76.4,267.3,76.5,266.5,76.3,265.8z M91.9,259.8c0-1.2-1.5-0.9-1.9,0.4
			c-0.2,0.6,0.1,1,0.8,0.8S91.9,260.2,91.9,259.8L91.9,259.8z M86.9,256.8c0-1.2-1.5-0.9-1.9,0.4c-0.2,0.6,0.1,1,0.8,0.8
			S86.9,257.2,86.9,256.8L86.9,256.8z M78.9,238.1c0-0.6-0.4-1-1-1s-1,0.4-1,1s0.4,1,1,1C78.5,239.1,78.9,238.6,78.9,238.1
			C78.9,238,78.9,238,78.9,238.1L78.9,238.1z M69.4,236.1c-0.3-0.6-1-0.7-1.6-0.4c-1.4,0.9-1.1,1.5,0.6,1.5
			C69.4,237.1,69.8,236.6,69.4,236.1L69.4,236.1z M74.1,233.9c-0.9-0.9-1.2-0.7-1.2,1.2s0.3,2.1,1.2,1.2S75.1,234.8,74.1,233.9
			L74.1,233.9z M62.8,231c-0.6-0.5-1.5-0.3-2,0.3c0,0,0,0,0,0c-1.1,1.8,0.2,3,1.8,1.6C63.7,232,63.8,231.6,62.8,231L62.8,231z
			 M78.9,232.2c0-0.5-0.9-1.1-2-1.4c-2-0.5-2.6,0.3-1.3,1.6C76.6,233.4,78.9,233.2,78.9,232.2z M84.9,229.4c0-0.2-0.7-0.4-1.5-0.4
			c-0.9,0-1.5,0.8-1.5,1.6c0,1.3,0.3,1.4,1.5,0.4C84,230.6,84.6,230.1,84.9,229.4L84.9,229.4z M70.2,228.7c0.1-0.5-0.3-1.1-1-1.3
			s-1.3,0.3-1.3,1.3C67.9,230.3,69.7,230.3,70.2,228.7z M77.9,226c0-0.5-0.5-1-1-0.9c-0.6,0-1,0.7-1,1.6s0.4,1.3,1,0.9
			C77.5,227.2,77.9,226.6,77.9,226z M64.4,224.2c0.3-0.5-0.1-1.1-0.9-1.4c-0.8-0.3-1.7,0.1-2,0.9c0,0,0,0,0,0
			C60.9,225.2,63.4,225.6,64.4,224.2L64.4,224.2z M73.4,224.1c-0.3-0.6-0.8-1-1.1-1s-0.4,0.4-0.4,1c0,0.6,0.5,1,1,1c0,0,0,0,0,0
			C73.6,225,73.8,224.6,73.4,224.1L73.4,224.1z M69.9,223.1c0-0.6-0.4-1-1-1c0,0,0,0-0.1,0c-0.6,0-0.8,0.4-0.4,1s0.8,1,1.1,1
			S69.9,223.6,69.9,223.1L69.9,223.1z M82.4,221c-0.4-0.5-1.1-0.6-1.6-0.2c-0.4,0.3-0.6,0.9-0.3,1.4c0.3,0.5,1,0.7,1.5,0.4
			C82.5,222.2,82.7,221.5,82.4,221C82.4,221,82.4,220.9,82.4,221L82.4,221z M76.9,221.1c1.3-0.8,1.3-1-0.2-1c-0.9,0-1.7,0.3-2.3,1
			C73.7,222.3,75,222.3,76.9,221.1z M66.9,198.1c0-0.6-0.4-1-1-1s-1,0.4-1,1s0.4,1,1,1C66.5,199.1,66.9,198.6,66.9,198.1
			C66.9,198,66.9,198,66.9,198.1L66.9,198.1z M61.9,194.1c0-0.6-0.7-1-1.5-1s-1.5,0.4-1.5,1s0.7,1,1.5,1S61.9,194.6,61.9,194.1
			L61.9,194.1z M75.9,194.1c0-0.6-0.5-1-1.1-1c-0.8,0-0.8-0.4,0-1.4c1.2-1.4,0-3.1-1.3-1.9s-0.6,5.3,0.9,5.3
			C75.2,195.1,75.9,194.6,75.9,194.1L75.9,194.1z M68.2,190.6c0.1-0.5-0.3-1.1-1-1.3s-1.3,0.3-1.3,1.3
			C65.9,192.3,67.7,192.3,68.2,190.6z M54.9,189.5c0-0.3-0.5-0.4-1-0.4c-0.6,0-1,0.4-1,1c0,0,0,0,0,0.1c0,0.6,0.5,0.8,1,0.4
			S54.9,189.7,54.9,189.5L54.9,189.5z M64.7,188.9c1.7-1.6,1.5-3.8-0.3-3.8c-1.3,0-3.5,2.8-3.5,4.4
			C60.9,190.5,63.5,190.1,64.7,188.9z M79.9,186.6c0-0.8-0.4-1.5-1-1.5s-1,0.7-1,1.5s0.4,1.5,1,1.5S79.9,187.4,79.9,186.6
			L79.9,186.6z M51.7,182.5c-1-0.9-2.9,0.6-2.2,1.7c0.4,0.7,1,0.7,1.7-0.1S52,182.8,51.7,182.5z M56.9,184c0-0.6-0.4-1-1-1
			s-1,0.4-1,1s0.4,1,1,1S56.9,184.6,56.9,184z M71.7,182.4c-1-0.9-2.9,0.6-2.2,1.7c0.4,0.7,1,0.7,1.7-0.1S72,182.8,71.7,182.4z
			 M71.3,150.2c0.2-0.7,0.1-1.5-0.3-2.1c-1.1-1.7-3.1-0.5-2.4,1.5C69.2,151.2,70.6,151.5,71.3,150.2L71.3,150.2z M56.9,143.9
			c0-1.2-2.7-1.1-3.5,0.1c-1.1,1.7,0.5,3.2,2.1,1.9C56.2,145.5,56.7,144.8,56.9,143.9L56.9,143.9z M79.8,142.9
			c1.2-1.8,1.1-2-0.5-1.7c-1,0.2-1.9,1-2.1,2.1C76.7,145.6,78.1,145.4,79.8,142.9L79.8,142.9z M60.4,143c-0.3-0.6-0.8-1-1.1-1
			s-0.4,0.4-0.4,1c0,0.6,0.4,1,1,1c0,0,0,0,0.1,0C60.6,144,60.8,143.6,60.4,143z M73.9,141.5c0-0.8-0.4-1.5-1-1.5s-1,0.7-1,1.5
			s0.4,1.5,1,1.5S73.9,142.4,73.9,141.5L73.9,141.5z M63.9,139.6c0.7-0.9,0.8-1.6,0.2-2c-1.6-1-4.1,0.5-3.5,2
			C61.3,141.4,62.4,141.4,63.9,139.6z M71.5,132.2c-0.9-0.9-3.6,1.9-3.5,3.7c0,1.3,0.5,1.1,2-0.8C71.1,133.8,71.8,132.5,71.5,132.2
			L71.5,132.2z M64.8,114.9c1.2-1.8,1.1-2-0.5-1.7c-1,0.2-1.9,1-2.1,2.1C61.7,117.6,63.2,117.4,64.8,114.9z M75.7,114.4
			c-1-1-2.9,0.6-2.2,1.7c0.4,0.7,1,0.7,1.7-0.1S76,114.8,75.7,114.4z M83.7,113.3c-0.3-1-1.1-1.9-2.2-2.1c-1.6-0.3-1.7,0-0.7,1.7
			C82.2,115.4,84.2,115.7,83.7,113.3z M79.3,109.6c1.3-4.7,0.7-6.6-1.9-6.6c-3,0-3.1,0.4-0.5,3.2c2.2,2.4,1.9,3.8-0.4,1.9
			c-1.2-1-1.7-0.8-2.5,0.8c-1.5,2.8-1.4,2.8,1.9,2.8C78,111.7,78.9,111.1,79.3,109.6z M70.9,106c0.8-0.5,1.2-1.2,0.8-1.6
			c-0.9-0.9-3.8,0.2-3.8,1.5S68.9,107.3,70.9,106L70.9,106z M85.9,105.1c0-1.3-2.6-3.2-3.3-2.5c-1,1,0.4,3.4,1.9,3.4
			C85.3,106,85.9,105.6,85.9,105.1z M74.2,98.9c0.4-2.8,0.3-3-0.9-1.3c-0.7,1-1.8,2.5-2.4,3.2c-0.8,0.9-0.6,1.3,0.8,1.3
			S73.8,101.2,74.2,98.9z M77.5,95.2c-1.5-1.5-1.6-1.4-1.6,0.9c0,3.3,1.1,4.4,2.3,2.3C78.9,97.3,78.7,96.3,77.5,95.2z M68.4,95
			c0.3-0.6,0-1-0.7-1c-1.5,0-3.8,1.9-3.8,3.2C63.9,98.2,67.6,96.4,68.4,95L68.4,95z M73.2,86.8c-1.5-1.5-2.7-0.4-1.8,1.8
			c0.5,1.3,0.9,1.4,1.8,0.5S74.1,87.7,73.2,86.8L73.2,86.8z M61.4,86.1c0.7-1.1-2.2-2.3-3.5-1.5c-0.5,0.3-0.7,1-0.4,1.5
			c0.9,1.1,2.6,1.2,3.7,0.2C61.2,86.2,61.3,86.2,61.4,86.1L61.4,86.1z"/>
	</g>
</g>
</svg>
