<svg xmlns="http://www.w3.org/2000/svg" viewBox="0 0 145.09 525.09"><defs><style>.cls-1{fill:#2a231d;}</style></defs><title>coffee_3</title><g id="Layer_2" data-name="Layer 2"><g id="Layer_1-2" data-name="Layer 1"><path class="cls-1" d="M83.6,519.81a29.61,29.61,0,0,0-1-10.78c-1.16-4-1.34-6.55-.67-9.45.5-2.17.76-4.19.57-4.5-1.23-2-1.36-12.31-.2-15.68a22.38,22.38,0,0,0,.91-8c-.32-3,.25-5.43,2.15-9.19,2.46-4.85,2.52-5.37,1.31-10.7l-1.27-5.61-6,5.19c-3.28,2.86-7.33,6.71-9,8.55-3.67,4.09-4.93,4.28-4,.62.73-2.83,1.53-22.25.92-22.25-.19,0-2.94,1-6.13,2.22-4.58,1.75-7.39,2.15-13.48,1.9-6.54-.27-8.52.06-13.25,2.22-3,1.4-5.55,2.32-5.55,2.05A19.61,19.61,0,0,1,30.44,443c1.11-2.14,1.58-6.78,1.75-17.24l.24-14.31-6.44.78A64.51,64.51,0,0,0,16.46,414c-2.84.94-11.52,8.76-15,13.52-2.08,2.85-1.87.58.29-3,3.39-5.63,5.14-11.42,6.7-22.21,2-13.44,2.78-16.05,7.07-22.29A57.56,57.56,0,0,0,21,369.62a18.45,18.45,0,0,1,5.24-7.88c1.77-1.36,4.79-3.91,6.72-5.67,2.72-2.5,2.94-2.92,1-1.92-3.6,1.84-4.87,2.12-11,2.43-5.84.28-12.88,1.64-14.83,2.84s-1.32,0,1.75-3.32a16.09,16.09,0,0,0,3.57-6A8.67,8.67,0,0,1,15.48,346a3.42,3.42,0,0,0,.84-3.5c-.61-2.44,4.62-13.28,7.09-14.69.72-.41,2.29-2.66,3.5-5,2.58-5,5.85-8.76,7.62-8.76.69,0,2.2-1.32,3.34-2.93a23.54,23.54,0,0,1,5.82-5.21,21.62,21.62,0,0,0,5-4c1.62-2.22,6.87-6,8.74-6.25a4.51,4.51,0,0,0,2.13-.91,3.67,3.67,0,0,1,2.2-.69,6.65,6.65,0,0,0,3.44-1.75c1.62-1.47,3.88-1.75,13.83-1.72,6.54,0,11.9-.27,11.9-.64a53.9,53.9,0,0,0-1.64-5.73c-1.9-5.87-4.24-6.87-8.66-3.72-3.22,2.3-6,1.32-6.52-2.3-.26-1.7-1-2.14-3.69-2.14-2.51,0-3.52-.52-4-2-.66-2.07,1.75-7,3.42-7,.47,0,1.1-.9,1.39-2,.35-1.35,1.36-2,3.08-2,4.23,0,4.85-2.76,2.58-11.45-1.11-4.21-1.7-8.15-1.33-8.76s.23-.82-.36-.46-1.29-.31-1.59-1.48c-.51-2-.68-2-2.19-.48-2.09,2.09-2.68,2-5.76-.37a9.22,9.22,0,0,0-3.93-2,4.32,4.32,0,0,1-2.59-1.2c-1.44-1.44-1.6-6.44-.24-7.28.53-.33.71-1.88.4-3.44a8.85,8.85,0,0,1,.63-5.07c1-1.94,1.73-2.15,5.19-1.6l4,.64-.55-3.78c-.3-2.07-.83-5.69-1.18-8C67,205.44,66.25,204,65.24,204a2.48,2.48,0,0,1-2-1.95,3.48,3.48,0,0,0-3.06-2.25,5.34,5.34,0,0,1-3.64-2.29,12.81,12.81,0,0,0-2.85-3.31,5.24,5.24,0,0,1-1.75-3.76c0-1.34-.34-2.39-.75-2.33-3.36.53-5.07-2.71-3.24-6.14,1-1.84,1.8-2,6.7-1.64,3.67.29,5.89,1,6.46,2a2,2,0,0,0,2.32,1c1.18-.45,1.42-4,1.37-19.89-.05-16.15-.29-19.25-1.46-18.8a2.19,2.19,0,0,0-1.4,1.78c0,1.77-3.06,4.28-6.17,5.06-4.88,1.21-6.72-6.06-2.33-9.22,1.37-1,3.93-3,5.68-4.54S63,135,63.88,135c1.1,0,2-1.64,2.83-5.25.68-2.89,1.53-6.33,1.88-7.65.59-2.21.43-2.34-2.1-1.71-3.51.88-5.56-.78-5.56-4.49a5,5,0,0,1,2.49-4.49c1.37-.9,2.21-2.08,1.88-2.62s.41-2.36,1.65-4l2.26-3.06L67,102.3c-3.08.8-6.42-2.6-5.48-5.57.82-2.59,3.24-4.63,5.56-4.67,1.16,0,1.5-.63,1.14-2-.63-2.39-1.61-2.54-3.29-.5-2.83,3.4-11,.9-11-3.37,0-4.84,7.61-5.81,10.83-1.38l2,2.75,2.58-2.42c2.16-2,2.94-2.24,5-1.33,2.36,1.08,2.4,1,5.62-11.51C81.7,65.35,83.53,56.72,84,53.1S86,40,87.31,32s2.62-16.52,2.78-19c.29-4.35.16-4.56-3.93-6.82C82.51,4.2,82.07,3.62,83,2,85-1.8,88.33-.34,96.81,8c8.13,8,9.49,10.05,6.53,10.05-.87,0-1.42-.48-1.23-1.07C102.63,15.42,88.89,2,86.8,2a3.07,3.07,0,0,0-2.37,1c-.33.55,0,.76.77.46s4.39,2.29,8.55,6.17c7.33,6.83,10.19,11.24,3.47,5.34l-3.7-3.25-.72,2.66c-.39,1.46-1.23,6.82-1.86,11.9C88.34,47.05,79,89.6,76.56,91.37c-.72.54-.52.65.53.31a1.78,1.78,0,0,1,2.28,1.06c.54,1.4.78,1.36,2-.3,1.68-2.29.94-4-1-2.34-1,.8-1.41.83-1.41.08,0-2.85,6.83-3.62,7.11-.8s-.35,5.22-1.51,6.15c-1.51,1.2-2.86,5.77-1.45,4.9,1.68-1,5.75.54,6.89,2.68.85,1.6.73,2.61-.55,4.56-.91,1.39-1.38,3.22-1,4.08,1.37,3.57-5,8.72-7.86,6.35-1-.82-1.64-.71-2.57.41A5.33,5.33,0,0,1,74.28,120c-2.43,0-3.29,1.32-4.73,7.25-.59,2.44-.38,2.75,1.82,2.75,2.65,0,4.84,2.86,4.35,5.65-.19,1.06.76,2,2.71,2.63,4.54,1.49,5.63,2.75,5.3,6.13-.28,2.8-.67,3.12-4.15,3.4-3.2.27-3.77.64-3.36,2.19a5.68,5.68,0,0,1-1,3.94c-1.12,1.59-2.08,1.91-4.14,1.39a7.54,7.54,0,0,1-3.69-2c-1.24-1.66-2,16.63-1,23.93.62,4.54.79,4.77,2.4,3.32,2.29-2.08,4.39-2,6.47.33a4.1,4.1,0,0,0,3.5,1.42c2.2-.57,5.1,2.14,5.1,4.77a5.81,5.81,0,0,1-2,3.65,6,6,0,0,0-2,3.92c0,4.66-6.69,7.35-9,3.6-.85-1.4-.93-1.18-.41,1.1.43,1.91.2,3.14-.7,3.69-1.09.68-1.14,2.25-.24,8.45.6,4.19,1.33,7.85,1.62,8.14s1.48,0,2.64-.61,4.25-1,6.84-.83l4.72.31,0,4c0,2.78.59,4.49,2,5.63,1.7,1.41,1.81,2,.78,4.25A4,4,0,0,1,85,235c-1.49,0-2,.65-2,2.5,0,2.38-2.52,5.82-4.85,6.62-.78.27-.7,2.06.25,6.17a31.27,31.27,0,0,0,2,6.41c.34.33,1.72-.59,3.08-2.05,2.92-3.15,3.89-3.27,6.27-.76a8.4,8.4,0,0,0,3.68,2.25c5,.94,4.45,6.58-.77,8-3,.81-9.11-1.24-10-3.35-.33-.82-.54-.68-.6.4,0,.92,1.06,3,2.46,4.68,2.11,2.52,3.06,2.92,5.76,2.49,2.42-.4,3.69,0,5.06,1.49,2.65,2.94,1.37,6.17-2.45,6.17-1.77,0-3.21.63-3.57,1.56-.62,1.63,4.32,9.32,6.8,10.58.75.38,3.39,1.63,5.87,2.78,6.94,3.22,11.35,5.88,13,7.84a31.21,31.21,0,0,0,4.74,4.07,25.13,25.13,0,0,1,5.76,6.58,32.55,32.55,0,0,0,4.61,6.19,24.67,24.67,0,0,1,4.11,5.9,56.42,56.42,0,0,0,4.33,7.1c2.65,3.54,6.61,17.87,6.61,23.93a38.11,38.11,0,0,1-2.08,10c-1.15,3.26-2.13,6.17-2.18,6.46s-.49-.59-1-2c-.65-1.87-.73-1.46-.33,1.64.44,3.39,0,5.14-2.58,9.66-4,7.06-5.39,15.08-3.33,19.06.93,1.8,1,2.59.29,2.13s-2.44-3.4-4-6.66l-2.81-5.92-1.54,4.29c-4.28,11.88-5.1,16.42-5.12,28.39,0,8.71-.42,12.56-1.4,13.74a5.84,5.84,0,0,0-.84,4.41c.28,1.51.84,4.42,1.23,6.44.61,3.14.35,4-1.73,6-3.52,3.33-3.89,5.13-2.23,10.72,1.37,4.61,1.33,5.35-.52,10.23-1.72,4.51-1.91,6.7-1.38,15.35l.61,10.08-6.27,7.27c-3.9,4.52-8.06,8.17-11,9.67-2.61,1.32-5,3-5.28,3.79s-2.34,2.83-4.55,4.58l-4,3.19.54-5.28Zm4.23-8.09c0-1-.28-1.58-.74-1.3s-.83-.16-.83-1,.57-1.28,1.58-.9c1.27.48,1.34.35.34-.65A5,5,0,0,1,87,504.58c.12-2,.13-2,.63-.05.39,1.55,1,.82,2.84-3.28,1.28-2.91,2.2-5.83,2-6.5s-.09-.82.17-.33c.47.89,2.32-2.87,3.67-7.46l.72-2.43L95.32,487a32.67,32.67,0,0,1-3.84,4.35c-1.13,1-1.94,2.26-1.8,2.75s-.09.78-.5.65-1.87.86-3.24,2.23c-2.91,2.91-3.19,7.55-1,15.82,1.19,4.42,1.54,4.92,2.09,3a24.71,24.71,0,0,0,.75-4.11ZM88,500.61c0-1.06.2-1.65.53-1.31a2,2,0,0,1,.08,1.91c-.32.8-.56.56-.61-.6Zm8.75,10.56c1.18-1,1.87-2.12,1.54-2.44s-.09-2.06.53-3.84.77-3.6.23-4.14-1.62,1.26-2.66,4.44c-1,2.93-2,5.9-2.22,6.59-.64,1.73.09,1.56,2.58-.61Zm-3.89-7.36c3.23-10.57,3.39-11.76.94-7.28-1.89,3.46-4.83,12.4-4.86,14.8,0,2.66,2-1.27,3.92-7.52Zm17.45-10c-.45-5.24-1.26-7.82-2.45-7.82-1.67,0-1.58,9.25.09,9.83.54.18.72,1.53.41,3-.52,2.44-.45,2.52.86.91.9-1.1,1.31-3.32,1.09-5.92ZM87.94,489c0,.82.93-.53,1.94-3,1.82-4.47,1.84-4.48,2.23-1.5s.4,3,1.54-1c.63-2.2,1.61-5.58,2.19-7.5l1-3.5-.53,4c-.29,2.2-.76,4.9-1,6-.38,1.48-.27,1.64.44.62.52-.76,1.34-1.14,1.81-.85s.9-.88.94-2.62.43-7.43.87-12.65l.81-9.5-3.65,4a89.15,89.15,0,0,0-6.37,8,41.73,41.73,0,0,1-3.86,5c-1.2,1.06-3.42,7.07-3.3,8.89,0,.61.67-.47,1.38-2.39s1.81-3.39,2.43-3.25,1.12-.12,1.12-.56a7.09,7.09,0,0,1,1.57-2.75c.87-1.07,1.24-1.27.84-.44s-.36,1.15.18.67a14,14,0,0,0,2.08-4l1.17-3.17.08,3.36c.06,2.5-.91,4.54-3.79,8C84.94,485,82.9,489.21,83.63,492c.57,2.19.68,2.14,2.41-1.1,1-1.86,1.85-2.71,1.9-1.88Zm7.6-18a24.28,24.28,0,0,0,1.46-5c.69-3.52.7-3.52.81-.48a8.64,8.64,0,0,1-1.46,5c-.86,1.07-1.23,1.29-.81.48Zm10.31,16.88c1.11-5.2.39-9-1-5.35-.56,1.43-.8.89-.92-2.06-.15-3.52-.27-3.7-1-1.5a24.33,24.33,0,0,0-.83,6c0,2.89.12,3.15.88,1.5s.89-1.37.83,1.5c-.17,6.84.56,6.81,2-.09Zm-4.26-11.16c-.28-.69-.51-.13-.51,1.25s.23,1.93.51,1.25A3.83,3.83,0,0,0,101.59,476.78Zm7.66-15.5a36.27,36.27,0,0,0-4-5.25c-.2,0-.34,2.58-.3,5.75l.08,5.75,1.35-3.5,1.34-3.5.08,4.3c0,2.37.47,4.07,1,3.77,1-.6,2,2.42,2.23,6.43.07,1.37.51,0,1-3,.79-5.27.68-5.72-2.75-10.75Zm-22.07,4.5c1.24-2.5,1.63-2.79,1.69-1.25,0,1.18,1.12-.25,2.63-3.5a37.25,37.25,0,0,1,5.08-8.16c1.4-1.46,2.36-3.47,2.15-4.5-.28-1.37-1.4-.31-4.34,4.16-2.18,3.3-4.21,6.22-4.51,6.5a40,40,0,0,0-5.26,8.25c-1.1,3,.87,1.89,2.56-1.5Zm6.73-5.56c0-1.46-.15-1.49-1-.19-1.27,2-1.27,3.28,0,2.5a2.93,2.93,0,0,0,1-2.31Zm4-5c0-2-.24-2.23-1.5-1.18-.83.68-1.49,2.65-1.47,4.37,0,3,.1,3,1.5,1.18A8.52,8.52,0,0,0,97.93,455.21Zm3-4.6a26,26,0,0,1,.64-6.25c.44-1.25.32-1.51-.38-.83-1.29,1.24-2.28,11.5-1.12,11.5.47,0,.86-2,.86-4.42Zm-7.87-4.17c.34-1.6.7-2.46.79-1.91s.78-.35,1.54-2c1.35-3,1.38-3,1.53-.5s.22,2.32,1.33-.68c1.46-4,2.68-5.24,2.68-2.82,0,2.72,1.06,1.15,2-2.92l.8-3.57-3.14,2.18c-4,2.78-13.64,12.54-13.64,13.83s1.74,1.2,2.33-.27c.29-.72.54-.47.59.58.12,2.8,2.49,1.38,3.21-1.92Zm25.26,1c.71-1.84-.15-3.69-1.36-2.94-.45.28-1.12-.66-1.48-2.1q-1.1-4.36-2,.54c-.25,1.3.17,2.41,1,2.74a2.34,2.34,0,0,1,1.46,1.95c0,1.9,1.64,1.77,2.39-.19Zm-35.08-6.16c1.43-2.89,2.26-5.25,1.84-5.25-.87,0-5.15,8.47-5.15,10.19,0,1.57.34,1.06,3.31-4.94Zm29.69-2.44c0-3.95-1.68-2.71-2.19,1.63-.32,2.74-.13,3.24.89,2.38.71-.59,1.3-2.39,1.3-4Zm-33.14-9.66c-1.64-.61-3.51,1.71-4.77,5.94-.68,2.26-1.49,4.85-1.8,5.76s1.26-1.28,3.48-4.85,3.61-6.66,3.09-6.85ZM36.9,437.46c0,.52,1.38-.35,3-1.93s3-3.36,3-3.94-1.35.51-3,2.44-3,3.05-3,2.5c0-1.5,5-6.83,5.67-6.12s4.28-2.25,4.28-3.52c0-1.12-5-.46-7.78,1-3,1.63-4.95,4.85-5.72,9.63l-.65,4,2-2.5c1.13-1.38,2.06-2.08,2.07-1.57Zm19.72,1.91c.35-.91.18-3.88-.37-6.59a22,22,0,0,1,.26-10.45,35.41,35.41,0,0,1,1.6-5.69c.17-.1,1.2-.84,2.27-1.65,1.74-1.3,1.7-1-.36,2.34-2.41,3.95-2,6.66.49,3.25.78-1.06,1.42-1.47,1.42-.9a6,6,0,0,1-2,2.85,6.18,6.18,0,0,0-2,3.9c0,2,.11,2,2.08-.4,1.14-1.38,1.74-1.83,1.33-1a19.7,19.7,0,0,1-2.18,3.18c-.8.93-1.14,2.19-.76,2.81.48.77,1.18.55,2.21-.68,1.16-1.41,1.14-1.2-.1.9a11.45,11.45,0,0,0-1.6,4.44c0,1.55.17,1.53,1.8-.22,3.19-3.44,3.7-5.74,3.7-16.94,0-6,.36-11.9.82-13,.82-2,.82-2-.79,0C61,409.81,51.33,423.7,49.62,426.78c-2,3.69-.8,4.4,1.75,1,.92-1.24.53-.15-.88,2.42-3.08,5.63-3.33,8.3-.44,4.83,2-2.44,2-2.41-.06,1.17l-2.14,3.68,2.29.43c4.55.88,5.86.69,6.48-.94Zm53.92-6.92c-1.12-2.91-2.58-.34-2.19,3.87a45.29,45.29,0,0,0,.58,4.71c.53,1.3,2.12-7.23,1.61-8.58Zm-66.93,6.79c1.47-.93,3.56-6.21,2.47-6.21-.85,0-4.37,3.63-5.56,5.75-.79,1.38,1.19,1.67,3.09.46ZM74,433.53c.94-1.84.91-1.86-.38-.27-.77.95-1.7,1.44-2,1.08s-.65.44-.64,1.77c0,2.56.77,1.92,3.07-2.58ZM74,428.76c1,.28,6-5.92,6-7.51,0-1.3-4.85-.6-6.75,1-2.45,2-2,.3,1-3.7,2.39-3.21,2.85-3.51,2.31-1.5-.65,2.44-.6,2.42,2-.5,1.86-2.09,2.46-2.41,2-1.06-.65,1.92-.64,1.92,1.48,0S87.42,408,86.36,408a12.85,12.85,0,0,0-3.28,1.84,30.73,30.73,0,0,1-7.37,3.21c-4.15,1.2-4.65,1.63-4.15,3.62.35,1.39-.24,3.57-1.53,5.66-2.52,4.07-2.64,5.08-.53,4.27,1.31-.5,1.48-.05,1,2.65-.6,3.12-.56,3.17,1,1.25.89-1.1,2-1.9,2.51-1.77Zm0-1.43a6.1,6.1,0,0,1,1-2.3c.83-1.3,1-1.27,1,.19a2.93,2.93,0,0,1-1,2.31C74.38,427.87,73.93,427.78,73.94,427.33Zm45,3.14c0-.86-.45-1.28-1-.94a2.14,2.14,0,0,0-1,1.55,1,1,0,0,0,1,.95C118.48,432,118.93,431.32,118.93,430.47Zm-83-2.37a15.25,15.25,0,0,1,3.27-4.75l2.07-1.82-1.89,2.93c-1.77,2.74-1.77,2.86-.09,1.92A14.51,14.51,0,0,0,43,422.45c1.06-1.61,1.93-2.45,1.93-1.87a4,4,0,0,1-1.18,2.23c-.65.65-.85,1.52-.44,1.93s2.32-1.05,4.24-3.24c3-3.38,3.25-3.53,1.84-1s-.89,2.17,2.52-1.48c2.69-2.87,3.73-4.62,2.91-4.9a1.3,1.3,0,0,0-1.67.73c-.21.64-.76.92-1.23.64-.82-.51-10.79,2.69-14.23,4.57-1,.52-1.75.73-1.75.45,0-.49,4.23-6.31,8.79-12.1,3-3.76,1.62-.94-1.59,3.34-2,2.71-2.17,3.25-.78,3.25.91,0,3.06-2.26,4.77-5s3.32-4.8,3.58-4.55-.57,2.12-1.83,4.15c-3.5,5.66-.08,3.74,3.81-2.14,1.78-2.71,3.24-4.48,3.24-3.93a13.05,13.05,0,0,1-2,4c-2.3,3.46-2.52,4.63-.75,4,.69-.26,2.53-2.5,4.09-5s3.3-4.48,3.87-4.48.69.5.16,1.29.16.15,1.43-1.25a30.48,30.48,0,0,0,3.39-4.54c1-1.89,1-1.91-.8-.38-1,.89-5.39,2.39-9.66,3.32s-7.58,2-7.35,2.38-1.15.76-3.06.86a14.23,14.23,0,0,0-6,1.85l-2.54,1.66,1.85-3.13c1-1.73,2-2.7,2.18-2.16.49,1.48,3.41.11,6-2.81,2.07-2.34,2.19-2.37,1.21-.33-1.72,3.54,1,2.4,3.83-1.59,1.28-1.83,2.59-3.07,2.91-2.76s-.25,1.48-1.25,2.58c-1.56,1.72-1.59,2-.24,2,.86,0,2.53-1.24,3.71-2.75,1.63-2.11,1.88-2.22,1.05-.5s-.81,2.25.44,2.25c.85,0,1.54-.37,1.54-.81a7.15,7.15,0,0,1,1.58-2.75c1.35-1.66,1.5-1.69,1-.19-.91,2.88,1.05,2,4.33-2,2.82-3.43,2.68-5.7-.23-3.54-.67.5-3.31.88-5.87.85s-4.41.33-4.11.82-.08.65-.84.38-2.26.23-3.31,1.12c-1.72,1.45-1.69,1.2.3-2.38a52.79,52.79,0,0,1,4.27-6.5c2-2.44,2-2.41-.06,1.32-1.92,3.47-2,3.79-.36,3.49,1-.19,2.85-2,4.18-4.08s2.65-3.5,2.93-3.22-.48,1.85-1.69,3.5c-1.7,2.29-1.87,3-.74,3a2.64,2.64,0,0,0,2.06-1,1.62,1.62,0,0,1,1.9-.46,2.61,2.61,0,0,0,2.58-1c.7-.84,1.61-1.33,2-1.07,1,.62,4.66-3.49,5.48-6.2.63-2.1.5-2.16-2.39-1.15a8.49,8.49,0,0,0-4.67,4.48,13.87,13.87,0,0,1-2.51,4c-1.34.83-1-.85.66-3,2.27-3,1.8-3.42-2.67-2.41-2.27.51-4.31.74-4.54.52s.57-2.06,1.76-4.08,2.4-3.44,2.68-3.15-.06,1.21-.76,2.07-1,1.82-.68,2.16c1,1,5.46-2.41,6.17-4.64.35-1.11,1.11-2,1.69-2s.32,1.1-.57,2.46c-2,3.07-2,3.63-.08,2.88.85-.32,2.23-1.92,3.08-3.56s1.76-2.74,2-2.46,0,1.43-.6,2.57c-.92,1.72-.84,2,.46,1.46a8.42,8.42,0,0,0,3.07-3.51c.82-1.6,1.93-2.64,2.46-2.32s1,.12,1-.47c0-1.26-3.66-1.42-4.42-.19-.3.48-1.62.66-2.94.41l-2.41-.46L75.22,361c2.24-3.24,3.81-6.16,3.49-6.48-1-1-10.09,3.92-11.22,6C64.14,366.73,46.7,393.37,42.93,398c-1.64,2-1.9,2.11-1.35.5.67-2,.64-2-1.41-.16-3.45,3-8,14.84-5,13.05,1-.6,1-.45.17.66C33.82,414,33,419,34.12,419c.51,0,.57.56.14,1.25C33.26,421.86,33,431,34,431c.39,0,1.26-1.32,1.93-2.93ZM36.43,415c.85-1.65,1.77-3,2-3s-.2,1.35-1,3-1.78,3-2.06,3S35.57,416.68,36.43,415Zm33.5-32.89a2.18,2.18,0,0,1,1-1.61c.55-.34,1-.17,1,.38a2.19,2.19,0,0,1-1,1.62C70.38,382.87,69.93,382.69,69.93,382.14Zm-2.47-17.07c2.29-4.25,5.45-8.61,5.46-7.53,0,.56-1.17,2.75-2.61,4.87-2.09,3.07-2.34,4-1.26,4.69s.73.79-.81.67c-2-.15-2-.35-.78-2.7Zm26.27,63.49c.61-1.35.75-2.69.3-3-.67-.42-3.1,3.48-3.1,5s1.84.09,2.8-2Zm-1.84-5c.06-3.11-1.85-.47-2.51,3.48l-.58,3.47,1.53-2.5a11.08,11.08,0,0,0,1.56-4.45Zm24.64,2.72c-.33-.34-.57.25-.52,1.31s.28,1.4.6.6a2,2,0,0,0-.08-1.91Zm-33.69-2.47c3.45-4.7,3.76-5.8,1.61-5.8-1.45,0-3.61,3.37-5,7.75C78.47,429.07,79.37,428.55,82.84,423.83Zm18.61-.61a10.82,10.82,0,0,1-.62-2.53c-.15-1.66-1.69,3.43-1.77,5.84-.07,2-.06,2,1.42,0a4.23,4.23,0,0,0,1-3.33Zm14.48.86a1.92,1.92,0,0,0-.84-1.45c-.46-.28-.83.14-.83.94s.37,1.46.83,1.46A.91.91,0,0,0,115.93,424.08ZM98.44,420c1-2,1.25-3.57.66-4.62-.72-1.3-1.1-1-2,1.67-2.12,6.08-1.23,8,1.37,2.95Zm9.52-1.38c0-.6,2-2.61,4.5-4.46s4.47-4,4.47-4.82a5,5,0,0,1,1.45-2.91c1.92-1.92,1.75-17.07-.19-17.07-.8,0-1.24,1.32-1.19,3.58,0,2.82.24,3.16.86,1.58.5-1.26.74.29.64,4.21-.09,3.42-.47,6.53-.86,6.92s-.71-.29-.71-1.52-.44-1.95-1-1.58-.82-.27-.39-1.94c.35-1.42.22-2.59-.3-2.59-1.72,0-3.27,5-3.27,10.49s-1.56,8.47-2.21,4.28c-.32-2.09-.49-2-2.15,1.08-1,1.84-2,3.13-2.26,2.87s.48-2.31,1.65-4.55c1.58-3,1.86-4.53,1.11-5.87-.9-1.6-1.13-1.48-2.17,1.2a40,40,0,0,0-1.5,9.35c-.32,6.2-.29,6.3,1.6,4.59a6,6,0,0,0,2-2.84Zm-18.43-.32c-.33-.34-.57.25-.52,1.31s.28,1.4.6.6a2,2,0,0,0-.08-1.91Zm5.4.13a10,10,0,0,1,1.68-4c1.34-2.05,1.44-2.94.5-4.45-1.56-2.49-1.52-6.91.07-6.92,1.24,0,4-6,5.18-11.27a11.14,11.14,0,0,1,2.49-4.65,11.76,11.76,0,0,0,2.55-5c1-4.66,2.76-5.05,2.09-.46l-.57,3.85,1.46-3c1.67-3.45,1.93-5.5.68-5.5-1,0,.12-6.41,1.77-10,1-2.27,1.1-2.13.67,1.5s-.38,3.86,1,2a5,5,0,0,0,.88-4c-.34-1.11-1-3.36-1.36-5-.67-2.73-.9-2.34-2.56,4.36a67.85,67.85,0,0,1-4.76,12.87c-1.62,3-4.52,9.16-6.44,13.63s-4.6,10.51-5.93,13.41c-2.91,6.35-3.1,8.65-.42,5.22,2.36-3,2.49-2.41.5,2.35-1.71,4.09-2,8.07-.5,7.15a2.68,2.68,0,0,0,1-2.09ZM67.43,416a2.26,2.26,0,0,1,.46-2.48,2.24,2.24,0,0,0,1-1.64c0-.55-.45-.72-1-.38-1.29.79-1.27-.66.06-4.19.88-2.32.83-2.59-.25-1.51-1.43,1.41-2,13.4-.55,12.54.45-.28.56-1.34.24-2.34Zm-54.2-6.75c2.43-3.17,7-9.8,10.1-14.75S30.8,383.16,33,380.28,36.77,375,36.49,375s-2.36,2.47-4.64,5.48-4.52,5.27-5,5-1.14,0-1.54.66-.29.91.43.46,1.16-.26,1.16.29c0,1.38-2,2.46-5,2.73-2.59.22-11.3,3.26-9.58,3.34.52,0,.41.59-.25,1.25a5.18,5.18,0,0,0-1.2,3.21c0,1.7.47,1.47,3.07-1.45s2.53-2.73-.5,1.43S8.84,406,10.33,406a64,64,0,0,0,5.51-6.89,74.14,74.14,0,0,1,6.8-8.25c.93-.75,0,.83-2,3.51s-3.4,5.38-3,6,.3.82-.12.44c-.93-.84-8.55,7.77-8.55,9.66a10.09,10.09,0,0,1-.61,2.94q-1.71,4.46,4.91-4.16Zm61.33,1.19c1.16-1.79,1.9-2.2,2.42-1.35s1.48-.21,2.83-2.88C81,404,82.4,401.85,83,401.47c.82-.5.82-.14,0,1.37a9.08,9.08,0,0,0-1.1,3.18c0,2,2.17-.18,3.66-3.72,1.7-4.08,2.89-3.87,1.33.24-1,2.49-.89,2.64.53,1.46a28.26,28.26,0,0,0,4.16-5.69c1.41-2.41,2.79-4.14,3.08-3.85s0,1.11-.56,1.82A18.43,18.43,0,0,0,92,400.46c-1,2.57-.92,2.73.51,1.54,3.27-2.71,6.53-11,4.33-11a1,1,0,0,0-.86,1.05c0,.59-.42.81-.92.49s-4.79,1.44-9.5,3.89-8.58,4.26-8.58,4a46.51,46.51,0,0,1,3-5.14c2.88-4.54,4.14-4.55,1.94,0-.9,1.85-.71,1.78,1.25-.42a46.8,46.8,0,0,0,3.53-4.5c1-1.62,1.09-1.49.28.85-.53,1.52-.58,2.75-.13,2.75,1,0,3.62-2.91,4.51-5,.35-.82.45-.48.22.75-.57,3.07.12,2.85,4.19-1.34,2.85-2.94,3.39-3.2,2.92-1.41-.55,2.08-.48,2.1,1.29.5A13,13,0,0,0,102.8,383c.94-2.69.88-2.8-.94-1.66-1.06.66-1.93,1.57-1.93,2s-.44.56-1,.23c-1.22-.75-10.4,2-15.24,4.52A26.13,26.13,0,0,1,79.51,390c-.81,0,.66-3.35,2.11-4.82,1.08-1.09,1.31-1,1.31.31,0,2.27,1.91.86,3.17-2.33,1-2.42,1.11-2.48,1.76-.73s.73,1.89,1.45,0c.55-1.44.92-1.58,1.53-.6s1.1,1,2.32-.23c.84-.84,1.88-1.21,2.31-.83s.5-.06.17-1c-.43-1.21-.19-1.54.83-1.15.8.31,1.2,1,.89,1.45s.16.89,1,.89,2-1.12,2.54-2.5,1.17-2.5,1.44-2.5.23.68-.09,1.52c-1,2.59,2.26.63,3.51-2.12,1.51-3.32,1.44-3.62-.61-2.61a7.68,7.68,0,0,1-3.25.72,5.34,5.34,0,0,0-3.19,1.28c-.93.78-2.13,1.14-2.67.8s-1.66.08-2.49.91A5,5,0,0,1,91,378c-.58,0-3.53,1.35-6.57,3-3.66,2-5.52,2.55-5.52,1.69,0-1.59,2.89-5.57,3-4.18s1.79-2.53,1.89-4.28c.12-2.26-3.76.55-5.56,4a24.77,24.77,0,0,0-1.76,8.89c-.06,3.13-.45,6-.86,6.45s-.76,2.81-.78,5.33a11.51,11.51,0,0,1-2,7.08c-2.06,2.63-2.7,7-1,7,.54,0,1.74-1.15,2.66-2.55Zm17.53-3.76,2-3.94L91,405c-1.69,1.21-3.12,2.51-3.16,2.88s-.27,1.76-.51,3.07C87,413,87.1,413.13,88.49,412a21.7,21.7,0,0,0,3.6-5.27Zm11.82,1.62c1.94-4.39,2-8.82.12-6.72-.71.78-3.1,9.17-3.1,10.86s1.13,0,3-4.14Zm-81,1.69c1.57-.83,1.85-2.08,1.73-7.5a58.16,58.16,0,0,0-.33-6.49c-.09,0-1.78,2.7-3.74,6-3.78,6.34-3.78,7.39,0,3.82,1.28-1.19,2.32-1.67,2.32-1.05a2.75,2.75,0,0,1-1.25,1.93,13.45,13.45,0,0,0-2.63,2.55c-1.19,1.51-1.14,1.75.32,1.75a9.17,9.17,0,0,0,3.56-1Zm9.9-6.43c-.26-.26-1.07.52-1.8,1.73-1.27,2.11-1.25,2.13.48.48,1-.95,1.58-1.94,1.32-2.21Zm69.22-.46c.9-2.14,1.3-4.41.9-5.06-.7-1.15-2,1.33-3.52,6.71-1.05,3.72.88,2.51,2.62-1.65Zm11.81-7.1c0-.83-1.08-2.56-2.44-3.85L109,389.84l-1,2.66a15.45,15.45,0,0,0-1,4.84c0,2,.16,2,1.53-.56.82-1.52,1.72-2.75,2-2.75s0,.87-.53,1.93a16.76,16.76,0,0,0-1,6.25l0,4.32,2.41-4.5C112.75,399.55,113.85,396.85,113.86,396Zm-80.61,5.49c.37.28.46.21.19-.15s-.08-1.16.42-1.76c1.42-1.72,1.79-11.13.43-10.87-.69.13-.4-1.34.75-3.7,2.48-5.14,2.38-5.86-.36-2.8a24.49,24.49,0,0,0-5.84,10.22L28,395.53l2.46-3c1.35-1.65,2.46-2.59,2.46-2.08a5.84,5.84,0,0,1-1.52,2.61,15,15,0,0,0-2.47,5.08L28,401.53l2.47-2.81c3.21-3.65,3.19-2.33,0,1.89s-3.23,5.45-.18,2.58c1.28-1.2,2.63-1.95,3-1.67ZM107.85,388c0-1.13-.35-1-1.45.44A8.17,8.17,0,0,0,105,393c.08,2.55.08,2.55,1.45-.44A15.36,15.36,0,0,0,107.85,388Zm8.39,1.9c.66-2.53-.18-5.11-1.42-4.34s-1.17,6.44,0,6.44c.49,0,1.13-.95,1.43-2.1ZM16.17,386.16a9.16,9.16,0,0,1,5-1.68c3.67-.13,8.91-2.38,9.46-4.06.49-1.52-9.37-.56-13,1.26a9.63,9.63,0,0,0-2.75,1.75c0,.19-.68,2.09-1.5,4.22-.88,2.28-1,3.09-.25,2a21.71,21.71,0,0,1,3-3.46Zm26,2.87c.47,0,.54.51.14,1.15s-.27.88.37.49c1.77-1.1,2.38-6,1.32-10.73-.63-2.79-.64-4.77,0-5.37,1.92-1.92.88-2.79-1.14-1-3.15,2.84-4.17,5.31-4.44,10.66-.23,4.69-.17,4.8,1.65,3.15,2.35-2.14,2.46-.76.15,2-.94,1.14-1.08,1.51-.3.82A5,5,0,0,1,42.19,389Zm-3.26-4.26a4.58,4.58,0,0,1,1.5-1.74c.82-.69,1.5-1,1.5-.75s-.68,1.06-1.5,1.75S38.93,385.05,38.93,384.77Zm1.1-5.49c.76-1.24,1.72-2.25,2.14-2.25,1.2,0,.91.55-1.38,2.59s-2.14,1.9-.76-.34ZM19.7,385.46c-.34-.33-1.15.45-1.81,1.73-1.14,2.23-1.12,2.26.61.61,1-.95,1.54-2,1.2-2.34Zm94.67-2.85c.15-1.34-.3-2.25-1.1-2.25s-1.33,1.31-1.31,4.08c0,3.38.21,3.77,1.1,2.25A12.68,12.68,0,0,0,114.37,382.61Zm7,1.81c.37-2,.43-3.84.14-4.14-.62-.62-1.23,1-1.87,5s.95,3.32,1.73-.86Zm9.15.88c-.33-.34-.57.25-.52,1.31s.28,1.4.6.6a2,2,0,0,0-.08-1.91ZM133,374.53c0-1.1-.06-5.72,0-10.25s-.39-8.25-.9-8.25-.67-.92-.38-2c.36-1.36.1-1.94-.78-1.75s-1.49-.6-1.69-1.7c-.29-1.65-.17-1.74.68-.5s1,1.12,1-.7c0-2.48-1.59-4-2.23-2.06-.23.69-.45-.32-.48-2.24s-.21-4.74-.41-6.25l-.36-2.74-1.78,2.24a7.5,7.5,0,0,0-1.43,4.94c.19,1.49,0,2.48-.43,2.22s-.61,1.67-.4,4.3c.53,7,.63,7.16,2,2.83l1.23-4,1.22,4.84a21.78,21.78,0,0,1,.55,7.9l-.67,3.06-1.34-2.94c-1.21-2.69-1.29-2.31-.88,4.56.39,6.62,2.15,15.64,2.37,12.19.15-2.25,2.09-.2,2.09,2.2,0,4,1.47,3.93,2.3-.06a33.39,33.39,0,0,0,.74-5.83Zm-2.06,1.41a8.7,8.7,0,0,0-1-3.91c-.77-1.2-1-1-1,.91,0,1.33-.25,2.18-.54,1.89-.83-.83.68-8.83,1.56-8.29s2.37,10.42,1.57,11.22c-.33.33-.61-.49-.62-1.82Zm.21-12.42c0-1.65.19-2.44.46-1.76a5.59,5.59,0,0,1,0,3c-.25,1-.48.41-.5-1.24Zm-.11-4.91c0-1.06.19-1.65.52-1.31a2,2,0,0,1,.08,1.91c-.32.8-.55.56-.6-.6Zm-4.46-15.12a9.92,9.92,0,0,1-.54-3.3c0-.91.49-.34,1,1.28C127.92,344.63,127.59,346.19,126.55,343.49ZM120,378.9c.79-2.94.81-4.44,0-5.2-.6-.6-1.09-.66-1.12-.13s-.41,2.87-.86,5.2c-1.06,5.46.48,5.56,1.94.13Zm-67.81-2.29c1-1.9,1-2-.61-.67a13.85,13.85,0,0,0-2.83,3.5c-1,1.9-1,2,.61.67A14.07,14.07,0,0,0,52.15,376.61Zm-27.28.53a6,6,0,0,1,2.55-2.48c1.28-.48,1.37-.24.5,1.39-.69,1.28-.71,2-.06,2s1.48-.9,2.07-2,1.56-2,2.16-2,.66.52-.16,1.5c-1.87,2.25.41,1.81,2.48-.47,1-1.09,2.2-1.72,2.71-1.41s3.49-1.84,6.62-4.79c6.41-6,19.38-15.83,21-15.83,1.13,0,5.2-4.74,5.2-6.07s-8.27-2.6-11.9-1.81a12.37,12.37,0,0,0-5.5,3l-2.1,2.24,3-1.85c2.6-1.6,2.82-1.62,1.61-.15-2,2.42-.51,3.33,1.88,1.16,2.13-1.92,2.85-.75.81,1.29-2.29,2.29,1.17,1.32,5-1.41l3.68-2.61-3,2.61c-1.65,1.43-2.55,2.62-2,2.64s.22.49-.74,1.05c-1.2.7-3,.64-5.79-.2-3.5-1-4.28-1-5.71.43-2.14,2.15-.77,3.49,1.89,1.83,1.58-1,1.88-1,1.29,0s-.27,1.05.89.61c3-1.15,1.76,1.08-1.82,3.28A52.26,52.26,0,0,0,43,366.78c-4.45,5-9,7.53-9,5,0-.5-1.8-.78-4-.62-4.74.34-7-1.26-5.05-3.59,1.73-2.08,3.13-2,2.31.2-.63,1.63-.48,1.62,2.12-.08l2.8-1.84-.73,2.34-.73,2.33,2.24-2a9.23,9.23,0,0,1,4.38-2.17c3.21-.25,5.51-.85,6.29-1.63.38-.38.17-.7-.48-.7-3.08,0,1.86-4.16,5.25-4.42,2.35-.19,1.37-2.47-1.31-3.05-4.56-1-12,.46-14.49,2.85-1.22,1.17-1.48,1.56-.58.87,2.25-1.72,3.48-1.57,2,.25s-.66,1.93,2.18.4c1.5-.79,1.87-.79,1.38,0-1.21,2,1.73,1.17,4.32-1.15l2.51-2.25-2.45,3.12c-1.34,1.72-2.78,2.93-3.19,2.7s-.75,0-.75.52-1.4.64-3.51.16c-1.93-.43-3.74-.4-4,.06a1.76,1.76,0,0,1-2,.28c-1.9-.73-5.58,2.51-5.23,4.6a7.23,7.23,0,0,1-1.47,4c-2.18,3.11-2.2,4.14-.06,3.32,1.27-.49,1.52-.24,1,1-.88,2.3,1,2.12,2.23-.21Zm64-2.18c0,.94,1.1.42,3.15-1.5,2.64-2.48,3-2.59,2-.69-1.85,3.58.63,2.74,3-1l2-3.25-.7,3c-.62,2.6-.51,2.84.8,1.76.82-.68,1.75-1,2.06-.68s1.36-1.27,2.35-3.51,2.16-4.07,2.6-4.07c1.08,0,1,.74-.27,3.15-1,1.82-.88,1.9,1,.89a4.12,4.12,0,0,0,2.08-3.55c0-2.21-.31-2.38-3.25-1.83a42.17,42.17,0,0,0-8,2.83c-2.68,1.25-4.75,1.75-4.75,1.15s-.7-.08-1.56,1.14-2,2.22-2.62,2.22-.74-.41-.08-1.25a13.44,13.44,0,0,0,1.68-4.17c.64-2.65.55-2.79-1-1.54-2.1,1.74-3.49,5.33-4.06,10.46l-.44,4,2-2.5c1.26-1.57,2-2,2-1.06Zm29.27-4.69c-.85-2.29-2.15-1.28-2.8,2.19-.93,5,.61,6.82,2.08,2.51.65-1.9,1-4,.72-4.7ZM51.36,373.9c1.91-1.51,2.61-2.88,2.42-4.75a7.73,7.73,0,0,1,.49-3.88c.43-.68.33-1.25-.22-1.25-1.24,0-2.11,1.36-2.64,4.11a6.44,6.44,0,0,1-1.81,3.26c-1.69,1.37-2.94,4.63-1.77,4.63A11.29,11.29,0,0,0,51.36,373.9Zm-14.43-5.38c0-.82-.45-1.5-1-1.5s-1,.68-1,1.5.45,1.5,1,1.5S36.93,369.35,36.93,368.52Zm3.5-.5c1-1.1,1.58-2,1.31-2a7.76,7.76,0,0,0-2.31,2c-1,1.1-1.59,2-1.31,2A8,8,0,0,0,40.43,368Zm95.47-11c-1.8-3.37-2-1.79-.71,4.61l1.24,5.93.3-4.21a14.4,14.4,0,0,0-.83-6.33Zm-40,3.32c1.44-5.35,3-7.77,3-4.68a5.12,5.12,0,0,1-.87,2.95,10.89,10.89,0,0,0-1.53,3.75c-.66,2.78-.65,2.79,1.87,1.13,1.39-.91,2.53-2.28,2.53-3,0-1.72,3-1.86,3-.14,0,.69,1,.13,2.12-1.25s2.25-2.38,2.46-2.25a1.47,1.47,0,0,0,2.39-1.22c0-1-.84-1.37-2.75-1.13-1.51.19-2.19.15-1.5-.1s1.25-.83,1.25-1.3a5.68,5.68,0,0,1,1.66-2.51c1.37-1.37,1.42-1.82.3-2.51a2.47,2.47,0,0,0-2-.46c-.34.21-.42-1-.19-2.57s.1-3-.32-3c-1.38,0-3.41,3.48-3.44,5.92,0,1.33-.34,2.11-.71,1.73-1-1-7.32,5.43-7.32,7.43a4.43,4.43,0,0,1-1.5,2.92c-1.56,1.3-2.16,6.53-.64,5.59.48-.29,1.44-2.68,2.15-5.31Zm6-4.72c0-1.75.6-2,1.46-.62a1.15,1.15,0,0,1-.44,1.55c-.56.35-1-.07-1-.93Zm-42,6.7c0-.28-.68.06-1.5.74s-1.5,1.47-1.5,1.75.67-.06,1.5-.75A4.68,4.68,0,0,0,59.93,362.28Zm20.68-4c1.41-2.41,2.25-4.69,1.87-5.07s-1.12,0-1.63.79c-2.73,4.39-5.92,10.12-5.92,10.64,0,1.39,3.31-2.31,5.68-6.36Zm4.36-2.1c1.39-2.54,1.82-2.91,1.37-1.19q-1.12,4.29,1.55-.87c.8-1.52.85-2.13.14-1.69s-1.1.18-1.1-.44c0-1.93-1.71-.16-3.9,4a31.52,31.52,0,0,0-2.1,4.56c0,1.34,2.21-1.07,4-4.4Zm42.18.63c-.63-.62-.77,0-.4,1.86.43,2.09.68,2.34,1,1A3.48,3.48,0,0,0,127.15,356.84Zm12.79,2.43c0-1.34.22-1.43.87-.41s.95,1,1.43-.21c1-2.73-1-10.25-3.19-11.9a18.77,18.77,0,0,1-3.51-4.13c-1.67-2.61-2-2.73-2.85-1.14-1.31,2.34-.12,9.33,1.94,11.38,1.75,1.75,1.75,1.85-.3-6.33-.42-1.68-.33-1.75.52-.4.56.88,1.58,4.59,2.27,8.25,1.17,6.15,2.79,9,2.82,4.9Zm-22,0a6.16,6.16,0,0,0-1-2.25c-.78-1.21-1-1.06-1,.75,0,1.24.44,2.25,1,2.25S117.92,359.69,117.91,359.27Zm-93.64-8.1a14.9,14.9,0,0,0,2.88-3.63c.61-1.2-.32-.66-2.28,1.31a31.67,31.67,0,0,1-6.13,4.77c-1.55.8-2.81,1.68-2.81,2C15.93,356.32,22.15,353,24.27,351.17Zm7.6-1.74c2.17-4.61,2-7.68-.26-3.9-1.6,2.72-3.65,9.59-2.69,9,.43-.26,1.75-2.56,2.95-5.1Zm16.06,4.09c.69-.83.8-1.5.24-1.5a4,4,0,0,0-2.24,1.5c-.7.84-.8,1.5-.25,1.5A4,4,0,0,0,47.93,353.52Zm29.25-3.86C80.16,345,80.45,344,79,344c-.54,0-1.9,1.8-3,4s-2.27,4-2.56,4,0-1,.69-2.25c1.08-2,1-2.11-.45-.89-1.76,1.46-2,6.19-.22,5.52.57-.22,2.28-2.35,3.79-4.74ZM19,348.87c.66-1.19.45-1.82-.79-2.3-.93-.36-1.39-.35-1,0s0,1.95-.78,3.5A13.49,13.49,0,0,0,15,353.72c0,.87,2.54-2.16,4-4.85Zm21,3.15c1.29-.83,1.27-1-.19-1a2.93,2.93,0,0,0-2.31,1c-.78,1.27.54,1.27,2.5,0ZM143,345.82a20,20,0,0,1-1.08-5.19c0-1.16-1.18-4.36-2.62-7.11s-3.3-6.28-4.13-7.85c-1-1.9-1.75-2.46-2.24-1.67s-.91.72-1.36-.44-.24-1.4.53-.92.95.15.49-1a12.28,12.28,0,0,1-.67-2.12c0-.61-6.34-3.4-8.5-3.74a16.26,16.26,0,0,1-4.25-1.56c-1.24-.68-2.25-1-2.25-.69,0,.78,2.26,4.72,3.85,6.71a2.88,2.88,0,0,1,.59,2.91c-.48.77-.33,1,.41.5s1.15-.26,1.15.3,1.58,3.61,3.5,6.8c3.87,6.42,4.59,6.45,1.5.07-2.45-5.07-2.47-5.48-.25-3.57a13.64,13.64,0,0,0,3.5,2.12c1,.34,1.75,1.14,1.75,1.78,0,.82-.44.79-1.52-.12-2.07-1.71-2.9-.62-1.5,2a5.93,5.93,0,0,1,.6,3.83A4.22,4.22,0,0,0,131,340c.8,1.16.89,1,.38-.83-.6-2.12-.46-2.23,1.42-1.22s2,.94,1.07-1.56c-1.95-5.13-.29-3.31,2,2.19,1.38,3.32,2.79,5.36,3.52,5.08s1.72,1.44,2.59,4.69c1,3.75,1.48,4.52,1.75,2.85a13.87,13.87,0,0,0-.72-5.4Zm-5-8.21c0-1.06.19-1.65.53-1.31a2,2,0,0,1,.07,1.91c-.31.8-.55.56-.6-.6Zm-1.49-3.44c-1.28-2.07-2.5-6.21-1.68-5.7a9.09,9.09,0,0,1,1.94,3.55c1,2.87.87,4-.26,2.15Zm-7.89-9.66c-.92-1.92-1.46-3.49-1.21-3.49.69,0,3.72,6.13,3.26,6.58-.21.22-1.14-1.17-2.05-3.09Zm-4.54-2c-1.67-3.68-1.35-4.46.46-1.12.85,1.56,1.35,3,1.12,3.26s-.94-.74-1.58-2.14ZM44.22,348.65c.26.26,2.17-.67,4.23-2.08S52.9,344,53.73,344s3.8-1.46,6.59-3.25c4.22-2.71,6.12-3.27,11.42-3.42,6-.15,6.51-.37,8.79-3.5a126.88,126.88,0,0,1,10.36-10.93l7.93-7.6-1.4-6C96,303,93.16,295.13,91.89,293.68c-.4-.46-2.19,1.27-4,3.85a72,72,0,0,1-7.47,8.84,57.43,57.43,0,0,0-7,8.52c-4.27,6.83-13.73,18-21,24.85-3.63,3.42-6.6,6.68-6.6,7.25a1,1,0,0,1-1,1c-.58,0,0-1.46,1.39-3.25a23.67,23.67,0,0,0,3.06-5.25c.35-1.1,2.09-2.71,3.87-3.58,3.09-1.52,3.25-1.88,3.52-8,.24-5.12.7-6.7,2.25-7.67s2-1,2,.29c0,.83-.56,1.39-1.24,1.25-.87-.17-1.27,1.41-1.33,5.17l-.09,5.41,2.08-2.67c1.15-1.47,4.45-5.48,7.33-8.91,4.9-5.82,6.59-8.69,4.25-7.25-.55.34-1-.13-1-1.06,0-1.45-.24-1.5-1.75-.33s-1.55,1.13.07-.78a5.8,5.8,0,0,0,1.5-3.87,2,2,0,0,1,1-2.22c1-.35,1.16.12.6,1.89-.69,2.2-.62,2.26,1.15.88s1.83-1.4.14.59c-2.61,3.08-2.11,4.09.72,1.43,1.36-1.27,2.19-2.77,1.85-3.33s-.15-.71.42-.36c.85.53,2-1.76,2.7-5.34a8.91,8.91,0,0,1,.95-1.85c.71-1.12.45-1.13-1.52-.09-12,6.38-33.25,24.63-33.33,28.61a5.18,5.18,0,0,1-.79,2.92c-1.07,1.07-.92,4.41.2,4.41.53,0,1.41-.78,2-1.75s1-1.25,1-.65-.87,1.91-2,2.9c-2.2,2-2.79,5.09-.75,3.89.69-.4.4.25-.65,1.44s-2,2.17-2,2.17c-.7,0,.55-12.4,1.4-14,.64-1.2,1-2.34.8-2.54-.53-.54-6.28,5-9.25,8.89-3.81,5-3.09,6.54,1.19,2.59,2.06-1.9,2.74-2.29,1.5-.88A9.17,9.17,0,0,0,35.93,342c0,2.05.2,2.16,1.75,1s1.65-1.23.13.63a11.94,11.94,0,0,0-2.06,5.12l-.44,3.13L39.53,350c2.32-1,4.43-1.59,4.69-1.33Zm6.22-14.89a11.31,11.31,0,0,1-.21-4.75c.28-1.09.08-2-.46-2-1.24,0-.06-4,1.75-5.94,2.11-2.22,2.77-.54.9,2.32-1.6,2.45-1.59,2.53.36,2.15,1.47-.28,2,.12,1.88,1.48-.08,1-.39,1.77-.69,1.68s-.54.26-.54.81a.69.69,0,0,0,1,.68c.54-.18.26.5-.62,1.5A12.43,12.43,0,0,0,51.69,335c-.34,1-.76.58-1.25-1.26ZM60,324.61c0-1.06.19-1.65.53-1.31a2,2,0,0,1,.08,1.91c-.32.8-.56.56-.61-.6Zm2.78-3.67c-.36-6.41.42-9,3.23-10.82,2.34-1.48,2.37-1.47.81.44-3,3.74-3.4,4.86-1.31,4.13,1.79-.63,1.8-.58.16.69S63.28,319,64.62,319a11.09,11.09,0,0,0,3.25-2.24c1.48-1.29,1.09-.56-.94,1.74s-3.61,4.17-3.75,4.41-.31-.66-.38-2Zm-5.86-1.72c0-1.47,2.82-4.71,3.5-4,.37.37-.27,1.61-1.41,2.75s-2.09,1.72-2.09,1.28Zm16-15.08c0-.48.93-1.12,2.06-1.42,1.69-.44,1.84-.28.88.88-1.32,1.59-2.94,1.89-2.94.54ZM80,351c2.66-1.42,6.51-9,4.58-9-.78,0-2.21,1.23-3.19,2.75l-3.23,5C76.56,352.24,77.05,352.57,80,351Zm41.09-1.21a38.93,38.93,0,0,0,.36-6.5c0-2.89.34-5.25.77-5.25s.66-2.25.5-5-.64-5-1.09-5-.55-.42-.24-.92a.83.83,0,0,0-.21-1.25c-1.14-.49-9.57-15-9.57-16.5,0-.68-.38-1-.83-.73s-.84,0-.84-.56-2-3.86-4.5-7.26c-4.58-6.3-6.1-6.93-2.51-1,1.09,1.78,1.61,3.25,1.16,3.25s-1.37-1.19-2-2.63-1.5-2.33-1.87-2,0,2.11.89,3.87c3.62,7.45,4.85,10.92,4.21,11.94-.39.63-.2.8.45.4,1.63-1,4,4.36,3.51,7.88a7.34,7.34,0,0,0,1,5c1.89,2.56,3.49,1.09,1.79-1.64-.71-1.13-1-2.29-.76-2.58s1.25,1,2.14,2.87c1.46,3.06,1.47,3.82.12,7.76s-1.32,4.57-.08,5.81a5.22,5.22,0,0,1,1.44,3.11c0,2.08,3.64,8.18,4.87,8.18.5,0,1.07-.57,1.27-1.25Zm-5.46-9.45c-.94-2.54-1.54-4.78-1.34-5s1.15,1.69,2.11,4.21,1.57,4.77,1.35,5S116.57,342.87,115.62,340.33Zm1.31-4.3c-.7-1.69-1-3.3-.75-3.59s1,.93,1.64,2.7c1.46,4.17.76,4.87-.89.89Zm1.46-3.07c-.36-.59-.44-1.28-.18-1.54s.74.21,1.07,1.06c.67,1.76.1,2.07-.89.48Zm-4.3-10.14c-1.7-4-3.54-7.19-4.09-7.06s-.74-.42-.43-1.22-.43-3.16-1.63-5.24-1.44-2.87-.54-1.77c2.72,3.3,11,21.35,10.19,22.17-.23.24-1.81-2.86-3.5-6.88ZM24.93,346.53c1.29-1.37,2.12-2.72,1.84-3s-1.71.84-3.18,2.49c-3.21,3.61-2,4.07,1.34.51Zm62.61-1.11c.83-2,1.74-3.38,2-3.09s0,1.46-.59,2.61-.89,2.08-.62,2.08,1.18-1.23,2-2.75,1.51-2.18,1.53-1.5c.08,2.34,1.67,1.27,3.34-2.25.92-1.92,1.23-3.5.69-3.5a1,1,0,0,0-1,1c0,.55-.65,1-1.45,1-3.06,0-6.34,2.33-7.91,5.64-1.93,4-2,4.36-.59,4.36.58,0,1.73-1.62,2.56-3.6Zm-14-2.51c.3-.47-.27-.61-1.27-.29-1.71.54-1.71.49,0-.87,2.54-2.09,2.21-2.48-2.15-2.54-2.73,0-4.46.56-5.75,2-1.81,2-1.81,2.06.32,1.4,1.19-.37,2.42-.26,2.73.24.72,1.16,5.46,1.2,6.17.05ZM67.43,341a2.19,2.19,0,0,1,1.62-1c.55,0,.72.45.38,1a2.19,2.19,0,0,1-1.62,1C67.26,342,67.09,341.57,67.43,341Zm18.5-7.11c2.19-4.4,3.54-7.72,3-7.38a12.43,12.43,0,0,0-2.54,3.59c-.84,1.63-2,2.71-2.48,2.39s-.66.15-.29,1.13.27,1.47-.4,1.06a1.64,1.64,0,0,0-2,.59c-1.19,1.5-1.26,7.86-.08,7.13.46-.29,2.64-4.12,4.83-8.51Zm-5,4.17a2.16,2.16,0,0,1,1-1.55c.57-.35.73.05.39.94-.66,1.74-1.38,2-1.38.61Zm-54.6,1.78c2.15-.74,4.4-2.22,5-3.29a16.36,16.36,0,0,1,3.1-3.66C41,327.33,43.16,325,41.78,325a3.61,3.61,0,0,0-2.17.66c-.36.36-3,.66-5.91.66-5.44,0-12.77,3.4-12.77,5.89,0,.65.66.3,1.47-.76,1-1.38,1.48-1.53,1.5-.52s.78.72,2.53-.93c1.57-1.47,2.5-1.85,2.5-1,0,1.55-7.58,9-9.16,9-.67,0-.55-.67.29-1.75,1.24-1.58,1.21-1.62-.37-.38-1,.75-1.51,1.73-1.23,2.18a1.09,1.09,0,0,1-.51,1.44,2.14,2.14,0,0,0-1,1.53c0,1.11,4.25.57,9.4-1.18Zm.06-5.6c3.23-3.41,5.29-4.88,5.93-4.24s1.7.39,3-.73c1.13-.94.06.41-2.39,3-3,3.22-4.68,4.33-5.19,3.5s-1.53-.53-3.56,1.24c-1.54,1.35-.57.11,2.16-2.77Zm60.54,4.51c.59-.68,1.75-2.15,2.59-3.25,1.47-1.93,1.49-1.92.43.25-.78,1.62-.78,2.25,0,2.25.59,0,1.74-1.57,2.55-3.5,1.63-3.91,2.9-4.71,2-1.25-.57,2.08-.5,2.06.89-.25.83-1.37,1.53-2.07,1.55-1.55.06,1.8,1.76-.89,2.48-3.92l.7-3-2.36,2.55c-1.3,1.4-2.91,2.36-3.58,2.14s-1.63.65-2.15,1.93-1,1.77-1,1.08c-.14-2.76-2.79-1-4.85,3.25s-1.61,6.05.79,3.25ZM97,329.61c0-1.06.19-1.65.52-1.31a2,2,0,0,1,.08,1.91c-.32.8-.55.56-.6-.6Zm11.92,3.91c0-2.41-.34-4.59-.75-4.84s-.77,1.94-.8,4.88.31,5.11.75,4.84S108.93,335.93,108.93,333.52Zm1.66-1.75c-.27-.68-.5-.12-.5,1.25s.23,1.94.5,1.25A3.83,3.83,0,0,0,110.59,331.77Zm-18-5.67c.9-2.39.85-2.83-.29-2.39-.76.29-1.38.89-1.38,1.34a8.83,8.83,0,0,1-.61,2.39c-.33.87-.2,1.58.28,1.58s1.39-1.31,2-2.92Zm4.89-4.58c.62-2.69.53-2.84-.87-1.5a10.69,10.69,0,0,0-2.25,4.5c-.62,2.7-.53,2.85.87,1.5A10.63,10.63,0,0,0,97.49,321.52ZM39.93,323c0-.39.9-1,2-1.24s1.75-.11,1.44.39c-1.29,2.1,2.4.67,5.6-2.16,1.9-1.69,2.85-2.76,2.11-2.38s-4.53.63-8.4.55c-5.44-.11-7.52.26-9.13,1.62-2,1.71-2,1.71-.63-.09s1.26-1.83-.51-1.49a2.89,2.89,0,0,0-2.25,1.91c-.24,1.22.65,1.51,4.22,1.41,3.34-.1,4.27.17,3.55,1s-.5,1.17.52,1.17c.81,0,1.48-.32,1.48-.72Zm67.92-5.09c-1.34-2.51-2-2-1.27.93.32,1.2,1,1.95,1.47,1.64s.41-1.43-.2-2.57Zm-4.31-1.58c-.34-.34-.57.25-.53,1.31s.28,1.4.6.6a2,2,0,0,0-.07-1.91Zm-57.61-2.23c2.3-1.26,2.39-1.24,1.13.29s-1.16,1.66,0,1.66a4.87,4.87,0,0,0,2.77-1.25c1.08-1,1.2-1,.64,0-.39.69-.34,1.25.1,1.25,1.47,0,7.31-3.95,7.31-4.93,0-.83-11.93-.82-17,0-1.68.28-4,3.06-3.42,4s5.73.4,8.42-1.08Zm55.5-4.3a31.64,31.64,0,0,0-1.93-8,21.06,21.06,0,0,1-1.57-6.58,7.6,7.6,0,0,0-2.5-5.21c-2.14-2-2.5-2.09-2.5-.6A9.76,9.76,0,0,0,94,293.19a94.4,94.4,0,0,1,3.6,10.69c1.38,4.75,2.71,9,3,9.39,1,1.56,1.19.62.84-3.5ZM124.7,312c-.69-1.1-1.59-2-2-2s-.76-.63-.76-1.41c0-2.16-5.62-6.41-10.07-7.61-2.29-.61-3.72-1.51-3.35-2.1.64-1-3.26-5.88-4.75-5.88-2,0,.59,4.08,6.87,10.72a27.37,27.37,0,0,1,3.1,3.58c-.59,1.23,1.76,4.7,3.19,4.7a12.31,12.31,0,0,1,3.59.67c1.32.51,1.55.32.94-.75-.46-.82,0-.68,1,.33,2.5,2.36,3.74,2.22,2.2-.25Zm-8.27-3.84a3.38,3.38,0,0,1-2.17-2.66c-.17-1.92-.13-1.92,1.18-.14.75,1,1.79,1.58,2.32,1.25s1.22.08,1.54.9c.61,1.59.28,1.67-2.87.65Zm-12.15,3.3c-.33-.85-.81-1.33-1.07-1.06s-.18.95.18,1.54c1,1.59,1.56,1.28.89-.48Zm-60.22-3.12c1.24-1.51,1.16-1.55-.88-.46-2.33,1.24-2.9,2.12-1.37,2.12a4.46,4.46,0,0,0,2.25-1.66Zm13.87-.53c0-.38.84-.53,1.88-.33s3.57-.84,5.64-2.31l3.77-2.67-4.9-.53c-2.69-.3-6.54-.52-8.56-.5-2.82,0-3.42-.25-2.62-1.22.57-.68.79-1.25.48-1.25s-1.95,2.09-3.67,4.63c-1.91,2.83-2.53,4.4-1.6,4.05s1.71-.27,1.95.12c.57.91,7.63.92,7.63,0Zm-2.59-1.66c2-2.29,2.59-2.59,2.59-1.39,0,.42-1,1.39-2.25,2.15-2.24,1.37-2.24,1.37-.34-.76Zm-5.41.39c0-.26,1-1,2.25-1.66,2-1.09,2.12-1,.88.46s-3.13,2.26-3.13,1.2Zm34.56-6.65,2.94-3.12-2.5.67c-2.4.64-2.42.61-.56-.88,1.07-.86,1.46-1.56.87-1.56-1.37,0-3.47,2.51-2.72,3.26.31.32.07,1.51-.54,2.66C80.44,303.81,81.05,303.56,84.49,299.91Zm-16.06-.53a61.5,61.5,0,0,0,6.72-.59c2.86-.62,3.28-1.77.65-1.77A5.81,5.81,0,0,1,72.27,296c-1.52-1.51-7.38-1.49-8.32,0a1.42,1.42,0,0,1-1.88.61c-.59-.37-2.56.12-4.36,1.07-2.61,1.39-2.91,1.82-1.46,2.13a5.64,5.64,0,0,0,4-1.45q2.16-1.85.93-.24c-1.36,1.77-.58,3.23,1.15,2.16.61-.38,3.36-.78,6.11-.9Zm-3.5-.61c0-.28.68-1.06,1.5-1.75s1.5-1,1.5-.74a4.58,4.58,0,0,1-1.5,1.74C65.61,298.71,64.93,299,64.93,298.77Zm48,.88a5.41,5.41,0,0,0-1.52-1.64c-1.28-1.06-1.42-1-.9.37s2.42,2.39,2.42,1.27Zm-32.67-5.9c1.93,0,2.41-.27,1.5-.85a6.64,6.64,0,0,0-7.39.7c-1.87,1.51-1.85,1.55.56.87a24.21,24.21,0,0,1,5.33-.72ZM72.43,293c.35-.56-.49-1-1.94-1s-2.56.45-2.56,1,.87,1,1.94,1A3.33,3.33,0,0,0,72.43,293Zm5.5-16.5c0-.82-.45-1.5-1-1.5s-1,.68-1,1.5.45,1.5,1,1.5S77.93,277.35,77.93,276.52ZM85.4,276a2.47,2.47,0,0,1,.57-2.5c1-1.16.91-1.46-.25-1.46a3.46,3.46,0,0,0-2.09.64c-.65.65,1,4.36,1.89,4.36.29,0,.24-.46-.12-1Zm-14.16-6c-1.32-1.33-2.8.49-1.76,2.17.49.78,1,.78,1.76,0A1.29,1.29,0,0,0,71.24,269.94Zm21.69,2.14c0-1.35-1.76-2.25-2.4-1.21S90.8,273,92.1,273a.89.89,0,0,0,.83-.94Zm-11-4.93c0-3-1.55-5.9-2.58-4.87-.38.38-.17,1.33.47,2.1.83,1,.87,2.17.14,4.09-1.37,3.6-1.29,4,.48,2.55a5.62,5.62,0,0,0,1.49-3.87Zm3,3.33c0-1.18-1.89-1.18-2.34,0-.37,1-.07,1.26.89.89.8-.31,1.45-.71,1.45-.89Zm-8.68-4.74c-.3-.5-1-.45-1.54.11a1.88,1.88,0,0,0-.27,2.19c.56.91.94.88,1.55-.11a2.4,2.4,0,0,0,.26-2.19Zm15.68-6c0-1.18-1.46-.88-1.87.37-.21.62.13,1,.75.75S91.93,260.19,91.93,259.78Zm-5-3c0-1.18-1.46-.88-1.87.37-.21.62.13,1,.75.75S86.93,257.19,86.93,256.78Zm-8-18.75a1,1,0,1,0-1,1A1,1,0,0,0,78.93,238Zm-9.51-2a1.15,1.15,0,0,0-1.56-.44c-1.39.85-1.13,1.46.63,1.46.86,0,1.28-.46.93-1Zm4.71-2.18c-.93-.94-1.2-.67-1.2,1.2s.27,2.13,1.2,1.19S75.06,234.76,74.13,233.83Zm-11.37-2.91a1.43,1.43,0,0,0-2,.36c-1.11,1.8.18,3,1.8,1.63,1.15-1,1.19-1.37.19-2Zm16.17,1.22c0-.48-.9-1.12-2-1.4-2-.52-2.64.31-1.33,1.62,1,1,3.33.81,3.33-.22Zm6-2.74c0-.21-.67-.37-1.5-.37a1.57,1.57,0,0,0-1.5,1.62c0,1.33.27,1.39,1.5.38A5.24,5.24,0,0,0,84.93,229.4Zm-14.75-.79c.14-.51-.31-1.11-1-1.33s-1.25.33-1.25,1.25c0,1.69,1.79,1.75,2.25.08ZM77.93,226a1,1,0,0,0-1-.95c-.55,0-1,.71-1,1.56s.45,1.28,1,.94A2.12,2.12,0,0,0,77.93,226Zm-13.56-1.84c.3-.49-.09-1.14-.86-1.44a1.55,1.55,0,0,0-2,.9c-.59,1.56,1.9,2,2.83.54Zm9.06-.11c-.34-.55-.82-1-1.06-1s-.44.45-.44,1A1,1,0,0,0,73,225C73.57,225,73.77,224.57,73.43,224Zm-3.5-1a1,1,0,0,0-1.06-1c-.58,0-.78.45-.44,1s.82,1,1.06,1S69.93,223.57,69.93,223Zm12.45-2.08a1.12,1.12,0,0,0-1.9,1.17,1.13,1.13,0,0,0,1.54.36A1.12,1.12,0,0,0,82.38,220.94Zm-5.45.08c1.29-.83,1.27-1-.19-1a2.93,2.93,0,0,0-2.31,1c-.78,1.27.54,1.27,2.5,0Zm-10-23a1,1,0,1,0-1,1A1,1,0,0,0,66.93,198Zm-5-4c0-.55-.67-1-1.5-1s-1.5.45-1.5,1,.68,1,1.5,1S61.93,194.57,61.93,194Zm14,0a1.07,1.07,0,0,0-1.12-1c-.81,0-.8-.39,0-1.41,1.16-1.39,0-3.15-1.29-1.89s-.64,5.3.86,5.3c.83,0,1.5-.45,1.5-1Zm-7.75-3.41c.14-.51-.31-1.11-1-1.34s-1.25.34-1.25,1.25c0,1.7,1.79,1.76,2.25.09Zm-13.25-1.14c0-.25-.45-.45-1-.45a1,1,0,0,0-1,1.06c0,.59.45.78,1,.44S54.93,189.71,54.93,189.47Zm9.8-.65c1.66-1.65,1.51-3.8-.26-3.8-1.28,0-3.54,2.83-3.54,4.44,0,1,2.57.59,3.8-.64Zm15.2-2.3c0-.82-.45-1.5-1-1.5s-1,.68-1,1.5.45,1.5,1,1.5S79.93,187.35,79.93,186.52Zm-28.25-4.08c-1-.95-2.86.59-2.15,1.74.42.68,1,.67,1.7-.05s.79-1.35.45-1.69ZM56.93,184a1,1,0,1,0-1,1A1,1,0,0,0,56.93,184Zm14.75-1.58c-1-.95-2.86.59-2.15,1.74.42.68,1,.67,1.7-.05s.79-1.35.45-1.69Zm-.37-32.21A2.41,2.41,0,0,0,71,148.1c-1.07-1.72-3.14-.47-2.4,1.46.62,1.6,2,1.93,2.73.67ZM56.93,143.9c0-1.2-2.74-1.11-3.5.13-1.08,1.74.52,3.22,2.09,1.92a3.7,3.7,0,0,0,1.41-2Zm22.82-1c1.15-1.84,1.09-2-.5-1.74a2.87,2.87,0,0,0-2.13,2.09c-.46,2.38,1,2.18,2.63-.35ZM60.43,143c-.34-.55-.82-1-1.06-1s-.44.45-.44,1A1,1,0,0,0,60,144C60.57,144,60.77,143.58,60.43,143Zm13.5-1.5c0-.83-.45-1.5-1-1.5s-1,.67-1,1.5.45,1.5,1,1.5S73.93,142.35,73.93,141.53Zm-10.07-1.92c.71-.86.8-1.64.21-2-1.57-1-4.06.47-3.47,2,.69,1.8,1.77,1.8,3.26,0Zm7.62-7.37c-.86-.86-3.55,1.94-3.52,3.66,0,1.26.49,1.08,2-.77C71.08,133.82,71.76,132.52,71.48,132.24Zm-6.73-17.3c1.15-1.84,1.09-2-.5-1.74a2.87,2.87,0,0,0-2.13,2.09c-.46,2.38,1.05,2.18,2.63-.35Zm10.93-.5c-1-1-2.86.59-2.15,1.74.42.68,1,.67,1.7-.05s.79-1.35.45-1.69Zm8.06-1.15a2.88,2.88,0,0,0-2.15-2.09c-1.56-.3-1.66,0-.71,1.74,1.36,2.53,3.33,2.77,2.86.35Zm-4.4-3.68c1.26-4.67.7-6.58-1.91-6.58-3,0-3.09.44-.51,3.21,2.2,2.37,1.9,3.77-.39,1.86-1.18-1-1.67-.82-2.53.79-1.47,2.76-1.44,2.8,1.86,2.8,2.12,0,3.08-.57,3.48-2.08Zm-8.44-3.55c.81-.51,1.17-1.23.8-1.6-.92-.92-3.77.24-3.77,1.53s1,1.3,3,.07Zm15-.91c0-1.25-2.57-3.22-3.27-2.52-1,1,.38,3.4,1.88,3.4.76,0,1.39-.4,1.39-.88ZM74.17,98.87c.42-2.85.33-3-.86-1.25-.72,1-1.79,2.47-2.38,3.16-.81.93-.6,1.25.85,1.25S73.83,101.16,74.17,98.87Zm3.37-3.66c-1.48-1.48-1.61-1.41-1.61.93,0,3.27,1.13,4.4,2.3,2.31.64-1.13.42-2.13-.69-3.24ZM68.43,95c.34-.55,0-1-.74-1-1.51,0-3.76,1.93-3.76,3.23,0,1,3.62-.81,4.5-2.24Zm4.72-8.18c-1.53-1.53-2.66-.4-1.81,1.81.5,1.3.93,1.43,1.82.54s.89-1.45,0-2.35Zm-11.78-.71c.67-1.08-2.24-2.35-3.54-1.54a1.1,1.1,0,0,0-.36,1.5,2.59,2.59,0,0,0,3.9,0Z"/></g></g></svg>