<?xml version="1.0" encoding="utf-8"?>
<!-- Generator: Adobe Illustrator 22.1.0, SVG Export Plug-In . SVG Version: 6.00 Build 0)  -->
<svg version="1.1" id="Layer_1" xmlns="http://www.w3.org/2000/svg" xmlns:xlink="http://www.w3.org/1999/xlink" x="0px" y="0px"
	 viewBox="0 0 320.8 472" style="enable-background:new 0 0 320.8 472;" xml:space="preserve">
<style type="text/css">
	.st0{fill:#600F0A;}
</style>
<title>chilli_2</title>
<g id="Layer_2_1_">
	<g id="Layer_1-2">
		<path class="st0" d="M30.8,469.2c-0.6-1.5-1.4-6.4-1.8-10.8c-0.4-4.6-1.4-9.1-3-13.5c-2.9-7.1-3.8-21.5-2.1-36.4
			c1.2-10.8,1.1-11.3-1.4-20c-1.9-6.2-2.8-12.7-2.7-19.2l-0.1-10.2l-2.5,1c-3.6,1.4-7-1.1-7.9-5.8c-0.8-3.1-1.8-6.2-3.2-9.2
			c-2.4-5.3-2.5-5.9-1.7-18c1-15.3,0.8-23.1-0.5-26.6c-2.2-5.8-4-17.5-4-26c0-9.2,2.7-22.5,7-34.1c1.2-3.2,1.5-5.5,0.9-6.1
			S6,230,4.8,225.9c-2-6.7-2.2-9.8-2.3-29.9c0-12.4-0.4-24-0.9-25.8C0.8,167.3,1,167,2.8,167c2.6,0,8.3,5.6,12.7,12.5
			s17.8,16.5,23,16.5c2.6,0,7.6-4.3,9.6-8.3c5.1-10,17.6-18.7,26.5-18.7c3.4,0.2,6.8,0.8,10.1,1.8l5.2,1.8l-6.4-12.1
			c-7.9-14.9-10.4-21.2-14.6-35.7c-1.8-6.3-4-12-4.9-12.7c-2.5-2.1-10.4-0.9-15.1,2.2c-2.3,1.6-3.8,3.2-3.5,4
			c0.7,1.8-1.3,6.7-3.4,8.4c-6.5,5.1-16.3,5.6-19.4,0.9c-4.6-6.9,9.1-20,18.4-17.5c3,0.8,13.8-2.8,13.8-4.7c-0.2-1-0.8-1.9-1.6-2.5
			c-1.8-2-3.3-4.2-4.6-6.6c-1.7-2.9-3.1-5.3-3.2-5.3s-2,0.9-4.1,2c-5.6,2.8-11.9,2.7-15-0.4S23.4,88.1,26,83c2-4,5.8-7.5,9.1-8.6
			c2.8-0.9,2.5-1.7-2.6-7.3C26,60,15.5,54.8,8,55s-8,0.2-8-1.8c0-3,4.9-6.3,15.3-10.2c6-2.3,12.3-2.6,31.3-1.7
			c12.6,0.6,17.6,1.8,27.9,6.7c3.3,1.6,6.1,2.7,6.3,2.5c0.6-2.3,1.1-4.6,1.3-7c0.8-5.3,0.7-7.5-0.4-10.9s-1.3-6.3-0.7-12.8
			C82.2,6.5,86.3,1,94.7,1c11.2,0,13.9,13.1,4.8,23.5C97.6,26.7,96,29,96,29.8s-1.8,3.2-4,5.6c-4,4.3-6,9.7-6,16.4
			c0,5.5,2.4,5.7,9.8,0.6c3.6-2.4,7.3-4.7,11.1-6.8c5.5-2.8,15.3-11.5,18.1-16c1.2-2.2,1.9-4.7,2-7.2c0-3.3,0.8-4.8,5-9.4
			c2.9-3.2,5.3-6.8,5.6-8.7c1.1-5.6,3.1-5.6,4.3,0c0.8,3.7,1.3,3.8,7.9,1.3c2.4-0.9,4.6-1.3,5-1s0,3.8-0.6,7.7s-1,7.3-0.8,7.5
			c1.7,0.6,3.4,0.9,5.2,1.1c2.6,0.4,4.9,1.2,5.2,1.9s-1.2,3-3.2,5.2c-3.9,4.4-3.7,4.9,2.6,6c2.3,0.4,4.4,1.3,4.6,1.9
			s-1.7,3.4-4.3,6.2s-4.4,5.5-3.9,6.1s2.2,1.8,4.1,2.6c7.7,3.2,2,6.1-9.4,4.8c-2.9-0.4-5.7-0.5-8.6-0.5c-1,0.2-4.6-1.1-8-2.8
			c-5.4-2.8-7.3-3.2-14.7-3.3c-11.5-0.2-19.2,2.9-26.4,10.5l-2.9,3l3,2.6c9.3,8,13.3,24.2,11,44.7c-1.2,10.5-1.2,10.6,2.8,21.8
			c1,2.8,1.9,5.6,2.1,6.4s2-0.5,4.6-3.5c2.3-2.7,6.3-6.9,8.9-9.4c4.4-4.2,4.9-5.3,7.3-14.5c5.3-20.5,8.8-26.7,23.3-41.7
			c24.5-25.3,40.8-31.9,75.7-30.4c11,0.5,14.2,1,21,3.4c4.4,1.6,9.4,3.6,11,4.5s10.8,4.1,20.4,7.2c17.9,5.8,23.9,8.4,26,11
			c1.9,2.3,0.3,3.9-3.1,3.2c-5.5-1.1-22.7,4.7-31.3,10.5c-3.5,2.6-6.8,5.3-10,8.3c-4,3.5-8.4,6.5-13.1,9c-4.8,2.3-10.1,6.2-16,11.7
			c-11.3,10.4-21.1,16.9-30.5,20c-6.8,2.2-8.9,2.4-27.4,2.4c-11,0-25.6-0.4-32.5-0.9l-12.5-0.9l-3.2,2.7c-3,2.9-5.8,6.1-8.2,9.6
			l-5,6.9l3.8-1.4c7.6-2.7,20-4.4,38.6-5.5c10.4-0.6,22.1-1.6,26-2.2c7.3-1.1,20.6-0.5,28.5,1.3c16.7,3.8,29.1,12.5,37.1,26
			c3.4,5.8,4.3,8.3,5.4,16.6c0.8,5.4,2.5,14.1,3.8,19.3c1.8,6.2,2.5,12.6,2.2,19c-0.4,16.1-2.7,19.2-7,9.8
			c-5.4-11.7-13.6-16.8-34.6-21.7c-12.8-3-17.5-5.4-24.4-12.4c-7.5-7.7-11.4-10.7-18.9-14.5c-8-4.1-14.4-9.2-16.2-12.7
			c-3-6.1-9.3-14.1-13.1-16.7c-6.9-4.8-11.6-5.4-21.3-2.8s-15.6,7.2-14.6,11.3c0.3,1.3-0.3,4.2-1.5,6.7c-1.1,2.3-1.7,4.8-2,7.4
			c-0.1,7.3,21,38.2,32.9,48.2l2.7,2.3l6.3-6.4c4-4.1,8.7-7.6,13.8-10.2c6.8-3.4,8.2-3.8,15.1-3.8c6.5,0,8.4,0.5,13.8,3.2
			c6.8,3.5,16.5,12,20.8,18.2c1.8,2.5,3.6,4.1,4.9,4.1c3.5,0,15.8,5.3,22.1,9.5c3.3,2.2,8.2,5.1,11,6.4s8.1,5.6,11.8,9.4
			c3.3,3.4,6.9,6.6,10.6,9.5c6.1,4.1,15.5,13.3,18.9,18.3s10,23.9,10,28.1c0,1.4,1.2,5.6,2.7,9.4c2.5,6.4,2.7,8.1,2.8,23.4
			c0.2,18.9,0.4,20,5.2,31.2c5.7,13.3,6.6,20,2.9,21.4c-0.8,0.3-4.3-1.3-7.8-3.5s-11.8-6.6-18.3-9.7s-14.4-7.2-17.3-9.1l-5.4-3.4
			l0.7,5.3c0.6,6.2,2.6,12.3,5.7,17.7c3.5,6.6,3.6,10,0.4,13.5c-4.8,5.2-13.4,2.9-24-6.5c-6.8-6.1-10.9-12.1-15.7-23.3
			c-5.2-11.5-11.2-22.7-18.2-33.2c-7.7-11.7-14.1-30.3-15.4-44.2c-0.6-6.2-1.3-8.4-4.2-13c-6.5-10.1-10.2-20.1-10.8-29.3
			c-0.7-10.1-3.7-19-7.4-22.2c-2.1-1.5-4.6-2.6-7.1-3c-5.3-0.8-13.9,0.9-16.9,3.3l-2.1,1.7l7.4,10.9c9,13.3,17,28,19.2,35.5
			c0.9,3,2.5,10,3.6,15.5s2.6,12.5,3.4,15.5c1.2,5.5,2,11,2.6,16.6c2.8,26.8,5.7,47.8,8.1,57.5c4.7,19.2,10.6,31.4,19.8,41.5
			c10.4,11.4,14.9,16,18,18.5c4.1,3.3,5.2,9.6,2.6,14.6c-4.3,7.9-15.6,4.9-29.2-7.9c-17.1-16-30.4-43.2-34.8-71.3
			c-1-6.4-3.7-10-8.9-11.7c-6.1-2.1-15.5-9.6-22.7-18.1c-5.8-6.9-6-7-16.6-10.6c-5.9-2-13.3-4.6-16.5-5.8
			c-7.6-2.8-10.6-2.8-11.2,0.1c-0.2,1.2-1.2,6.5-2.1,11.7c-0.9,5.2-2.3,10.3-4.1,15.2c-1,2.3-1.8,4.6-2.4,7c0,0.7-1.4,3.3-3.1,6
			s-4.3,9.3-5.9,15.4c-4.6,17.2-9.9,26.3-23.1,40C52.6,440,49.4,445,43,458c-5.1,10.3-7.6,14-9.6,14C32.6,472,31.4,470.8,30.8,469.2
			L30.8,469.2z M38.4,461.4c2.7-5.9,3.5-12.3,4.1-32.7c0.2-8.1,0.9-16.6,1.5-18.9c1.4-5.4,2.1-4.6,1,1.1s-1.8,40.4-0.7,38.5
			c0.4-0.8,1.2-8.7,1.8-17.7s1.2-16.8,1.5-17.3s0.3,6,0,14.4c-0.5,14.6-0.4,15.3,1.2,13.7c1.4-1.4,1.8-4.1,2.1-15.5
			c0.3-14.2-0.8-21.4-4.3-26.3c-1.5-2.1-1.5-2.1-2.2-0.2c-0.3,1.1-1,3-1.5,4.4c-2.2,6.1-4.2,21.4-4.2,33c0,8.9-0.3,11.3-0.8,8.5
			c-1.1-5.6-1.1-18,0.1-24.5c0.5-3,1.4-8,1.9-11s1.3-6.9,1.7-8.5c0.7-2.9,0.6-2.9-2.1,0.9c-2.2,3.2-2.8,5.3-3.2,11.5
			c-0.5,9-1.2,10.6-1.3,3v-5.4l-1.7,3c-0.9,1.6-2.4,6.8-3.4,11.5c-1.4,6.7-1.6,7.3-1.2,3c1-11.8,5.2-23,12.3-32.5
			c3.9-5.3,6.9-13.2,9.6-25.5c0.9-4.1,2-9.3,2.5-11.5c0.7-4,1.2-8,1.6-12l0.7-8l-5.5,8c-8,11.5-12.1,19-14.7,27
			c-1.3,3.9-2.7,7.4-3.2,8c-0.6,1.1-0.9,2.3-0.9,3.5c0,1.4-0.4,2.8-1,4.1c-1.3,2.1-1.2,0.6,0.5-6.8c1.6-6.7,10.1-27.9,11.6-28.8
			c1.3-0.8,10.2-14.4,11.8-17.9c0.7-1.6,1.7-8.4,2.2-15s1.5-14,2.3-16.5s1.7-5.9,2-7.5l0.6-3l-2,2.5c-2.5,3.8-4.6,7.7-6.5,11.8
			c-2.3,4.7-4.8,9.4-7.6,13.8c-2.4,3.7-4.6,7.7-6.5,11.7c-3.8,8.1-4.5,8.4-1.4,0.5l2.1-5.3l-2.1,1.9c-3.7,3.4-11,15.1-13,21.1
			c-3.4,10-2.6,26.9,1.8,36.3c1.4,3,1.4,4.9,0.4,15.5c-2,20.5-1.3,29.8,3,39l1.9,4.1l-0.7-4c-0.4-2.2-0.4-3.7,0-3.4
			c1.3,1.2,3.8,18.5,3.2,22.2c-0.7,4.3,0.2,6.7,1.6,4.5C36.5,465.8,37.5,463.6,38.4,461.4L38.4,461.4z M35.1,459.5
			c-0.1-2.2-0.8-8.5-1.6-14c-1.6-10.8-2-23.5-0.7-23.5c0.4,0,0.6,2.3,0.4,5.1s0.4,10.6,1.3,17.3s1.5,13.8,1.3,15.7l-0.4,3.5
			L35.1,459.5L35.1,459.5z M28.3,405.5c0-5.5,0.2-7.8,0.6-6c0.4,3,0.4,6,0,9C28.3,414.1,28.3,413.9,28.3,405.5z M32.8,402.2
			c-0.2-0.4-0.1-4.1,0.3-8.3l0.7-7.5l0.2,8.3C34,402.3,33.7,404.2,32.8,402.2z M37.8,394.2c-0.4-0.7-0.3-4,0.2-7.5s1.2-8.1,1.4-10.3
			c0.3-2.9,0.4-2.5,0.4,1.5C39.9,386.1,38.7,395.6,37.8,394.2L37.8,394.2z M42.6,382.4c0.2-3,0.7-6,1.4-9c1.4-4.7,1.1,0.1-0.5,8
			l-1.4,7L42.6,382.4z M25.2,378.4c0-1.6,0.2-2.4,0.5-1.8c0.3,1,0.3,2,0,3C25.4,380.7,25.2,380.1,25.2,378.4L25.2,378.4z
			 M47.2,371.4c0.1-2,0.3-4,0.8-6c0.7-3.4,0.8-3.5,0.8-1C48.8,367.9,47.3,374.5,47.2,371.4z M28.2,369.4c0-1.6,0.2-2.4,0.5-1.8
			c0.3,1,0.3,2,0,3C28.4,371.7,28.2,371.1,28.2,369.4L28.2,369.4z M45.2,365.9c0-1.9,0.2-2.7,0.5-1.8c0.3,1.2,0.3,2.3,0,3.5
			C45.4,368.7,45.2,367.9,45.2,365.9L45.2,365.9z M32.3,360c0-3,0.2-4.3,0.4-2.8c0.2,1.8,0.2,3.7,0,5.5
			C32.5,364.3,32.3,363,32.3,360z M33.2,352c0-1.4,0.2-1.9,0.5-1.3c0.3,0.8,0.3,1.7,0,2.5C33.4,353.9,33.2,353.4,33.2,352z
			 M39.2,346c0-1.9,0.2-2.7,0.5-1.8c0.3,1.2,0.3,2.3,0,3.5C39.4,348.7,39.2,347.9,39.2,346z M237.4,462.8c0.9-1.5,1.5-3.2,1.6-4.9
			c0-3.1-4.1-8.4-7.3-9.4c-1.6-0.7-2.9-1.7-4-3c-2.5-3.2-8-3.3-10.2-0.1c-2,2.9-2,8.2,0.1,11.3C222.6,464.1,234,467.7,237.4,462.8
			L237.4,462.8z M227.1,455c-1.8-3.4-3.1-6.4-2.8-6.7c0.7-0.7,6.8,10.8,6.4,12C230.6,460.8,228.9,458.5,227.1,455L227.1,455z
			 M223.3,454.4c-2.5-6-3.1-9.8-0.8-5c2.8,5.9,4.4,10.5,3.7,10.5C225.8,459.9,224.5,457.4,223.3,454.4L223.3,454.4z M230.9,455.7
			c-1.6-3-1.7-3.9-0.6-2.9c1.5,1.2,4.1,7.2,3.2,7.2C233.2,460,232.1,458,230.9,455.7z M220.2,454c-0.6-1.9-1-3.6-0.7-3.9
			c0.7-0.7,2.7,4.9,2.2,6.2C221.5,456.9,220.8,455.9,220.2,454L220.2,454z M210.3,447.9c-8.1-8.8-17-25-22.4-41.2
			c-3-9.1-6.9-25.8-6.8-29.3c0-1.1,1.1,2.7,2.4,8.5c3.3,14.9,7,26.1,12.3,36.5c6.5,13,16.3,26.8,17.8,25.2c0.4-0.4-0.6-2.2-2.3-4
			c-4.4-4.9-8.1-10.4-11.1-16.3c-2.6-5-9.2-24.1-9.2-26.3c0-0.9,1.6,2.9,3.5,8.4c2.1,5.9,4.5,11.7,7.2,17.4
			c4,7.9,13.2,18.9,13.2,15.9c-0.2-1.2-0.8-2.3-1.8-3c-2.6-1.8-8.5-11.3-11.6-18.6c-3.9-9.3-3.1-8.8,1.9,1.3
			c2.5,4.9,6.2,10.9,8.3,13.3c3.4,3.9,4.1,4.3,7.6,4l3.9-0.3L219,434c-2.4-3-4.6-5.7-4.9-6c-3.8-3-11.4-18.6-14.9-30.5
			c-3-10.1-7.1-30.3-7.1-34.7c0-2.1-0.4-3.8-0.9-3.8s-1.4-1.7-2-3.8c-1.3-4.7-8.3-52.3-7.8-52.9s4.5,22.4,5.3,30.1
			c0.9,8.5,3.6,23.6,4.2,23.1c1.4-1.5-6.3-48.9-10.9-67.1c-3-11.8-15.2-35.5-17.9-34.8c-0.5,0.1-0.6-0.3-0.3-1.1s-0.4-2.4-1.5-3.6
			c-1.3-1.5-2-1.8-2-1c0,2.5-5.3-6.3-6.2-10.4c-1.2-5.2,1.7-11.4,8.6-18.2c10.4-10.3,20.7-12.5,32.5-6.8
			c7.3,3.5,14.6,10.1,18.4,16.7c2.7,4.5,3,6.8,2,12.7l-0.6,3.5l2.1-3c2.6-3.7,2.7-1.6,0.3,4.7s-3.6,7.2-3,2.3l0.6-4l-1.4,3
			c-0.7,1.5-1.2,3.1-1.4,4.8c0,1-0.5,1.8-1.1,1.8s-0.8-1.2-0.4-3.3s0.4-2.9-0.3-2.3c-1,1-1.6,5.2-1.3,8.7c0.1,1.6,0.5,1.5,3.6-0.4
			c1.9-1.1,3.5-2.9,3.5-3.8c0-2.5,3.8-7,5.9-7c1.6,0.3,3.1,1,4.3,2c1.8,1.3,4,2,6.3,2c3.3,0,3.6-0.2,2.4-1.6
			c-1.4-1.4-3.1-2.5-4.9-3.4c-4.7-2.4-7.8-5.3-7.4-6.6c0.2-0.6-0.7-2.4-1.9-4s-3.5-4.7-4.9-6.9c-7.5-11.5-18-19.5-28.3-21.4
			c-10.1-1.9-19.8,1.8-29.3,11.2c-3.4,3.4-6.3,6.6-6.3,7c-0.1,0.7-0.5,1.4-1,2c-0.6,0.7-1.7,2.1-2.4,3.2c-1.4,2-1.4,1.9-2.4-0.5
			c-0.6-1.4-3.3-5-6.1-8c-6.4-7-18.3-23-25.5-34.5c-6.3-10-7.1-14.5-3.5-20.4l2-3.3l-3,0.7c-2.5,0.5-3.5,0.2-5.4-1.9l-2.4-2.6
			l-0.7,2.6c-0.4,2-0.4,4,0,5.9c0.7,3.9-1.3,6-3,3.1c-1-1.6-2.1-3-3.4-4.4c-3.7-4.2-9.8-15-13.6-23.7c-3.4-7.8-7.6-22.1-7.6-25.7
			c0-1-0.4-1.8-1-1.8c-2.4,0-0.1,10.8,5.4,25.5c2.8,7.4,10.1,20.8,17.3,31.5c2.4,3.6,4.3,7,4.3,7.7c0,1.9-2.4,1.5-3.8-0.7
			c-2-3.2-8.9-7-14.7-8.2c-11.1-2.2-23.8,5.2-29.8,17.3c-2.5,5-2.5,5.5-1,7.2s1.5,1.8-0.8,1.5c-2.1-0.3-2.9,0.4-4.8,4.1
			c-1.3,2.6-2.3,5.4-2.9,8.3c-0.3,2.1-0.9,3.8-1.3,3.8c-1.3,0,0.9-8.1,3.6-13.5l2.5-5l-2.6,3c-4.9,5.7-8,15.4-5.5,17
			c0.5,0.3,0.8,0.9,0.5,1.4c-0.3,0.4,0.2,1.4,1.1,2.1c1.3,1.1,1.8,1.1,2.7-0.2c2.2-3,7.7-5,12.8-4.7c5.3,0.4,5.6-0.1,3.8-5.2
			c-0.8-2.3-0.8-2.2-0.6,0.8c0.6,6-1.2,3.3-2.4-3.8c-0.7-3.9-1.6-7.3-2.1-7.6c-1.5-0.9-0.9-6.4,1.1-10.2c3-5.5,7.7-9.9,13.3-12.7
			c5.6-2.9,7.3-2.9,15.2-0.7c4.1,1,7.9,3.2,10.8,6.3c2.7,2.6,5,4.5,5.2,4.3s1.4,1.1,2.7,2.9s1.7,2.9,0.9,2.4c-1.9-1.2,0,1.3,5.8,7.4
			c4.2,4.4,5.8,7.6,2.5,5c-5.2-4.1,8.9,15.2,25.2,34.6c5.5,6.6,11.1,13.7,12.4,15.8c3.2,5.3,3.7,4.7,0.7-0.9c-1.4-2.6-2.3-5-2-5.5
			s-0.3-0.8-1.3-0.8c-1.7,0-5.6-4.6-16.3-19.1c-1.9-2.6-6.1-8.2-9.3-12.4s-5.7-7.8-5.4-8.1c0.4-0.4,5.2,5.5,20.8,26
			c10.1,13.3,14,17,6.4,6c-2.5-3.6-4.4-6.8-4.1-7c0.9-0.9,14,18.4,13.2,19.6c-0.3,0.5,0.7,3.1,2.4,5.7c3.7,5.9,6.4,12.2,5.1,12.2
			c-0.5,0-0.9,1-0.9,2.1c0,1.8-0.9,1.2-5.1-3.1c-8.3-8.3-24-15.1-35.2-15.1c-7.2,0-6.3,1.6,1.4,2.4c19.2,1.8,36.9,13.6,44,29.4
			c1.8,4,3.4,7.1,3.6,6.9c0.5-0.5-4.6-12.8-5.8-14.4c-0.6-0.7-0.8-1.6-0.5-2.5c0.7-1.8,6,10,9.5,21.2c3.6,10.6,6.3,21.5,8.2,32.5
			c1.5,8.4,1.8,9.3,2,5.5l0.2-4.5l0.8,4.5c1.1,6.7,1.9,23.8,1,21.5c-0.8-2-1.1,0.2-1.2,9.8c0,3.7-1,4.9-2.1,2.5
			c-0.3-0.7-0.3-0.2,0,1c0.4,1.6,0.1,2.3-1,2.3c-0.8,0-1.6-0.4-2.1-1c-0.4-0.6-3.6-2.3-7.1-4c-11.7-5.3-23.8-18.2-32.5-34.5
			c-2.8-5.3-4.9-9.8-4.6-10.1s2.8,3.8,5.7,9.1s5.6,9.6,6.1,9.6c1.3,0,1.3-0.2-2.4-6.7c-6.1-10.9-14.2-28.4-13.2-28.4
			c0.3,0,3.7,6.5,7.6,14.5s7.5,14.8,8,15.1c1.2,0.8,1.1-13.9-0.2-23.2c-1.2-9-4.5-17.6-9.7-25c-2.4-3.7-4.4-7.7-5.8-11.9
			c-2.4-8.3-6.1-15.4-8.2-15.6c-3.6-0.3-7.1,0.3-10.4,1.7c-6.1,3.1-7.5,20-2.5,29.3c2.3,4.2,15.7,23.1,16.4,23.1
			c0.6,0-2.7-5.3-10.9-17.9c-3.8-5.7-6.5-10.7-6.2-11s0.8-0.1,1.1,0.6c1.7,2.9,3.6,5.8,5.6,8.5c2.9,4,6.8,9.9,8.7,13.1
			c2.1,3.5,3.6,5.2,3.8,4.3c0.4-1.8-3.8-10.7-6.8-14.6c-1.6-2.1-11.3-17-13.5-20.8c-0.4-0.7-0.3-1.3,0.2-1.3
			c0.9,0,16.7,23.4,17.8,26.5c1,2.7,2.3,0.6,1.4-2.3c-1.3-4.4-4.2-9.5-14.2-24.5c-2.2-3.2-3.8-6.4-3.6-6.9s4.1,4.9,8.7,12.1
			s8.7,13.2,9.2,13.2s0.8-1.5,0.8-3.2c0-4.3-3.1-18.8-4.1-18.8s-5.2-7.1-4.6-7.7c0.3-0.3,1,0.6,1.7,1.9c0.9,1.6,1.9,3,3.1,4.4
			c3.5,3.9,4.9,11.1,4.9,26c0,19.9,2.7,30.3,10.4,41.4c3.1,4.4,5.6,8.3,5.6,8.8c0,1.4-8.5-8.5-11.1-12.9
			c-3.3-5.7-9.5-11.5-13.1-12.3c-1.6-0.4-3.2-0.4-3.5-0.1c-0.7,0.7,4.8,10.5,9.4,16.9c2,2.8,4.2,4.8,5.3,4.8c1.1,0,1.9-0.2,1.9-0.5
			s-2.5-4.4-5.6-9.1s-5.4-8.8-5.1-9.1s2.2,2.3,4.3,5.6c7,11.1,9.2,13.8,12.6,15.5c1.9,0.9,5.9,4.7,9,8.4
			c9.4,11.3,16.6,16.9,24.5,19.3c3.3,1,4.6,2,5.7,4.3c1.3,3,1.4,3,1.5,0.6c0.1-1.4,1,0.9,1.9,5c4.1,17.6,9.3,35.5,11.5,39.8
			c7.3,14.5,22.6,35.7,23.4,32.5C214,452.6,212.4,450.2,210.3,447.9L210.3,447.9z M187.6,391.3c-2.1-6.3-4.6-17.3-4.6-19.8
			c0-1.1,1.5,3.9,3.4,11C189.9,395.8,190.4,399.9,187.6,391.3L187.6,391.3z M193.5,384.8c-0.9-3.1-1.6-6.2-2.1-9.4
			c-0.3-2.2,0.6,0,2,5C196.1,390.1,196.2,393.7,193.5,384.8L193.5,384.8z M190.2,368c0-1.9,0.2-2.7,0.5-1.8c0.3,1.2,0.3,2.3,0,3.5
			C190.4,370.7,190.2,369.9,190.2,368z M182.1,367.6c-0.1-1.1,0.2-1.6,0.5-1.3c0.3,0.6,0.4,1.3,0.1,1.9
			C182.4,369,182.1,368.8,182.1,367.6z M178,324c-0.7-2.8-1-5.3-0.8-5.5s1,1.9,1.6,4.7s1,5.3,0.8,5.5S178.6,326.8,178,324L178,324z
			 M134.9,316.4c-6.3-13.5-9.1-20.5-8.5-21.2c0.3-0.3,0.9,0.6,1.4,2s3.7,8.4,7.1,15.7s5.9,13.5,5.6,13.8S137.7,322.5,134.9,316.4
			L134.9,316.4z M128.6,318.3c-0.5-1.4-0.4-1.5,0.6-0.6c0.7,0.7,1,1.5,0.7,1.8S128.9,319.3,128.6,318.3z M135.6,306.8
			c-4.3-8.9-7.8-17.8-7.1-17.8c0.3,0,1.2,1.7,2.1,3.8s3.3,7.5,5.5,12.1s3.7,8.6,3.5,8.8S137.6,310.9,135.6,306.8z M175,313.5
			c-0.3-2.8-6.2-22.9-8.4-28.9c-3-8-3.4-11.1-0.5-4.7c4.5,10.2,10.5,31,9.6,33.3C175.4,313.9,175.1,314.1,175,313.5z M178,293.9
			c-0.6-2.4-1.6-5.7-2.1-7.3c-1.2-3.6-1.2-5.6,0-3.6c1.3,2.2,4.3,14.1,3.7,14.7C179.4,298,178.7,296.3,178,293.9L178,293.9z
			 M116.3,274.7c-5.9-10.5-7.9-15.5-3.6-8.7c4.9,7.6,10.5,18,9.6,18C121.9,284,119.2,279.8,116.3,274.7L116.3,274.7z M168.2,268.2
			c-3.5-6.9-6.1-12.7-5.8-12.9c0.6-0.6,12.8,23.7,12.4,24.7C174.6,280.3,171.7,275,168.2,268.2z M157.4,261.8
			c-4.8-11.1-5.1-12.2-2.7-8.3c2.1,3.4,7.6,16.6,7,17.1C161.5,270.8,159.6,266.8,157.4,261.8L157.4,261.8z M228.4,248.9
			c-1.1-1.7,0.1-2.1,1.5-0.5c0.8,0.9,0.9,1.5,0.2,1.5C229.5,249.9,228.8,249.5,228.4,248.9z M140,231.2c-1.4-2.1-3.8-5.4-5.4-7.5
			s-2.7-4.1-2.4-4.4c0.5-0.5,8.8,10.1,10.8,13.9C144.9,236.5,142.5,235,140,231.2L140,231.2z M128.3,220.1
			c-16.3-19.2-28.3-36-28.3-39.3c0-1.9,2.1,0.4,3.5,3.8s10.2,15.3,19.5,26.4c5.6,6.6,12.4,16,11.6,16
			C134.3,227,131.5,223.9,128.3,220.1L128.3,220.1z M43.2,210c0-1.4,0.2-1.9,0.5-1.3c0.3,0.8,0.3,1.7,0,2.5
			C43.4,211.9,43.2,211.4,43.2,210z M46.1,209.6c0-1.1,0.2-1.6,0.5-1.3c0.3,0.6,0.4,1.3,0.1,1.9C46.4,211,46.1,210.8,46.1,209.6z
			 M52.4,206c-0.6-2.7-0.7-5-0.3-5c0.8,0,2.3,8.9,1.7,9.6C53.6,210.8,52.9,208.7,52.4,206L52.4,206z M44.1,206
			c0.1-1.2,0.4-2.4,0.9-3.5c0.5-1.3,0.9-1.4,0.9-0.5c-0.1,1.2-0.4,2.4-0.9,3.5C44.5,206.8,44.1,206.9,44.1,206z M104.7,175.3
			c-0.9-0.9-0.8-7.1,0.1-7.7c0.4-0.3,0.8,1.5,0.9,3.9C105.8,176.2,105.8,176.5,104.7,175.3L104.7,175.3z M102.2,168.5
			c0-1.6,0.2-2.4,0.5-1.8c0.3,1,0.3,2,0,3C102.4,170.7,102.2,170.1,102.2,168.5L102.2,168.5z M55.3,433c1.9,0,8.7-7.4,13.7-14.8
			c4.7-7.1,8-15.2,11-27.1c1.5-5.3,3.5-10.5,6-15.4c5.2-9.5,8.8-20.6,9.7-29.3c0.3-3.8,1.3-10.8,2.2-15.5c1.2-6.2,1.6-15.7,1.7-35.5
			c0.2-25,0.3-27.4,2.3-32.9c1.2-3.3,2-6.1,1.7-6.4c-2-2-24.6,15.8-24.6,19.2c0,0.7,1.6,3,3.5,5.2c3.8,4.1,7.5,10.4,7.4,12.6
			c0,0.7-0.8-0.1-1.8-1.9c-1.9-3-4.1-5.8-6.6-8.3l-4.9-5.2l-3.4,3.5c-4.2,4.4-9.4,14.1-9.4,17.7c0,6.3,1.4,9.4,6.9,15.3l5.6,6v-11.9
			c0-8.1,0.4-12.5,1.3-13.8c1.3-2,1.3-2,0.6,0c-0.4,1.1-0.8,7.7-0.9,14.6c-0.1,10.6,0.2,13,1.6,14.8c1.7,2.1,1.7,2.1,2.1-1.7
			c0.3-3.4,0.4-3.3,0.6,1.2c0.1,2.6,0.6,5.1,1.7,7.5c1.4,2.3,1.5,1.5,1.1-10.5c-0.2-7.1-0.1-11.9,0.3-10.5s0.8,8.4,0.9,15.5
			c0.1,7.6,0.7,15.1,1.5,18c1.4,4.9,1.4,4.9,1.6,1.5c0.2-2.6,0.3-2.9,0.6-1.2c0.2,1.3,0.1,2.7-0.3,4c-0.4,1.1-0.6,2.3-0.5,3.5
			c0.1,1.1-0.2,1.6-0.8,1.2c-0.8-0.8-1.1-1.8-1.1-2.9c0-3.6-3.7-15.5-6.1-19.5c-2.7-3.8-5.6-7.4-8.8-10.7c-3.6-3.9-7.3-8.6-8.3-10.5
			c-1.6-3.4-1.7-3.4-2.2-1c-1.8,8.1-2.6,14.9-3.1,26l-0.6,12.5l4.1,6.3c7.7,11.8,12.2,25.7,11.9,36.8l-0.2,6.9l-0.7-7
			c-0.4-3.9-1-7.7-1.8-11.5c-1.7-6.9-6.6-18.5-9-20.9c-1.1-1.2-2.1-2.5-3-3.9c-1.5-2.3-1.7-2.3-2.4-0.6c-0.5,1.6-0.8,3.3-0.8,4.9
			c-0.1,3.6-3.2,16-6.6,26.3c-3.1,9.3-3,11.3,0.2,19.2c2.4,5.9,2.6,7.6,2.6,20.4c0,9.2,0.3,13.2,0.8,11.8
			C53.5,434,54.5,433,55.3,433L55.3,433z M61.3,418c0.5-1.6,3.3-15.5,4-20c0.4-2.4,0.4-2.4,0.5,0.3c0.2,3.5-2.7,17.7-4,19.7
			C61,419.3,60.9,419.3,61.3,418L61.3,418z M58.1,409.6c0-0.5,0.8-5.7,1.9-11.5s2.2-12.3,2.6-14.5s0.8-3.6,1.1-3.4
			c0.6,0.6-3.5,25.2-4.6,28.1C58.5,409.6,58.1,410.1,58.1,409.6z M54,402.6c1-3.4,1.8-6.8,2.5-10.3c3.1-15.3,4.8-22.5,5.2-22
			s-2.2,13.6-5.3,27.5c-0.9,4-2,7.3-2.5,7.3S53.5,404,54,402.6L54,402.6z M50,397.4c0.5-3.4,1.2-6.7,2.1-9.9
			c1.2-4.4,2.9-11.7,3.9-16.2s2-8.6,2.4-8.9c1.1-1.1,0.6,2.1-2,12.7c-1.4,5.8-3.2,13.4-4,17C50.8,398.8,50,400.7,50,397.4L50,397.4z
			 M79.2,383c0-1.9,0.2-2.7,0.5-1.8c0.3,1.2,0.3,2.3,0,3.5C79.4,385.7,79.2,384.9,79.2,383z M75.8,367.5c0.3-8.8,0.7-16.2,0.9-16.5
			c0.7-0.8,0.1,23.2-0.7,28C75.6,381.5,75.5,376.3,75.8,367.5L75.8,367.5z M80.3,374c0-3,0.2-4.3,0.4-2.8c0.2,1.8,0.2,3.7,0,5.5
			C80.5,378.3,80.3,377,80.3,374z M71.8,369.3c-0.2-0.4-0.1-7.7,0.2-16.3l0.5-15.5l0.2,16.3C73,368.4,72.8,371.6,71.8,369.3
			L71.8,369.3z M67.6,355.9c-0.8-7.3-1-14.6-0.6-21.9c0.3-5.5,0.5-3.1,1.1,9C68.8,359.7,68.6,363.8,67.6,355.9L67.6,355.9z
			 M62.2,346c0-1.9,0.2-2.7,0.5-1.8c0.3,1.2,0.3,2.3,0,3.5C62.4,348.7,62.2,347.9,62.2,346z M61.3,337.5c0-2.8,0.2-3.8,0.4-2.2
			c0.2,1.7,0.2,3.3,0,5C61.5,341.5,61.3,340.2,61.3,337.5L61.3,337.5z M89,340c0-0.6,0.4-1,1-1c0.6,0,1,0.2,1,0.4s-0.4,0.7-1,1.1
			S89,340.6,89,340z M89.2,333.5c-0.1-2.5-0.3-5-0.8-7.5c-0.5-2.1-0.4-2.3,0.6-0.8c0.6,1,1,4.3,0.8,7.5l-0.4,5.8L89.2,333.5z
			 M62.2,329c0-1.9,0.2-2.7,0.5-1.8c0.3,1.2,0.3,2.3,0,3.5C62.4,331.7,62.2,330.9,62.2,329z M80.7,311.4c0.4-9,1.3-9.4,1.3-0.5
			c0,3.9-0.4,7.2-0.8,7.2S80.5,315,80.7,311.4L80.7,311.4z M71.1,306.4c0-3.3,0.3-6.6,0.9-9.9c0.4-1.6,0.5,1.3,0.2,6.5
			C71.6,314.2,70.9,316.3,71.1,306.4z M67.2,303c0-1.7,0.3-3.4,0.8-5c0.6-2,0.8-2.1,0.8-0.5c-0.1,1.7-0.4,3.4-0.8,5
			C67.3,305.2,67.2,305.2,67.2,303z M181.6,396.3c-0.3-0.3-0.6,0.3-0.5,1.3s0.3,1.4,0.6,0.6C182,397.6,182,396.9,181.6,396.3z
			 M317.8,392.8c-0.3-0.7-1-2.8-1.5-4.8s-2.7-8.5-4.6-14.5c-3.4-10.4-3.6-11.8-3.6-24.5c0-13-0.7-18-4.4-31
			c-0.8-2.8-1.3-5.7-1.5-8.6c0-4.1-4.1-16.1-7.6-22c-3.6-6.2-12.3-15.5-18.8-20.1c-4-3.1-7.8-6.4-11.4-10
			c-5.6-5.6-19.1-14.8-20.2-13.8c-0.2,0.2,0.7,1.6,2.1,3.2c1.6,1.9,3,4,4.2,6.2c1.8,3.3,3.8,6.5,6,9.5c3.7,5.1,5.1,6.3,9.8,7.8
			c12.1,4.1,14,4.9,16.2,6.8l2.3,2l-2.4-1.1c-3.3-1.3-6.6-2.5-10-3.4c-4.2-1.3-8.4-2.6-9.4-3c-1.5-0.6-1.4,0,0.7,4.6
			c2,5,3.8,10.1,5.2,15.2c3.1,11,4.5,12.5,15.2,16.3c5.9,2.1,13.7,7.6,16,11.4c1.1,1.8,0.5,1.5-2.3-1.2c-2.2-2.2-7-5-11.5-6.9
			c-4.2-1.7-9.1-4-11-5.1l-3.4-2l0.8,5.3c0.4,2.9,0.9,9.3,1.1,14.1c0.4,10.8,1.6,13,9.3,16.3c3.1,1.4,7.2,3.2,9.1,4.2
			c4,2,13,10.3,13,12c0,0.7-1.5-0.5-3.4-2.6c-3.5-3.8-11.6-9-11.6-7.5c0,0.5,2,3.9,4.5,7.5s4.1,6.7,3.7,6.7s-2.9-3.5-5.5-7.8
			c-4.1-6.7-5.4-8.1-9.5-9.9c-2.6-1.1-4.9-1.9-5.1-1.8c-0.4,0.4,7.5,12.2,10.2,15.2c2.4,2.6,4.7,3.1,2.5,0.5
			c-1.8-2.1-3.1-4.3-2.5-4.3c1.2,1.1,2.2,2.4,3,3.8c2.2,2.8,5,5,8.1,6.6c2.8,1.4,5.5,3.3,7.8,5.5c2.2,2.5,2.2,2.5,0.1,0.7
			c-2-1.6-11.7-6.6-13-6.6c-0.3,0,1.5,2.3,3.9,5.1c8,9.4,13.8,17.4,13.8,18.9c0,1-0.3,0.9-1.1-0.5c-2-3.4-13.3-17.2-22.7-27.4
			c-1.3-1.4-3.7-4.5-5.4-6.8s-3.3-4.2-3.7-4.2s-0.3,3.3,0.1,7.3c0.7,7.3,2.9,14.9,5,17.4c0.6,0.8,0.9,1.6,0.6,1.9
			c-0.9,0.9-4.6-6.3-6.2-11.8c-1-4.2-1.7-8.4-2.1-12.7c-0.6-7.2-2.2-13-3.6-13c-0.4,0-1,3.9-1.3,8.8s-0.8,11.9-1.1,15.8l-0.5,7
			l5.3,3.8c5,3.6,8.1,5.3,23.8,12.7c4.1,2,8.1,4.2,12,6.5C316.8,394.2,318.6,394.8,317.8,392.8L317.8,392.8z M292.3,367.9
			c-6.7-7.2-12.2-13.6-12.2-14.2s0.8,0,1.8,1.3c2.9,3.5,6,6.8,9.2,10c6.2,6.3,14.7,16.1,13.8,16C304.6,380.9,299,375,292.3,367.9
			L292.3,367.9z M308.9,377.3c-1.2-1.6-1.2-1.6,0.4-0.4c0.7,0.5,1.3,1.1,1.8,1.8C311,379.4,310.2,378.9,308.9,377.3z M289.3,370.5
			c-3.1-3-5.4-5.7-5.1-6s3.1,2.2,6.4,5.5s5.6,6,5.1,6S292.4,373.5,289.3,370.5L289.3,370.5z M304.6,372.4c-1-1.4-1.7-2.7-1.4-3
			s1.4,0.9,2.6,2.6s1.9,3,1.4,3S305.7,373.8,304.6,372.4L304.6,372.4z M300.2,356.3c-2.6-3.7-3.4-5.3-2.9-5.3c1.2,1.2,2.2,2.5,3.1,4
			C303.4,359.5,303.2,360.5,300.2,356.3z M285.5,347.9c-0.4-0.6-0.5-1.3-0.2-1.5s0.7,0.2,1.1,1.1C287,349.2,286.4,349.5,285.5,347.9
			z M286,329.4c-1.8-3.1-3-5.7-2.8-5.9s1.8,2.3,3.6,5.6s3.1,5.9,2.8,5.9S287.7,332.5,286,329.4L286,329.4z M280.5,327.9
			c-1.4-2.8-2.4-5.3-2.2-5.5s1.6,2.1,3,5.1s2.5,5.5,2.2,5.5S281.9,330.7,280.5,327.9z M291.4,330.5c-0.9-1.4-1.4-2.8-1.1-3.1
			s1.2,0.9,2.1,2.5C294.2,333.6,293.7,333.9,291.4,330.5z M296,326.9c-0.6-1.1-0.9-2.3-0.7-2.5s0.9,0.7,1.6,2.1
			C298.2,329.5,297.6,329.8,296,326.9z M247.4,366.2c-4.6-10.5-11.6-30.3-12.5-35.2c-0.5-3-1.2-6.4-1.5-7.4s-0.1-1.6,0.4-1.3
			c0.8,0.9,1.4,2.1,1.5,3.4c1.3,7,9.6,28.3,10.9,28.3s0-4.3-4.4-15c-2.3-5.8-4.3-11.7-5.9-17.7c-1.1-4.5-3.3-12.6-4.9-18
			s-3.6-13.3-4.5-17.7c-1.6-7.7-2.6-10.5-2.6-7.3c0,1.3,3.8,22.9,5.5,31.7l0.5,2.5l-1.5-2.6c-1.7-3-6.1-24.1-7.1-34.2
			c-0.9-8.8-2.3-6.7-1.9,2.8c0.5,10.6,4.8,30.9,11.2,51.6c3.1,10.2,16.4,40,17.8,40C248.8,370,248.3,368.3,247.4,366.2L247.4,366.2z
			 M177,337.5c-1.9-13.8-5.4-29.1-8.4-37c-2.2-5.8-2-4,0.8,7.7c2.6,11,6.5,41.1,6.5,50.7c0,8.5,1.4,8.4,2.3-0.1
			C178.8,353.5,178.4,347.7,177,337.5L177,337.5z M173.6,359.7c-0.3-2.9-0.8-10-1.2-15.8c-0.7-12.7-1.7-18.7-5.6-34.9
			c-6.8-28-12.1-36.2-29.9-45.5c-5.9-3.1-14-5.5-14-4.2c0.6,1.6,1.2,3.3,2,4.8c1.4,3.3,2.6,6.6,3.6,10.1c0.9,3.3,2.4,6.4,4.5,9.1
			c8,9.1,11,19.9,11.8,42.6l0.6,17.5l3.1,4.3c3.7,5,13.1,12.6,18.9,15.3C173.8,366,174.3,365.7,173.6,359.7L173.6,359.7z M236,348.9
			c-8.7-19.6-15.6-43.8-17.5-61.6c-0.4-3.4-1.2-6.5-1.7-6.9c-1.4-0.9-0.2,15.4,1.8,25.1c2.4,11.1,5.8,22,10.1,32.6
			c3.4,8.4,11.4,23.3,12,22.6C240.9,360.5,238.7,355.2,236,348.9L236,348.9z M23.6,349.4c1.4-3.1,2.3-5.8,2.1-6
			c-0.5-0.5-4.3,6.4-5.2,9.4C19.2,357,21.1,355,23.6,349.4L23.6,349.4z M249.6,346.4c-0.9-3.2-4-13.7-7.1-23.4s-6.9-22.2-8.6-28
			c-4.2-14.4-4-14-5.1-14c-0.5,0-0.7,0.8-0.5,1.8s0.9,3.8,1.5,6.3c5.7,24.2,16.6,59.3,19.4,62.8C251.1,354,251.2,352.4,249.6,346.4
			L249.6,346.4z M252.5,343.5c-1.5-9.2-4.6-21.3-6.9-26.8c-0.9-2.1-4.1-11.5-7.1-20.8s-5.7-16.9-6-16.7c-0.7,0.7,3.5,16.6,9.7,36.3
			c7.2,22.8,8.4,26.7,9.8,32.4C253.7,354.5,253.9,352.4,252.5,343.5L252.5,343.5z M179.7,339.8c-0.3-0.7-0.5-0.1-0.5,1.3
			s0.2,1.9,0.5,1.3C179.9,341.4,179.9,340.6,179.7,339.8L179.7,339.8z M121.4,337.3c-1-1.5-3.3-5.4-5.1-8.5
			c-5.1-9-6.1-10.1-10.3-11.3l-4-1.2v4.1c0,5.5,4.7,13.5,8.9,15.3c1.7,0.7,3.1,1,3.1,0.5s-2-4.1-4.5-8.2s-4.5-8-4.5-8.5
			c0-1,6.4,8.9,9,13.9c1.4,2.7,6.3,6.6,8.4,6.6C122.8,340,122.4,338.7,121.4,337.3L121.4,337.3z M221.3,326.9
			c-2.1-5.7-3.9-9.6-4.1-8.6c-0.5,2.8,6.3,20.5,7.5,19.3C224.9,337.5,223.3,332.6,221.3,326.9z M103.7,329.1c-2.2-3.9-2.4-4-3-1.9
			c-1.2,4.4-0.8,5.7,2.1,6c1,0.2,2,0.2,3,0.2C105.9,333.3,105,331.4,103.7,329.1L103.7,329.1z M16.8,324.5c0-2.9,0-2.9-0.8-0.5
			c-0.5,1.8-0.8,3.6-0.8,5.5c0,2.9,0,2.9,0.8,0.5C16.5,328.2,16.8,326.3,16.8,324.5z M20.4,302.2c2.2-18.9,2.6-21.2,3.7-21.2
			c0.5,0,0.6,2.4,0.3,5.6c-0.5,4.2-0.4,5.5,0.5,4.9c0.6-0.4,1.2-2.5,1.2-4.6s0.5-3.9,1.1-3.9s0.9,1,0.6,2.5s-0.1,2.4,0.6,2.2
			s1.9-4.6,2.8-9.8c1.3-7.5,1.7-8.5,1.7-4.9c0.1,4.6-3.4,29.5-4.4,31.1c-0.3,0.5-0.2,0.9,0.3,0.9s1.7-3.9,2.7-8.8
			c1-4.8,2.3-9.6,3.8-14.2c2.8-8.1,5.2-28.9,4.8-41.5c-0.2-5-1.6-1-3.5,10c-2.4,13.6-2.3,13.5-2.5,8.9c0.2-4.5,0.7-8.9,1.5-13.3
			c0.9-5.1,1.3-9.5,1-9.8s-0.6,0.4-0.6,1.5c0.1,1-0.2,1.9-0.9,2.6c-0.5,0.3-1.4,4.2-2.1,8.6s-1.7,8.3-2.2,8.6s-0.8-0.2-0.5-1.3
			c0.5-2.8,0.9-5.6,1.1-8.4l0.5-6.5L30,247c-0.9,2.5-1.6,5.1-2,7.8c-0.1,1.5-0.5,3-1.2,4.4c-1.1,3-1.9,6-2.4,9.2
			c-1.6,8.7-1.8,5-0.4-6.4c1.1-9.9,3.7-19.6,7.7-28.8c3.6-8.8,4.1-13.6,0.6-6.1C24,245,19.6,267.3,18.5,296
			c-0.3,7.4-0.7,16.2-1,19.5C16.6,326.6,18.8,316.7,20.4,302.2L20.4,302.2z M119.6,314.7c-1.4-2.3-5.7-8.9-9.7-14.6
			c-5.4-7.8-7.4-10.1-8.3-9.2s-0.9,1.3,0,1.9c0.6,0.4,4.4,5.6,8.3,11.7s7.9,11.8,8.8,12.8C121.6,320.5,122.1,319,119.6,314.7
			L119.6,314.7z M124.6,314.2c-1.1-1.1-1.7,0.4-0.9,2.4s0.8,1.8,1.1,0.1C125,315.9,125,315,124.6,314.2z M114.9,314.8
			c-0.6-1.2-3.8-6.2-7-11.1c-4.3-6.6-5.9-8.4-5.9-6.6c0,3.5,7.8,17.9,10.3,18.9C115.7,317.3,116.2,317.1,114.9,314.8L114.9,314.8z
			 M109,315.7c0-0.2-1.6-3.2-3.5-6.8l-3.5-6.4l0.3,6c0.2,5.4,0.5,6,2.8,6.6C108,315.9,109,316.1,109,315.7L109,315.7z M245.9,304.5
			c-1.2-4.1-2.6-7.5-3-7.5s0.2,2.8,1.3,6.3s2.3,7.4,2.6,8.8s0.7,1.9,1,1.3S247.2,308.6,245.9,304.5L245.9,304.5z M23,308.5
			c0-0.8-0.2-1.5-0.4-1.5s-0.7,0.7-1,1.5S21.5,310,22,310S23,309.3,23,308.5z M17.5,290c0.8-15.2,1.7-24.7,3.2-31.9
			c1.6-7.9,1.2-10.9-0.5-4.5c-1.1,4-3.5,17.6-4.8,27.8c-0.5,5.5-0.6,11-0.4,16.5c0.4,10.2,0.4,10.3,1.3,5
			C16.7,300,17.3,294.1,17.5,290z M9.7,299.3c-0.3-1-0.5-0.2-0.5,1.8s0.2,2.7,0.5,1.8c8.8,0,16,7.1,16-1.8
			C25.7,292.2,18.5,285,9.7,299.3L9.7,299.3z M25,296.7c0-1-0.4-1.5-1-1.2s-1,1.8-1,3.3c0,2.1,0.2,2.4,1,1.2
			C24.6,299,24.9,297.8,25,296.7z M29,292.7c0-0.5-0.4-0.5-1-0.2c-0.7,0.6-1,1.4-1,2.3c0,1.5,0.1,1.5,1,0.2
			C28.5,294.3,28.8,293.5,29,292.7z M166.6,293.3c-0.3-0.3-0.6,0.3-0.5,1.3s0.3,1.4,0.6,0.6C167,294.6,167,293.8,166.6,293.3z
			 M39.1,281.5c0.8-3.5,1.4-7,1.9-10.5c0-2.6-3,6.3-3.5,10.4c-0.3,2.5-0.8,5-1.4,7.5c-0.5,1.7-0.9,3.4-1,5.1
			C35.1,296.8,37.1,290.5,39.1,281.5L39.1,281.5z M10.4,291.5c0.3-0.8,0.2-1.7-0.2-1.9S9.4,290,9.3,291
			C9.1,293.3,9.6,293.5,10.4,291.5z M44.4,278.2c2.3-13,2.9-19,1.7-19.8c-0.6-0.4-1,0.8-1,3.2c0,3.8-2.2,18.3-3.5,23.7
			c-0.5,1.9-0.4,2.7,0.3,2.3S43.5,283,44.4,278.2L44.4,278.2z M79,270.7c0-0.7-10.2-7.7-11.3-7.7c-0.2,0-0.7,2.1-1,4.8
			s-0.9,6.4-1.3,8.5c-0.6,3.5-0.5,3.8,1.7,3.9c2.3,0.1,2.3,0.1-0.3,1.2c-1.7,0.6-2.9,2.1-3.1,3.9c-0.4,2.5,0.5,1.9,7.4-5.4
			C75.5,275.2,79,271.1,79,270.7L79,270.7z M69.5,276c-1-1.1-1.3-2-0.8-2c1.3,0,3.8,2.9,3.1,3.5C71.5,277.8,70.5,277.1,69.5,276
			L69.5,276z M71,271c-0.8-0.5-1.2-1.1-0.9-1.4s1.2-0.1,1.9,0.4s1.2,1.1,0.9,1.4S71.8,271.5,71,271z M201.2,272.5
			c-1-4.1-1.5-8.3-1.6-12.5c0.2-4.2,0-4.6-4.3-7.8c-2.5-1.8-4.8-3.1-5.1-2.8s0,5,0.6,10.3c1.2,9.9,4.4,18.6,9.4,25.6l2.3,3.2l0.3-4
			C203,282.3,202.3,276.9,201.2,272.5L201.2,272.5z M195,259c-1.4-1.1-2-2-1.4-2s1.9,0.9,2.9,2C198.8,261.5,198.2,261.5,195,259z
			 M15,271.7c0.7-4.8,1-9,0.7-9.3s-1,2.8-1.6,6.8c-2.1,13.2-2.2,14.4-1.2,12.8C13.4,281.2,14.3,276.5,15,271.7L15,271.7z
			 M204.1,259.3c-0.7-2.1-0.8-4.4-0.5-6.6c0.4-2.4,0.2-3.6-0.7-3.9s-1.3,1.7-1.1,10.9c0.2,13,1.3,16.5,2.7,8.4
			C205,264.2,204.9,261.5,204.1,259.3z M42.3,264c0.3-2.5,0.8-8.3,1.1-13l0.5-8.5l-1.4,6.5c-1.3,5.8-2.1,21-1.1,19.9
			C41.9,267.3,42.2,265.7,42.3,264z M80.9,266.4c-1.2-1.2-2.5-2.4-3.9-3.4l-2.7-1.9l0.4,2.3c0.4,2.4,5.1,5.9,6.5,5
			C81.7,268.1,81.6,267.2,80.9,266.4L80.9,266.4z M84.4,265.2c0.3-0.5-1.7-3-4.5-5.6s-4.8-5-4.6-5.2s2.7,1.9,5.6,4.6
			c4.4,4.2,5.5,4.8,6.8,3.8s1.3-1.4,0.2-2.3c-1.7-1.6-3.3-3.3-4.8-5c-2.8-3.1-2.4-2.9,1.8,1l5.3,5l2.6-2.6c2.4-2.4,2.5-2.8,1.6-8.1
			c-1-4.3-2.4-8.4-4.3-12.4c-4.3-8.9-4.4-9.4-1.9-6.4c1.9,2.9,3.5,5.9,4.7,9.2c1.6,4,3.1,6.5,3.8,6.2s2.1,0.6,3.1,1.8l1.9,2.3
			l-2.1-1.8c-2.9-2.5-3.4-2.2-3.4,1.8c0,1.9,0.4,3.5,0.8,3.5c2.1-0.7,4.1-1.5,6.1-2.5c2.9-1.4,6.1-2.3,7.1-2
			c3.9,1.2,2.7-1.5-3.4-8.1c-9.9-10.6-23.9-18.8-43-25c-1.7-0.5-1.8-0.2-1.2,2.8c1,3.6,2.4,7.1,4,10.4c4.3,8.9,7.5,19.5,7.6,24.9
			c0,3.7,0.6,4.5,4.3,7.3C82.8,266.1,83.5,266.4,84.4,265.2L84.4,265.2z M82.5,247c-2.7-2.8-4.7-5-4.4-5s2.7,2.3,5.4,5s4.7,5,4.4,5
			C86,250.5,84.1,248.8,82.5,247z M82.4,239.4c-2.7-2.5-4-4.1-2.9-3.6c2,1,9.3,8.1,8.3,8.1C87.5,244,85.1,241.9,82.4,239.4
			L82.4,239.4z M98,241.5c-1.3-1.4-2.1-2.7-1.8-3s1.8,0.9,3.4,2.5s2.4,3,1.8,3S99.3,242.9,98,241.5z M100.6,239.8
			c-2.4-3.4-2-4.6,0.5-1.4c1.2,1.5,1.9,2.9,1.6,3.2S101.5,241.1,100.6,239.8z M80,229.5c-0.7-0.8-0.8-1.5-0.3-1.5
			c0.9,0.2,1.7,0.8,2.3,1.5c0.7,0.8,0.8,1.5,0.2,1.5C81.3,230.8,80.6,230.2,80,229.5z M71.9,255.2c-0.5-7.3-4.4-23.1-5.4-22.1
			c0,2.1,0.2,4.2,0.6,6.3c0.5,4.2,0.8,8.5,0.7,12.8c-0.1,5.8,0.2,7.1,2.2,9.3c1.3,1.4,2.4,2.5,2.4,2.5S72.2,260,71.9,255.2
			L71.9,255.2z M150.3,261.1c-1-1.6-5.7-7.7-10.3-13.6s-11.8-14.8-15.8-19.8s-11.8-15.9-17.4-24.2c-12.7-18.9-13-19.3-18.4-23.1
			c-6.2-4.4-12.8-5.9-18-4.1c-6.1,2.2-11.1,6.6-14,12.5l-2.6,5.3l4.1,8.4c2.3,4.6,4.1,9.1,4.1,10c0,1.7,4.1,3.8,10,5
			c1.9,0.4,8.6,3.5,14.8,6.9c11.4,6.2,19.7,13,26.1,21.4c2.7,3.5,3.8,4.3,6.6,4.3c4.9,0,19,5.4,26,9.9c3.3,2.1,6.1,3.9,6.3,4
			S151.4,262.6,150.3,261.1L150.3,261.1z M198.9,248.6c-0.6-2.6-1.4-4.6-1.8-4.6s-3-1.8-6-4.1c-5.8-4.4-7.3-4.7-4.2-0.7
			c1.1,1.4,1.8,2.7,1.5,3c-1.2,1.2,2,5.5,6.3,8.5c2.6,1.8,4.8,3.1,5,2.9S199.6,251.1,198.9,248.6L198.9,248.6z M193.2,245.8
			c-2.4-1.7-4.1-3.3-3.8-3.6c0.5-0.5,8.6,5.4,8.6,6.3C198,249.2,197.8,249.1,193.2,245.8L193.2,245.8z M245.4,251.7
			c-0.4-1.2-4.4-2.2-4.4-1.1c0,0.4,3,1.8,4.7,2.3C245.8,252.9,245.7,252.4,245.4,251.7z M239,249.1c0-1.3-4.1-3.8-10-6.1
			c-6.3-2.5-6.6-1.8-0.4,1.1c2.5,1.2,5.1,3,5.7,4C235.5,250,239,250.7,239,249.1L239,249.1z M208,243.9c0-0.5-1.4-0.9-3.2-0.9
			c-3.1,0-3.1,0.1-1.4,2c1.4,1.5,2.1,1.7,3.2,0.9C207.3,245.4,207.8,244.7,208,243.9z M197.9,241.7c-2.3-2.2-4.8-4.3-7.4-6.3
			c-1.8-1.2-3.4-2.6-5-4.1c-3.8-4.5-26.5-4.4-29.7,0.1c-1.2,1.7-0.2,1.7,4.1,0c3.1-1.2,6.1-1.6,11.4-1.2c8.1,0.5,13.6,3,23.3,10.3
			C201.6,245.9,202.5,246.1,197.9,241.7L197.9,241.7z M237.5,243c-0.5-0.6-1.3-1-2.1-1c-0.8,0-1.2,0.4-0.9,1c0.5,0.6,1.3,1,2.1,1
			C237.4,244,237.8,243.5,237.5,243z M34.9,234c0-0.8-0.6,0.1-1.4,2c-1.8,4.6-1.7,6.4,0,2.5C34.2,237.1,34.6,235.6,34.9,234
			L34.9,234z M210.8,237.5c0.4-4.8-0.7-5.5-8.3-5.4c-3.8,0-8.5,0.1-10.4,0c-3.1,0-3.3,0.1-1.5,1.1c1.8,1.2,3.6,2.5,5.1,4
			c2,1.9,3.9,2.8,5.4,2.6c2.1-0.3,1.9-0.6-1.9-3.2c-2.3-1.6-4-3.1-3.7-3.4c0.7-0.7,8.6,5.7,8.6,6.9c0,0.5,1.5,0.8,3.3,0.7
			C210,240.5,210.5,240,210.8,237.5L210.8,237.5z M203,235.9c-1.9-1.6-3-2.9-2.5-2.9c1.3,0,7.1,4.7,6.5,5.3
			C206.7,238.6,204.9,237.5,203,235.9L203,235.9z M230,240.6c0-0.2-1.4-0.9-3-1.4c-3.5-1.2-4.1-0.5-0.8,0.8
			C228.8,241,230,241.2,230,240.6L230,240.6z M239.5,239.9c-0.9-1.4-12.2-6.6-16.3-7.5c-6.5-1.4-2.8,1.6,5.8,4.6c3,1,6,2.1,8.9,3.4
			C238.8,241.4,240.1,241,239.5,239.9L239.5,239.9z M26.9,234c0-1-0.4-0.8-0.9,0.5c-1.2,2.8-1.2,4.3,0,2.5
			C26.5,236.1,26.9,235.1,26.9,234z M39.3,229.5l0.6-3l-1.4,3c-1.6,3.4-2.1,7.2-0.6,4.5C38.5,232.6,39,231,39.3,229.5L39.3,229.5z
			 M14,225.7c4.3-9.6,4.4-9.9,3.4-9.7c-2.5,0.5-4.6-0.4-8.6-3.4l-4.4-3.4l0.8,6.6c1,8,3.5,17.1,4.7,17.1
			C10.4,233,12.2,229.7,14,225.7z M202.9,229.1l5.4-0.7l-5.5-5.8c-10.2-10.6-21.7-13.5-32.5-8.2c-4.7,2.4-11.2,8.4-11.2,10.3
			c0,0.4,3,0.6,6.8,0.4c5.1-0.3,9,0.2,15.8,2.1C190.9,230,194,230.2,202.9,229.1z M261.4,225.9c1.1-6.7-1.8-28.9-4.5-34
			c-1.2-2.3-2-6.4-2.6-13.4c-0.4-4-1.5-8-3.5-11.5c-3.5-6.4-11.5-15-14-15c-0.9,0-3.1-1.3-4.7-3c-2.7-2.7-11.6-7-14.4-7
			c-0.6,0,1.5,1.6,4.8,3.6c2.6,1.5,5.1,3.2,7.4,5.2c0.9,0.9-0.2,0.6-2.5-0.8c-9.5-5.6-16.2-8.8-19.5-9.4c-3.1-0.6-2.9-0.3,1.8,1.9
			c4.9,2.3,11.3,6.5,9.8,6.5c-1.5-0.6-3-1.4-4.4-2.3c-3.8-2.4-10.3-5-10.9-4.3c-0.2,0.2,1.4,1.6,3.7,3c5.1,3.4,5.3,4.5,0.3,1.3
			c-2.6-1.6-5.4-2.9-8.3-3.9c-12.2-4.3-14.9-4.4-5.3-0.2c3.3,1.5,6.5,3.3,9.4,5.5c3,2.4,4.6,3,9,3c3.5,0.1,6.9,0.5,10.3,1.3
			c7.9,2.1,23.4,10,22.2,11.3c-0.3,0.3-1.8-0.4-3.4-1.5c-3.9-2.8-12.9-6.9-18-8.2c-5.4-1.4-9.2-1.5-17.3-0.5
			c-6.4,0.8-6.5,0.8-4.1,2.4c4.6,3,16.5,13.3,20.1,17.2c2.5,2.8,6,4.9,11.9,7.4c10.7,4.4,12.6,5.7,15.7,10.7c3.3,5.3,2.4,6.3-1,1.1
			c-2-2.7-4.6-5-7.6-6.7c-5.4-2.9-10.9-4.8-10.9-3.7c0,0.7,5.5,7.9,16.8,22.2c3.5,4.4,5.9,8,5.5,7.9s-3.7-3.7-7.3-8.2
			s-6.6-7.6-6.8-7c-0.4,1.3,2.3,6.9,4.5,9.5c0.9,1,1.3,2,1,2.3c-0.9,0.9-5.6-6.6-7.8-12.6c-2.5-6.5-9.6-16.5-14.4-20.3
			c-3.5-2.7-3.6-2.7-3.6-0.7c0,5.6,3.4,16.4,6.7,21.3c1.4,2.1,2.9,4.1,4.6,5.9c0.6,0.4,0.8,1,0.4,1.3c-1.2,1.2-8.6-10-11.1-16.6
			c-1.4-3.8-2.5-7.8-3.2-11.8c-0.6-4.6-1.4-6-5.9-10.5S193,152,190.1,152s-0.5,2.3,5.6,5.4c6.6,3.4,19.3,12,19.3,13.2
			c0,0.4-0.6,0.2-1.3-0.3l-5.3-4c-5.5-4.3-17.9-10.5-18.3-9.3c-0.6,1.8,0.7,3.9,2.4,3.9s10.8,5,10.2,5.6c-0.2,0.2-2.7-0.8-5.6-2.3
			s-5.4-2.4-5.7-2.2c-1.6,1.6,9.3,21.1,16.4,29.4l3.5,4l-3.7-3.4c-4-3.7-12.2-15.2-15.5-21.7c-2.1-4-5.3-14.2-5.7-17.9
			c-0.1-1.1-0.3-2.3-0.4-2.6c-0.1-0.7-11.3-4.9-12.7-4.8c-0.5,0,2.2,1.6,6,3.6s6.6,3.8,6.3,4.1s-3.1-0.8-6.4-2.5
			c-5.9-3.1-15.5-6.4-16.2-5.7c-1.1,1.1,1.1,3.4,4,4c3.8,0.8,17.8,7.1,17.8,7.9c0,0.3-1.4-0.1-3.2-1c-4.3-2.2-13.7-5.4-16-5.4
			c-3.6,0-1.8,1.9,3.4,3.6c6.7,2.2,16.4,7,17.4,8.7c0.6,1,0.4,1-0.7,0.1c-1.9-1.5-14.6-7-18.2-7.9c-2.7-0.7-2.7-0.6-1.6,1.8
			c0.7,1.6,1.7,2.3,2.9,2c1.8-0.5,14,4,17.6,6.4c3,2,1.4,1.6-6.1-1.5s-12.4-4.5-12.4-3.5s4.2,6.6,10.9,14.4c3.8,4.4,4.9,6.1,2.6,4
			c-6.6-6.1-10.3-10-12.7-13.5c-2-2.9-6.5-5.2-7.8-3.9c-0.8,0.8,2.4,5.8,6.4,9.8c2.2,2.3,8.4,6.6,13.9,9.6
			c6.9,3.9,11.5,7.3,15.5,11.6c2.7,2.9,5.5,5.6,8.6,8.1c4.1,2.8,13.8,6.1,21,7.3c12.7,2,26.1,10.5,31.1,19.7c1,1.9,2.1,3.4,2.5,3.4
			S261,228.2,261.4,225.9L261.4,225.9z M248.5,196.4c-0.9-1.4-1.2-2.3-0.6-1.9c1.2,0.7,3.5,4.6,2.8,4.6
			C249.8,198.2,249.1,197.4,248.5,196.4z M230.3,194.7c-1.5-1.9-2.4-3.8-2-3.8c0.8,0.7,1.6,1.5,2.1,2.5
			C232.1,196.1,232,197,230.3,194.7z M240.6,191c-2-2.8-3.3-5-2.9-5c0.8,0,7.6,10,6.9,10C243.1,194.5,241.8,192.8,240.6,191z
			 M233,194.3c0-0.4-1.9-3.2-4.1-6.3s-3.1-4.6-1.9-3.5c3.1,2.8,8.4,10.5,7.1,10.5C233.5,195,233,194.7,233,194.3L233,194.3z
			 M209.7,182.9c-2.1-1.1-3.8-2.2-3.8-2.5s1.8,0.4,4,1.5s4,2.3,4,2.5C214,185.2,214,185.2,209.7,182.9L209.7,182.9z M203.7,173.3
			c-3.2-2-5.6-3.8-5.3-4.1c0.5-0.5,11.6,6.4,11.6,7.2S210,177.2,203.7,173.3z M211.4,172.8l-1.9-2.3l2.3,1.9
			c2.1,1.8,2.7,2.6,1.9,2.6C212.8,174.4,212,173.6,211.4,172.8L211.4,172.8z M227.4,168.2c-4-3.8-8.3-7.1-13-9.9
			c-3.2-1.8-5.3-3.2-4.6-3.2c3.8-0.1,16.1,8.8,21.7,15.6c1.2,1.4,2.3,2.8,3.3,4.4C234.6,175,231.3,171.9,227.4,168.2L227.4,168.2z
			 M243.6,170.2l-3.8-4.7l4.4,4.2c2.4,2.3,4.1,4.4,3.8,4.7S245.6,172.8,243.6,170.2L243.6,170.2z M232.2,166.3
			c-2.9-2.9-4.9-5.4-4.5-5.4c1.1,0,10.8,9.8,10.2,10.3C237.7,171.5,235.1,169.3,232.2,166.3L232.2,166.3z M206.2,169.7
			c-1.2-0.6-2.3-1.5-2.3-2c0-1,3.6,0.7,4.5,2.2C209.2,171.1,209.1,171.1,206.2,169.7L206.2,169.7z M180.6,167.5
			c-2.3-0.8-4.4-1.9-6.5-3.1c-0.4-0.4,0.2-0.4,1.3,0l7,2.8c1.9,0.7,3.7,1.5,5.4,2.4C188.9,170.5,186.1,169.7,180.6,167.5
			L180.6,167.5z M19,214.5c-0.6-1.3-1.2-2.6-2-3.8c-2.9-5-4.7-10.6-5.5-16.4c-0.4-2.7-0.9-5.9-1.2-7.2s-0.3-2.2,0-2.2
			s1.5,4.4,2.7,9.8c2.2,9.6,5.3,17.3,6.9,17.3c1-0.3,1.8-1,2.4-1.8c1.3-1.5,1.4-2.6,0.5-6.8c-0.6-2.7-1.5-5.3-2.9-7.6
			c-0.9-1.2-1.5-2.5-1.8-4c0-0.8,0.5-0.5,1.2,0.7c0.7,1.2,1.5,2.3,2.5,3.3c0.7,0.7,1.2,1.5,1.3,2.5c0.2,1.6,0.5,3.2,1,4.8
			c0.9,3.1,1.4,3.6,3.1,3.1c2-0.5,7.7-5.9,7.8-7.3c0-0.3-1.2-1.1-2.7-1.8c-4.8-2.2-15.4-11.5-17.3-15.1c-2.1-4.2-8.7-12-10.1-12
			c-0.6,0-0.7,2-0.4,4.8s0.7,9.7,1,15.8S6,202.2,6.3,203s0.2,1.2,0,0.8C5.4,202.3,4,203,4,204.8c0,2.1,4.1,6.2,8.5,8.5
			C15.3,214.8,19,215.5,19,214.5L19,214.5z M10.1,201.9c-0.5-1.4-0.9-2.8-1-4.3c0-0.6,0.7,0.7,1.5,2.8s1.3,4.1,1,4.3
			S10.7,203.6,10.1,201.9z M17.2,198.8c-0.6-2.3-0.9-4.4-0.7-4.6s0.9,1.5,1.5,3.8s0.9,4.4,0.7,4.6S17.8,201.1,17.2,198.8z
			 M14.6,190.4c-0.4-1.5-0.5-2.9-0.2-3.1s0.7,0.8,1.1,2.2s0.5,2.9,0.2,3.1S14.9,191.9,14.6,190.4z M38.4,200.1c-1-1-6.4,5.5-6.4,7.5
			c0,4.2,2.5,3.2,4.7-2C37.8,202.8,38.6,200.3,38.4,200.1z M99.1,157.7c0.6-1.5,1.7-2.8,2.4-2.8s2.3-1.6,3.5-3.6
			c2.8-4.6,2.4-11.7-1.2-19.5c-3.2-7-6.3-9-19.1-12.2l-9.7-2.5v2.1c0.1,8.8,7.9,28.1,16.7,41.4l4.8,7.3l0.8-3.7
			C97.7,162.1,98.3,159.9,99.1,157.7L99.1,157.7z M108.4,161.4c0.4-1,0.2-1.3-0.5-0.9c-2.2,1.4,2.9-9.9,5.2-11.6
			c1.6-2,3.2-4,4.6-6.2c2.1-3.1,8.1-10.6,13.3-16.5s7.7-9.2,5.5-7.3c-6.5,5.8-19.9,19.3-22.2,22.4c-1.2,1.6-2.4,2.6-2.8,2.4
			s-0.9-3.2-1.4-6.5c-1-7.2-3-11.3-6.6-13.7c-3.3-2.2-15.5-14.5-14.4-14.5c0.5,0,3.2,2.5,6.1,5.5s5.4,5.3,5.6,5.1s-0.3-2-1.1-3.9
			c-1.1-2.7-2.7-4.1-7-6.1c-3-1.4-6.6-2.6-7.8-2.6c-2,0-1.7,0.6,2.6,5c2.7,2.7,4.7,5.2,4.4,5.5s-3.1-2.2-6.3-5.6
			c-5.4-5.6-6.3-6.2-11.9-7.1c-7.7-1.3-14.6-5-18.5-9.9s-3.9-5.5,0.2-1.7c7.1,6.7,12.6,9,24.1,10.2l5.8,0.6l-3.3-4.6
			c-2.3-3.1-5-5.8-8-8.3c-5.1-3.9-6.5-6.5-2-3.6c4.1,2.6,7.9,6.4,12.1,11.8c2.3,3,5.1,5.4,8.4,7.3L97,109l-1.2-2.8
			c-3.3-7.6-9.6-15.8-13.7-18L77.8,86l5.2,5.7c5.8,6.4,10.5,13,9.8,13.8c-0.3,0.3-1.6-1.2-3-3.3c-2.6-3.5-5.4-6.9-8.4-10.1
			c-5.9-6.3-9.4-8.1-16.4-8.2c-2.3,0-2.2,0.2,2,4.7c2.5,2.6,6,6.5,8,8.7c3.3,3.7,3.3,3.8,0.5,1.5c-3.2-2.9-6.2-5.9-9-9.1
			c-3.8-4.2-7-6.9-8.9-7.3C54.8,82,43.1,74.1,43,72.8c0-0.4,2.6,1.1,5.7,3.2c6.7,4.4,14.5,6.9,22.5,7c2.9,0,5.7,0.5,8.4,1.5
			c3.4,1.4,3.5,1.4,2.2-0.2c-2-2.6-4.8-5.3-5.3-5.3c-0.3,0-0.2,0.7,0.2,1.6s-2.3-1.3-5.8-4.8c-2.8-2.9-5.8-5.5-8.9-8
			c-1.9-1.2-2.1-1.6-0.8-1.7c0.9,0,4.6,2.9,8.3,6.4s6.6,6,6.6,5.4c0-1.6-9.9-10.6-13.6-12.3c-2.9-1-5.9-1.5-9-1.5
			c-6.6,0.1-13.1-1.3-19.1-4c-6.4-3-5.1-3.2,2.3-0.4c4.4,1.8,9.2,2.6,14,2.3l7.5-0.2l-4.9-3.3c-3.6-2.3-7.5-4.1-11.5-5.6
			c-5.7-2-7-2.1-10-1.1c-2.4,0.8-4.8,1.1-7.3,1.1c-4.4-0.1-3.9-0.4,2-1.4c3.4-0.6,3.7-0.8,2.2-1.7c-1.1-0.6-5.4-0.8-10.5-0.5
			c-5.9,0.4-7.9,0.2-6.3-0.4c1.3-0.5,5.4-1,9-1.1l6.6-0.1L24,46.2c-3.2-1.4-3.3-1.6-1.2-1.9c1.3-0.2,3.9,0.7,6,2.1
			c2.2,1.4,4.6,2.5,7.2,3.2c3.5,1,6.9,2.1,10.2,3.5c3.7,1.5,6.8,2.4,6.8,2c0-0.8-4.3-5.2-8-8c-1.4-1.1-2-1.9-1.4-2
			c2.3-0.1,8,4.7,10.9,9.1c2,2.9,4.5,5.4,7.4,7.4c3.7,2.5,7.1,5.3,10.4,8.4l6,5.6L77.6,72c-1.3-6.6-7.3-17.4-12.6-22.5l-5.1-5
			l-12.2-0.9c-19.6-1.5-24.6-1.3-31.8,1.2C12.4,46,9,47.7,6,49.9l-3.5,2.9l5-0.1c7.3-0.2,16.6,3.7,23,9.5c4.3,3.9,6.5,7.3,11.5,17.4
			c5.7,11.5,10.2,18.3,16.9,25.7c3.8,4.2,12.4,8.2,23.6,11c13.1,3.3,14.5,3.9,18.7,7.8c2.6,2.4,4.1,5.3,5.7,10.2
			c3,9.7,2.8,14.5-1,21.1c-1.7,3-2.8,5.9-2.4,6.5C104.4,163.5,107.6,163.2,108.4,161.4L108.4,161.4z M78.6,110.4
			c-2.2-1.9-3.5-3.4-3-3.4c1.3,0,8,5.7,7.4,6.3C82.7,113.6,80.7,112.3,78.6,110.4L78.6,110.4z M70.4,107.8l-1.9-2.3l2.3,1.9
			c0.9,0.6,1.6,1.4,2.3,2.2C73,110.4,72.2,109.8,70.4,107.8L70.4,107.8z M60,89.4c-2.5-2.5-3.7-4.3-2.8-3.9c1.4,0.5,8.5,8.5,7.6,8.5
			C63.1,92.6,61.5,91.1,60,89.4z M65,75.1c-2.3-2.4-4.8-4.7-7.5-6.8C55.8,67,55,66,55.7,66c1.4,0,15,12.6,14.3,13.2
			C69.7,79.5,67.5,77.6,65,75.1L65,75.1z M55.6,71.9c-2.1-1.6-3.3-2.9-2.5-2.9s3,1.4,4.9,3C62.4,75.8,60.7,75.7,55.6,71.9L55.6,71.9
			z M48.6,70.5c-1.1-0.8-1.5-1.5-0.9-1.5c0.9,0.2,1.7,0.8,2.3,1.5C51.6,72.4,51.1,72.3,48.6,70.5L48.6,70.5z M72,67.2
			c-1.6-1.6-3.3-3.1-5-4.5c-1.9-1.5-2.6-2.4-1.5-1.8c2.7,1.3,10.3,8.1,9,8C73.5,68.5,72.7,67.9,72,67.2z M66.1,58.6
			c-1.9-1.4-4-2.6-6.2-3.6c-1.6-0.7-2.9-1.6-2.9-2.1c0-0.9,9.6,4.4,12,6.7S69.8,61.3,66.1,58.6L66.1,58.6z M59.5,50.4
			c-1.9-1.5-1.8-1.5,0.3-0.5c1.2,0.6,2.2,1.3,2.2,1.5C62,52.3,61.5,52.1,59.5,50.4L59.5,50.4z M165,159.2c0-1.8-2.7-4.3-5.7-5.1
			s-3.2-0.9-2.1,1.5c0.9,1.6,2.4,2.8,4.2,3.3l3.3,1C164.9,159.9,165,159.6,165,159.2L165,159.2z M118.4,150c2.3-1,4.8-2.1,5.6-2.4
			c1.2-0.4,1.1-0.5-0.3-0.6c-4.2-0.2-13.7,6.4-13.7,9.4c0,0.6,0.9-0.3,2.1-1.8C113.9,152.7,116,151.1,118.4,150z M161.8,151.8
			c-0.4-1.2-8-3.8-11.3-3.8c-2,0-2,0,0,1.3C154.8,152.3,162.5,154,161.8,151.8L161.8,151.8z M205.8,150.7
			c-0.6-1.8-14.6-8.6-19.3-9.2l-4-0.6l4,1.8c2.2,1,5.9,2.6,8.3,3.6s4.1,2.1,3.8,2.3s-4.2-1.1-8.8-3c-8.1-3.4-19.1-6.1-15.8-3.8
			c0.9,0.6,1.9,1,3,1.1c0.8,0,5.8,2.1,11,4.5c6.6,3.1,10.8,4.4,13.8,4.5S206.1,151.6,205.8,150.7L205.8,150.7z M161,148.2
			c0-1.3-13.5-3.9-15.6-3c-1.3,0.5-0.7,0.8,2.1,0.9c2.6,0.2,5.1,0.7,7.5,1.5C159.1,149.1,161,149.3,161,148.2L161,148.2z
			 M159.7,143.4c-0.3-0.3-2-0.4-3.9-0.1l-3.4,0.4l3.5,1C159.1,145.5,161.2,144.8,159.7,143.4L159.7,143.4z M201.5,139.8
			c-0.9-0.5-2-0.7-2.4-0.3c-0.9,0.9,2,2.6,3.1,1.8C202.8,141,202.5,140.3,201.5,139.8z M36.2,127.8c7.5-2.3,10.2-9.5,5.2-14.2
			c-2.2-2-3.1-2.3-5.8-1.5c-1.7,0.5-3.3,0.9-3.4,0.9c-1.5,1.2-2.9,2.6-4.2,4c-2.7,2.8-3.9,4.9-3.9,6.8l0.1,2.7l1.6-2.5
			c3.6-5.2,5.8-7,9.2-7.6l3.5-0.6l-4.5,2.3c-4.8,2.5-7.7,6.4-6.7,9.1C28,129.3,30.8,129.4,36.2,127.8z M196,126.4
			c14.6-2.3,25.7-8.1,37.4-19.5c7-6.8,11.1-9.9,17.5-13c4.9-2.4,9.4-5.5,13.4-9.1c3-2.9,6.2-5.5,9.5-8c5.1-3.6,18.6-9,26.6-10.8
			c4.9-1.1,5.3-1.4,3.7-2.5c-2.3-1.6-12.2-5.4-14-5.4c-1.5,0-14.5-5-27.6-10.6c-13.8-5.9-19.3-6.9-36.5-6.9c-19.6,0-27.7,1.8-41.7,9
			c-11,5.6-16.2,9.3-16.3,11.3c-0.1,1.4-3,5.9-7.3,11c-4.9,5.9-12.8,24-12.8,29.6c0,1.8,0.3,1.7,3.3-1c1.8-1.7,7.4-6.1,12.4-9.8
			c10.1-7.5,13.2-11.2,5.8-7.1c-2.4,1.3-4.6,2.7-6.7,4.4c-0.8,0.9-1.8,1.5-2.9,2c-1.4,0.7-2.7,1.5-3.9,2.6c-1.7,1.4-3.4,2.4-3.6,2.1
			c-0.8-0.8,11.8-10.3,17.5-13.3c4.5-2.3,7.1-4.9,7.1-6.9c0-0.3-1.2,0.3-2.8,1.3c-6.5,4.5-19.5,12.2-19.9,11.9s10.8-8.1,18.1-12.3
			c2.8-1.6,8.4-6.2,12.5-10.4c10.2-10.2,15.3-13.9,25.5-18.7c8.3-3.9,8.6-2.6,0.4,1.5c-4.4,2.2-8.6,4.7-12.7,7.5
			c-7.6,5.6-17.8,17.1-20.6,23.3c-3,6.6-3.1,7.1-0.8,5.1c6.4-5.5,35-17.9,36.3-15.7c0.3,0.5,2.4-0.7,4.5-2.6
			c8.9-8.1,23.6-15.5,30.2-15.4c1.9,0,1,0.5-2.7,1.5c-8.3,2.4-15.9,6.7-22.2,12.4l-5.3,4.8l6.5-1.5c13.7-3.2,19.6-4.3,22.5-4.3
			c1.6,0,5-1.2,7.5-2.7c5.6-3.3,14.7-5.6,16.9-4.3c1.2,0.7,0.6,0.9-2.2,1c-3.9,0-10,2.1-11,3.7c-0.3,0.5,2.9,0.5,7.6,0.1
			c8.4-0.8,28.4,0,29.1,1.1c0.2,0.3-6.2,0.5-14.3,0.3s-15.8,0.1-17.2,0.6l-2.5,0.9l3,1.2c1.6,0.7,7.2,1.4,12.4,1.6s9.6,0.6,9.9,0.9
			s-4,0.5-9.4,0.5c-8.4,0-10.7-0.4-15.1-2.4c-4.7-2.2-5.8-2.3-12.5-1.5c-8.7,1.1-20.6,3.8-21.3,4.9c-0.3,0.4,2.6,2,6.3,3.5
			c5.9,2.4,8.6,2.8,20.9,3.4c7.8,0.3,14.6,1,15,1.5S264,78,256,77.7c-13.4-0.4-15.2-0.8-24.5-4l-10-3.6l-8,2.5
			C199.1,77.3,177.3,89,183.3,89c2.9,0,3.1,0.1,5.3,1.5c1.2,0.8,5.9,2.4,10.5,3.7c7.3,2,10.5,2.3,24.7,2.1c9-0.1,16.2,0,15.9,0.3
			c-1,1-23,2.1-29.8,1.5c-8.7-0.8-11,0-21.1,7.7c-7.1,5.4-11.9,8.5-11.9,7.8s17.1-13.7,19.6-14.8c1.3-0.6,2.4-1.4,2.4-1.7
			s-2.2-1.3-4.8-2.2c-5.8-1.9-5.6-1.9-21.4,8.8c-5.9,4-10.7,7-10.7,6.6c0-0.9,20.3-15.3,23.4-16.7c1.8-0.8,1.8-1,0.4-1.3
			c-1.9-0.5-8.8,2.8-13.8,6.6c-4.6,3.4-14.9,10.1-15.7,10.1c-1.6,0,2.6-3.3,13.1-10c6.4-4.1,11.1-7.6,10.5-7.8
			c-2.3-0.8-6,1-12.7,6.1c-3.8,2.9-8.8,6.5-11.1,8c-1.5,0.9-3,1.9-4.3,3.2c0,0.2,3.9,1.6,8.8,3.1s10.1,3.2,11.8,3.8
			c3.3,1.3,25.8,1.6,34.5,0.4l5.5-0.7l-5,1.5c-6.8,2-22.7,2.9-29.7,1.6c-5.6-1.1-5.8-1-8.9,1.9c-1.6,1.5-3.4,2.9-5.3,4
			c-1.1,0.6-0.2-0.7,2.2-2.8c4.5-4,5.2-5.3,2.7-5.3c-3.1,0-12.5,7.2-12.5,9.6S182.4,128.6,196,126.4L196,126.4z M169.9,124.6
			c1.7-2,7.1-5,7.1-3.9c0,0.4-1.9,1.9-4.3,3.2C169.6,125.7,168.9,125.9,169.9,124.6z M189,113.1c0-1.7,14.2-12.1,16.5-12.1
			c0.4,0,0.2,0.7-0.5,1.5c-0.6,0.8-1.5,1.3-2.4,1.5c-0.6,0-4,2.3-7.4,5S189,113.6,189,113.1L189,113.1z M172,109.6
			c4-3.9,18-13.6,19.7-13.6c0.8,0-1.4,1.9-4.9,4.2s-8.4,5.9-11,8C170.7,112.4,168.1,113.3,172,109.6L172,109.6z M201.9,110.6
			c1.7-2.1,10.7-8.4,9.7-6.8c-1.8,1.8-3.8,3.4-5.9,4.8C202.8,110.6,201.1,111.6,201.9,110.6L201.9,110.6z M189.5,86
			c1.4-2.3,25-11.9,26.1-10.8c0.3,0.3-1.9,1.3-4.8,2.3s-9.1,3.5-13.6,5.6S189.2,86.5,189.5,86L189.5,86z M207,84.5
			c1.7-1,3.6-1.8,5.5-2.4c0.6,0-1,1.1-3.5,2.4c-1.7,1-3.6,1.8-5.5,2.4C202.9,86.9,204.5,85.8,207,84.5z M162.4,76.1
			c0.8-1.3,14.7-9.4,15.2-8.8s-2.1,2.2-11,7.4C162.5,77.2,161.6,77.5,162.4,76.1L162.4,76.1z M184.5,73.5c2.9-2.4,18.3-9,19.1-8.2
			c0.2,0.2-2.2,1.4-5.4,2.7s-8.2,3.6-11.2,5.2C181.7,75.8,181.6,75.9,184.5,73.5z M173,64.1c0-0.9,7.9-5.5,8.5-5
			c0.2,0.2-1.6,1.6-4.1,3.1S173,64.5,173,64.1L173,64.1z M204,59c1.5-0.9,3.2-1.6,5-1.9c0.8,0-0.5,0.9-2.9,2
			C200.6,61.6,199.4,61.6,204,59L204,59z M251.7,49.3c1-0.3,2-0.3,3,0c1,0.3,0.4,0.5-1.2,0.5S251.1,49.6,251.7,49.3L251.7,49.3z
			 M160.5,119.3c4.2-3.7,4.4-4.2,2.6-4.8c-1.4-0.4-2.9,0.1-3.8,1.3c-2.1,2.1-4.4,4-6.7,5.8c-4.7,3.7-4.9,3.8-2.5,0.8
			c1.7-2,3.6-3.7,5.8-5.3c3.4-2.2,4.3-4.1,1.9-4.1c-1.9,0-8.9,5.2-11.5,8.5c-1.2,1.5-2.4,2.5-2.8,2.2s2-3.1,5.1-6.2s5.1-5.5,4.2-5.5
			s-4.4,2.8-7.9,6.2l-6.4,6.2l8,1c7,0.9,8.1,0.8,8.7-0.5C155.5,124,157.9,121.5,160.5,119.3L160.5,119.3z M144.1,116.5
			c2.1-1.9,3.5-3.5,3.1-3.5c-2.3,0.1-11.6,10.5-10.8,12c0.5,0.8,1.3,0.1,2.2-1.9C140.2,120.7,142,118.4,144.1,116.5L144.1,116.5z
			 M141.6,110.9c0.9-1.2,1.7-2.4,2.4-3.7c0-1.1-6,4.7-7.5,7.2l-1.8,2.9l2.2-1.6C138.7,114.4,140.2,112.7,141.6,110.9L141.6,110.9z
			 M54.5,109.5l4-1.5l-3.5,0.6c-2.4,0.5-4.6,1.4-6.8,2.6c-3.9,2.4-4.4,3.6-0.5,1.3C49.9,111.4,52.2,110.4,54.5,109.5L54.5,109.5z
			 M104.9,108.6c-0.8-2.6-1.8-5.1-3-7.6c-1.2-2.5-2.5-5.5-3-6.8c-0.8-2.2-2.9-3.2-2.9-1.5c1,2.7,2.1,5.3,3.5,7.8
			c1.7,3.3,3.1,6.7,4.1,10.3c0.4,2.1,0.9,2.9,1.4,2.1S105.4,110.3,104.9,108.6L104.9,108.6z M100,104.9c-2.3-6.2-3.7-7.9-2.5-3.2
			c1.2,5.1,3.9,11.6,4.4,10.3C102,111.4,101.2,108.2,100,104.9z M145,101.6c0-1.6-0.2-1.7-1.7-0.5c-4.5,3.4-6.3,5.4-6.3,7.2
			s0.6,1.4,4-1.4C143.2,105,145,102.7,145,101.6L145,101.6z M152.5,104.2c2.8-2.1,7.6-5.5,10.9-7.7c5.1-3.5,8.2-7.1,7-8.4
			c-0.2-0.2-2.9,1.6-6.1,4s-8.2,6.3-11.2,8.6c-5.3,4-8.1,7.3-6.4,7.3C147.1,108,149.7,106.3,152.5,104.2L152.5,104.2z M103.5,97.2
			c-1.2-3.1-2.6-6.2-4.2-9.1c-0.8-1.3-1.3-2.6-1-2.8s2.1,2.6,4,6.3l3.5,6.8v-4.7c0-2.6-0.3-4.8-0.8-5c-0.9-0.3-5.3-9.8-4.6-9.8
			c0.2,0,1.3,1.7,2.4,3.8c1.7,3.1,2,3.4,2,1.5c0.2-8.7-16.3-26.6-31.1-34c-3-1.6-6.1-3-9.3-4.2c-0.5,0,1.2,2.1,3.7,4.8
			c5.4,5.6,9,12.4,11.7,22.2c1.4,5,3.7,9.7,6.9,13.8c2.7,3.7,5.4,7.6,6,8.6c0.8,1.6,1.2,0.4,1.8-5.9c0.8-8.7-0.5-17-3.6-22.4
			c-2.2-3.8-2.3-4.2-1-4.2c1.1,0,4.5,6.4,5.4,10c0.6,3,1,6,1.2,9c0.5,4.8,1.7,8.6,4.8,14.7c2.3,4.5,4.3,8,4.6,7.8
			S105.1,101,103.5,97.2L103.5,97.2z M89.3,86.4c-3.3-3.7-4-5.2-1.3-2.9c2,1.7,4.7,5.5,3.9,5.5C90.9,88.2,90,87.3,89.3,86.4z
			 M87.6,79.6c-3.3-3.9-4.4-5.7-2.7-4.1c3.7,3.4,9.5,10.4,9,10.9C93.7,86.5,90.9,83.5,87.6,79.6L87.6,79.6z M86.5,71.8
			c-3.5-3.7-3.9-4.3-1.4-2.3c3.2,2.7,7.5,7.4,6.7,7.4C89.9,75.4,88.1,73.6,86.5,71.8z M83.4,62.7l-1.9-2.3l2.3,1.9
			c0.9,0.6,1.6,1.4,2.3,2.2C86,65.4,85.2,64.8,83.4,62.7z M149.1,89c1.5-3.9,2.3-7,1.9-7s-1.2,0.7-1.7,1.6c-0.6,0.9-1.5,1.6-2.6,1.8
			c-1.6,0.2-5.6,5.1-5.6,6.9c0,0.4,1.4-0.2,3.1-1.4c4.8-3.4,4.5-1.7-0.5,2.9c-2.5,2.3-4.8,5.4-5.2,6.9c-0.7,2.7-0.7,2.7,3.6-1
			C145.2,96.9,147,94.2,149.1,89z M41.1,91.5c1.6-0.8,3-1.9,3-2.4c-0.8-2.5-1.9-5-3.1-7.4c-3-6.5-3.1-6.5-6-5.5
			c-3.6,1.3-3.9,3.3-0.4,2.6c1.4-0.3,2.7-0.2,3,0.3s-1.3,1-3.3,1.3c-6.6,1.1-9.5,6.3-5.7,10.2C31.4,93.4,36.6,93.8,41.1,91.5
			L41.1,91.5z M206.1,73.4c3.8-1.5,6.9-3.1,6.9-3.5c0-2.4-10.8,1.2-22,7.4c-5.2,2.9-11.2,6.1-13.3,7.2S174,87,174,87.6
			s5.7-1.7,12.6-5.2S202.4,74.8,206.1,73.4L206.1,73.4z M152.2,80.6c0.3,0.3,1.8-1.4,3.2-3.8c1.3-2.3,2.9-4.4,4.7-6.3
			c2.7-2.4,4.5-5.6,2.7-4.8c-2,0.9-16.8,17.3-16.8,18.6c0,0.6,1.3,0,2.8-1.5S151.9,80.2,152.2,80.6z M107,50c3.6-1.7,7-3.1,7.6-3.1
			s0.9-0.8,0.6-2c-0.5-1.9-1-1.7-8.3,2.2c-7.6,4.1-15,9.9-15,11.9c0,0.5,1.9-0.6,4.3-2.5C99.6,54.1,103.2,51.9,107,50z M162,53
			c1.3-0.8,1.3-1-0.1-1c-0.9,0-3.5-2.2-5.8-5s-5-5.2-6.1-5.6c-2.4-0.8-11,2.9-11,4.7c0,2.5,1.5,3.6,6.5,5.2
			C154.4,54.1,159.5,54.6,162,53L162,53z M85.4,42.8c0.4-2.2,2.3-5.5,4.7-8.3c2.3-2.6,3.9-4.9,3.6-5.2c-1-1-8.7-1.4-8.7-0.4
			c0,0.5,0.7,1,1.5,1c1.6,0,1.8,1.4,0.5,4.5c-0.8,1.9-0.9,1.8-1.9-0.8c-0.6-1.5-1-3.1-1.1-4.8c0-1.1-0.4-1.9-1-1.9
			c-1.3,0-1.3-0.2,0.6,5.3c1.3,3.8,1.4,5.8,0.5,11.6C82.3,55.6,83.3,54.8,85.4,42.8L85.4,42.8z M136,42.3c-2.2-1.5-2.6-5.2-0.8-7.1
			c0.9-0.9,0.7-1.2-1.3-1.2c-2.7,0-9.5,4.9-7,5c2.5,0.1-4,3-7.1,3.2c-2,0.2-2.8,0.7-2.6,1.7c0.3,1.8,3.7,2.8,10.3,3
			c2.4,0,4.7,0.4,7,1C137.4,49.2,138.7,44.3,136,42.3L136,42.3z M122,44c0.9-0.6,1.9-0.9,3-1c1.3,0,1.3,0.1,0,1
			c-0.9,0.6-1.9,0.9-3,1C120.7,45,120.7,44.8,122,44z M162.7,40.3l3.7-3.7l-3.4-0.6c-1.9-0.3-4-0.8-4.7-1c-1.3-0.4-7.3,3.1-7.3,4.4
			c0,0.4,0.6,0.8,1.3,0.8c1.2,0.3,2.3,1,3.1,2C157.9,44.7,158.3,44.6,162.7,40.3L162.7,40.3z M141.5,41c0.7-0.7,1.7-1.1,2.7-1
			c1.2,0,4-2.1,6.6-4.8c10.9-11.5,10.8-11.3,9.4-12.2c-1-0.5-2.2-0.6-3.3-0.3c-1.6,0.2-3.2,0-4.6-0.5c-7.3-2.8-8-2.6-14.2,3.3
			c-3.2,3.1-6.1,5.1-6.5,4.6s1-2.2,3-3.7c2-1.5,3.7-3.4,5-5.5c1.4-2.8,2-14,0.8-15.2c-0.3-0.3-1.7,0.9-3,2.8s-3.3,4.8-4.5,6.4
			c-1.7,2.3-2.2,4.4-2.3,9.8c-0.1,6.6,0,6.8,2.4,6.7c2-0.1,4-0.4,6-0.9l3.5-0.8l-3.3,3.4c-3.6,3.8-4.1,6.2-1.5,7.7
			C140,42.2,140.7,42.2,141.5,41L141.5,41z M129.1,33.2c-1-0.1-1.9,0.2-2.7,0.8c-2,1.7-1.9,0.1,0.2-2.2c0.9-1,1.3-1.8,0.8-1.8
			s-2.2,1.7-3.8,3.7s-2.3,3.1-1.6,2.4c2-1.8,3.5-1.5,1.9,0.3c-0.8,1,0.1,0.8,2.5-0.7C128.6,34.6,129.8,33.4,129.1,33.2z M98.7,21
			c4.1-6.9,4.6-14,1-16.5c-3.2-2.3-4.4-2-7.4,2c-1.9,2.7-3.1,5.9-3.4,9.3l-0.7,5.7l-0.1-5.1c0-3,0.4-6,1.4-8.9c2-4.8,1-5.8-2.1-2
			c-3.4,4.1-4.9,9.5-4,14.8c0.8,5.4,2.5,6.7,8.1,6.4C95.2,26.5,95.8,26,98.7,21L98.7,21z M151.4,17.7c1.4-5.1,2.4-10.3,2.1-10.6
			s-2.2,0.2-4.4,0.8c-4.1,1.1-4.2,1.2-5.6,8.2c-0.2,1.3,0.5,1.8,2.8,2.1c1.7,0.2,3.5,0.5,3.9,0.6S151.2,18.4,151.4,17.7z"/>
	</g>
</g>
</svg>
